<svg xmlns="http://www.w3.org/2000/svg" viewBox="0 0 285.95 132.19"><defs><style>.cls-1{fill:#b82b22;}.cls-2{fill:#231815;}</style></defs><g id="レイヤー_2" data-name="レイヤー 2"><g id="レイヤー_1-2" data-name="レイヤー 1"><polygon class="cls-1" points="75.79 5.16 37.52 132.19 81.16 0 75.79 5.16"/><polygon class="cls-1" points="33.8 132.19 2.97 58.02 37.52 132.19 33.8 132.19"/><polygon class="cls-1" points="0 51.65 2.97 58.02 108.36 128.84 0 51.65"/><path class="cls-2" d="M103.09,110.44H79.23l-9.74,18.4h-4.2L96,71.13l16.21,57.71H108.3Zm-.93-3.36L94.94,80.54,81,107.08Z"/><path class="cls-2" d="M150.21,102.63a18.79,18.79,0,0,0-4.7-3.86A14.06,14.06,0,0,0,138.7,97a15.43,15.43,0,0,0-11.34,4.45,17.06,17.06,0,0,0-4.53,11.76,14.81,14.81,0,0,0,3.53,9.58,12.66,12.66,0,0,0,9.66,3.78,14,14,0,0,0,7-1.6,16.63,16.63,0,0,0,5.38-4.53l-.59,4.87a24.22,24.22,0,0,1-4.87,3.11,19.47,19.47,0,0,1-7.14,1.34c-5.88,0-9.58-2-12.1-4.53a16.94,16.94,0,0,1-4.45-12A20,20,0,0,1,125,98.93a19.08,19.08,0,0,1,13.61-5.12,19.57,19.57,0,0,1,7.48,1.51,22.91,22.91,0,0,1,4.7,2.86Z"/><path class="cls-2" d="M187.51,102.63a18.83,18.83,0,0,0-4.71-3.86A14,14,0,0,0,176,97a15.43,15.43,0,0,0-11.34,4.45,17.07,17.07,0,0,0-4.54,11.76,14.81,14.81,0,0,0,3.53,9.58,12.67,12.67,0,0,0,9.66,3.78,14.08,14.08,0,0,0,7.06-1.6,16.48,16.48,0,0,0,5.37-4.53l-.59,4.87a24.22,24.22,0,0,1-4.87,3.11,19.44,19.44,0,0,1-7.14,1.34c-5.88,0-9.57-2-12.09-4.53a16.94,16.94,0,0,1-4.45-12,20,20,0,0,1,5.71-14.28,19.08,19.08,0,0,1,13.61-5.12,19.5,19.5,0,0,1,7.47,1.51,22.71,22.71,0,0,1,4.71,2.86Z"/><path class="cls-2" d="M197.59,112.12A13.13,13.13,0,0,0,201,123.21a11.77,11.77,0,0,0,8.65,3.36,14.45,14.45,0,0,0,8.15-2.44,15,15,0,0,0,4.45-5.37l2.61,1.68a20.64,20.64,0,0,1-6.14,6.8,16.06,16.06,0,0,1-9.15,2.52c-4.45,0-8.32-1.17-11.43-4.53a16.41,16.41,0,0,1-4.28-11.68,20.5,20.5,0,0,1,5.71-14.78,16.77,16.77,0,0,1,12.27-5,15.41,15.41,0,0,1,10.75,4c3.86,3.69,4.62,9.07,4.2,14.36Zm25.87-3.19a13.44,13.44,0,0,0-3.45-8.74A10.8,10.8,0,0,0,211.87,97a13.28,13.28,0,0,0-9.83,4.12,15.58,15.58,0,0,0-3.95,7.81Z"/><path class="cls-2" d="M245.8,67.6l-7.56,61.24h-3.36l7.56-61.24Z"/><path class="cls-2" d="M282.59,94.57H286l-4.2,34.27h-3.36l.67-5.29a14.31,14.31,0,0,1-5,4.45,17.42,17.42,0,0,1-7.9,1.76c-3.95,0-7.73-.92-10.92-3.95-2.1-1.93-5-5.79-5-12.43,0-5.63,1.94-11.17,5.8-14.87,2.52-2.43,6.47-4.7,12.68-4.7a14.63,14.63,0,0,1,8.32,2.27,14.46,14.46,0,0,1,4.7,5.21Zm-24.19,6.21c-2.77,2.77-4.62,7.48-4.62,12.35a14.32,14.32,0,0,0,4,10.25,12.43,12.43,0,0,0,8.74,3.19,13.05,13.05,0,0,0,8.14-2.52c5-3.7,6.22-10.08,6.22-13.78,0-4.11-1.34-7.64-3.53-9.82C275.87,98.93,273,97,268.06,97A13.13,13.13,0,0,0,258.4,100.78Z"/></g></g></svg>