<svg width="400" height="300" viewBox="0 0 400 300" fill="none" xmlns="http://www.w3.org/2000/svg">
<rect width="400" height="300" rx="20" fill="white" fill-opacity="0.4"/>
<rect x="60.5" y="48.5" width="279" height="207" rx="9.5" fill="white" stroke="black"/>
<path d="M70 48.5H330C335.247 48.5 339.5 52.7533 339.5 58V83.5H60.5V58C60.5 52.7533 64.7533 48.5 70 48.5Z" fill="#E2E6EA" stroke="black"/>
<path d="M99.9475 200.066H95.7305C94.4867 200.066 93.4746 199.054 93.4746 197.811V140.189C93.4746 138.946 94.4867 137.934 95.7305 137.934H112.481C113.015 137.934 113.448 137.501 113.448 136.967C113.448 136.433 113.015 136 112.481 136H95.7305C93.4205 136 91.541 137.879 91.541 140.189V197.811C91.541 200.121 93.4205 202 95.7305 202H99.9475C100.481 202 100.914 201.567 100.914 201.033C100.914 200.499 100.481 200.066 99.9475 200.066Z" fill="#71AAFF"/>
<path d="M142.176 149.625L128.834 136.283C128.708 136.157 128.532 136.057 128.339 136.019C128.331 136.011 128.163 136 128.15 136H116.993C116.459 136 116.026 136.433 116.026 136.967C116.026 137.501 116.459 137.934 116.993 137.934H127.184V147.086C127.184 149.396 129.063 151.275 131.373 151.275H140.525V197.811C140.525 199.054 139.513 200.066 138.27 200.066H104.459C103.925 200.066 103.492 200.499 103.492 201.033C103.492 201.567 103.925 202 104.459 202H138.27C140.58 202 142.459 200.121 142.459 197.811V150.309C142.459 150.065 142.361 149.81 142.176 149.625ZM131.373 149.342C130.129 149.342 129.117 148.33 129.117 147.086V139.301L139.158 149.342H131.373Z" fill="#71AAFF"/>
<path d="M133.758 157.241H100.242C99.7083 157.241 99.2754 157.674 99.2754 158.208C99.2754 158.742 99.7083 159.175 100.242 159.175H133.758C134.292 159.175 134.725 158.742 134.725 158.208C134.725 157.674 134.292 157.241 133.758 157.241Z" fill="#71AAFF"/>
<path d="M133.758 165.835H100.242C99.7083 165.835 99.2754 166.268 99.2754 166.802C99.2754 167.336 99.7083 167.769 100.242 167.769H133.758C134.292 167.769 134.725 167.336 134.725 166.802C134.725 166.268 134.292 165.835 133.758 165.835Z" fill="#71AAFF"/>
<path d="M133.758 174.429H100.242C99.7083 174.429 99.2754 174.862 99.2754 175.396C99.2754 175.93 99.7083 176.362 100.242 176.362H133.758C134.292 176.362 134.725 175.93 134.725 175.396C134.725 174.862 134.292 174.429 133.758 174.429Z" fill="#71AAFF"/>
<path d="M133.758 183.023H100.242C99.7083 183.023 99.2754 183.455 99.2754 183.989C99.2754 184.523 99.7083 184.956 100.242 184.956H133.758C134.292 184.956 134.725 184.523 134.725 183.989C134.725 183.455 134.292 183.023 133.758 183.023Z" fill="#71AAFF"/>
<path d="M182.948 200.066H178.73C177.487 200.066 176.475 199.054 176.475 197.811V140.189C176.475 138.946 177.487 137.934 178.73 137.934H195.481C196.015 137.934 196.448 137.501 196.448 136.967C196.448 136.433 196.015 136 195.481 136H178.73C176.42 136 174.541 137.879 174.541 140.189V197.811C174.541 200.121 176.42 202 178.73 202H182.948C183.481 202 183.914 201.567 183.914 201.033C183.914 200.499 183.481 200.066 182.948 200.066Z" fill="#71AAFF"/>
<path d="M225.176 149.625L211.834 136.283C211.708 136.157 211.532 136.057 211.339 136.019C211.331 136.011 211.163 136 211.15 136H199.993C199.459 136 199.026 136.433 199.026 136.967C199.026 137.501 199.459 137.934 199.993 137.934H210.184V147.086C210.184 149.396 212.063 151.275 214.373 151.275H223.525V197.811C223.525 199.054 222.513 200.066 221.27 200.066H187.459C186.925 200.066 186.492 200.499 186.492 201.033C186.492 201.567 186.925 202 187.459 202H221.27C223.58 202 225.459 200.121 225.459 197.811V150.309C225.459 150.065 225.361 149.81 225.176 149.625ZM214.373 149.342C213.129 149.342 212.117 148.33 212.117 147.086V139.301L222.158 149.342H214.373Z" fill="#71AAFF"/>
<path d="M216.758 157.241H183.242C182.708 157.241 182.275 157.674 182.275 158.208C182.275 158.742 182.708 159.175 183.242 159.175H216.758C217.292 159.175 217.725 158.742 217.725 158.208C217.725 157.674 217.292 157.241 216.758 157.241Z" fill="#71AAFF"/>
<path d="M216.758 165.835H183.242C182.708 165.835 182.275 166.268 182.275 166.802C182.275 167.336 182.708 167.769 183.242 167.769H216.758C217.292 167.769 217.725 167.336 217.725 166.802C217.725 166.268 217.292 165.835 216.758 165.835Z" fill="#71AAFF"/>
<path d="M216.758 174.429H183.242C182.708 174.429 182.275 174.862 182.275 175.396C182.275 175.93 182.708 176.362 183.242 176.362H216.758C217.292 176.362 217.725 175.93 217.725 175.396C217.725 174.862 217.292 174.429 216.758 174.429Z" fill="#71AAFF"/>
<path d="M216.758 183.023H183.242C182.708 183.023 182.275 183.455 182.275 183.989C182.275 184.523 182.708 184.956 183.242 184.956H216.758C217.292 184.956 217.725 184.523 217.725 183.989C217.725 183.455 217.292 183.023 216.758 183.023Z" fill="#71AAFF"/>
<path d="M265.948 200.066H261.73C260.487 200.066 259.475 199.054 259.475 197.811V140.189C259.475 138.946 260.487 137.934 261.73 137.934H278.481C279.015 137.934 279.448 137.501 279.448 136.967C279.448 136.433 279.015 136 278.481 136H261.73C259.42 136 257.541 137.879 257.541 140.189V197.811C257.541 200.121 259.42 202 261.73 202H265.948C266.481 202 266.914 201.567 266.914 201.033C266.914 200.499 266.481 200.066 265.948 200.066Z" fill="#71AAFF"/>
<path d="M308.176 149.625L294.834 136.283C294.708 136.157 294.532 136.057 294.339 136.019C294.331 136.011 294.163 136 294.15 136H282.993C282.459 136 282.026 136.433 282.026 136.967C282.026 137.501 282.459 137.934 282.993 137.934H293.184V147.086C293.184 149.396 295.063 151.275 297.373 151.275H306.525V197.811C306.525 199.054 305.513 200.066 304.27 200.066H270.459C269.925 200.066 269.492 200.499 269.492 201.033C269.492 201.567 269.925 202 270.459 202H304.27C306.58 202 308.459 200.121 308.459 197.811V150.309C308.459 150.065 308.361 149.81 308.176 149.625ZM297.373 149.342C296.129 149.342 295.117 148.33 295.117 147.086V139.301L305.158 149.342H297.373Z" fill="#71AAFF"/>
<path d="M299.758 157.241H266.242C265.708 157.241 265.275 157.674 265.275 158.208C265.275 158.742 265.708 159.175 266.242 159.175H299.758C300.292 159.175 300.725 158.742 300.725 158.208C300.725 157.674 300.292 157.241 299.758 157.241Z" fill="#71AAFF"/>
<path d="M299.758 165.835H266.242C265.708 165.835 265.275 166.268 265.275 166.802C265.275 167.336 265.708 167.769 266.242 167.769H299.758C300.292 167.769 300.725 167.336 300.725 166.802C300.725 166.268 300.292 165.835 299.758 165.835Z" fill="#71AAFF"/>
<path d="M299.758 174.429H266.242C265.708 174.429 265.275 174.862 265.275 175.396C265.275 175.93 265.708 176.362 266.242 176.362H299.758C300.292 176.362 300.725 175.93 300.725 175.396C300.725 174.862 300.292 174.429 299.758 174.429Z" fill="#71AAFF"/>
<path d="M299.758 183.023H266.242C265.708 183.023 265.275 183.455 265.275 183.989C265.275 184.523 265.708 184.956 266.242 184.956H299.758C300.292 184.956 300.725 184.523 300.725 183.989C300.725 183.455 300.292 183.023 299.758 183.023Z" fill="#71AAFF"/>
<path d="M168.354 163.354C168.549 163.158 168.549 162.842 168.354 162.646L165.172 159.464C164.976 159.269 164.66 159.269 164.464 159.464C164.269 159.66 164.269 159.976 164.464 160.172L167.293 163L164.464 165.828C164.269 166.024 164.269 166.34 164.464 166.536C164.66 166.731 164.976 166.731 165.172 166.536L168.354 163.354ZM148 163.5H168V162.5H148V163.5Z" fill="black"/>
<path d="M252.354 163.354C252.549 163.158 252.549 162.842 252.354 162.646L249.172 159.464C248.976 159.269 248.66 159.269 248.464 159.464C248.269 159.66 248.269 159.976 248.464 160.172L251.293 163L248.464 165.828C248.269 166.024 248.269 166.34 248.464 166.536C248.66 166.731 248.976 166.731 249.172 166.536L252.354 163.354ZM232 163.5H252V162.5H232V163.5Z" fill="black"/>
<path d="M147.646 179.354C147.451 179.158 147.451 178.842 147.646 178.646L150.828 175.464C151.024 175.269 151.34 175.269 151.536 175.464C151.731 175.66 151.731 175.976 151.536 176.172L148.707 179L151.536 181.828C151.731 182.024 151.731 182.34 151.536 182.536C151.34 182.731 151.024 182.731 150.828 182.536L147.646 179.354ZM168 179.5H148V178.5H168V179.5Z" fill="black"/>
<path d="M231.646 179.354C231.451 179.158 231.451 178.842 231.646 178.646L234.828 175.464C235.024 175.269 235.34 175.269 235.536 175.464C235.731 175.66 235.731 175.976 235.536 176.172L232.707 179L235.536 181.828C235.731 182.024 235.731 182.34 235.536 182.536C235.34 182.731 235.024 182.731 234.828 182.536L231.646 179.354ZM252 179.5H232V178.5H252V179.5Z" fill="black"/>
<circle cx="77" cy="66" r="7" fill="#FF3456"/>
<circle cx="99" cy="66" r="7" fill="#FF9534"/>
<circle cx="121" cy="66" r="7" fill="#5EC86F"/>
</svg>
