<svg width="400" height="300" viewBox="0 0 400 300" fill="none" xmlns="http://www.w3.org/2000/svg">
<g clip-path="url(#clip0)">
<rect width="400" height="300" rx="20" fill="white" fill-opacity="0.4"/>
<path d="M71.738 32.78V32.042L78.452 28.892V30.26L73.79 32.51L78.452 34.94V36.488L71.738 32.78ZM80.962 24.518L82.402 24.356V30.08C82.762 29.84 83.116 29.63 83.464 29.45C83.824 29.27 84.19 29.114 84.562 28.982C84.934 28.838 85.294 28.766 85.642 28.766C86.134 28.766 86.542 28.826 86.866 28.946C87.202 29.054 87.472 29.24 87.676 29.504C87.88 29.768 88.024 30.116 88.108 30.548C88.204 30.98 88.252 31.52 88.252 32.168V38H86.812V32.33C86.812 31.97 86.806 31.652 86.794 31.376C86.782 31.088 86.728 30.848 86.632 30.656C86.548 30.452 86.41 30.296 86.218 30.188C86.038 30.08 85.78 30.026 85.444 30.026C85.132 30.026 84.796 30.098 84.436 30.242C84.076 30.374 83.734 30.53 83.41 30.71C83.086 30.89 82.75 31.1 82.402 31.34V38H80.962V24.518ZM97.4842 37.784C97.2082 37.868 96.9202 37.94 96.6202 38C96.3322 38.06 96.0082 38.114 95.6482 38.162C95.3002 38.21 94.9342 38.234 94.5502 38.234C93.9502 38.234 93.3922 38.15 92.8762 37.982C92.3602 37.814 91.9102 37.544 91.5262 37.172C91.1422 36.8 90.8362 36.32 90.6082 35.732C90.3922 35.132 90.2842 34.4 90.2842 33.536C90.2842 32.756 90.3922 32.072 90.6082 31.484C90.8242 30.884 91.1182 30.386 91.4902 29.99C91.8742 29.582 92.3182 29.276 92.8222 29.072C93.3382 28.868 93.8962 28.766 94.4962 28.766C95.0842 28.766 95.5942 28.88 96.0262 29.108C96.4582 29.336 96.8122 29.648 97.0882 30.044C97.3762 30.428 97.5862 30.884 97.7182 31.412C97.8622 31.928 97.9342 32.474 97.9342 33.05L97.6642 33.842H91.8502C91.8502 34.214 91.8982 34.586 91.9942 34.958C92.0902 35.33 92.2522 35.666 92.4802 35.966C92.7202 36.266 93.0262 36.512 93.3982 36.704C93.7822 36.884 94.2562 36.974 94.8202 36.974C95.1802 36.974 95.5102 36.956 95.8102 36.92C96.1102 36.872 96.3682 36.824 96.5842 36.776C96.8122 36.716 97.0222 36.65 97.2142 36.578L97.4842 37.784ZM96.4402 32.69C96.4402 32.606 96.4222 32.42 96.3862 32.132C96.3502 31.844 96.2662 31.544 96.1342 31.232C96.0022 30.92 95.7982 30.644 95.5222 30.404C95.2462 30.152 94.8802 30.026 94.4242 30.026C93.9202 30.026 93.5062 30.134 93.1822 30.35C92.8582 30.554 92.6002 30.8 92.4082 31.088C92.2162 31.376 92.0842 31.67 92.0122 31.97C91.9402 32.27 91.9042 32.51 91.9042 32.69H96.4402ZM104.934 33.842C104.694 33.854 104.466 33.866 104.25 33.878C104.034 33.89 103.818 33.908 103.602 33.932C103.398 33.944 103.212 33.962 103.044 33.986C102.18 34.094 101.568 34.286 101.208 34.562C100.848 34.826 100.668 35.21 100.668 35.714C100.668 36.134 100.794 36.452 101.046 36.668C101.31 36.872 101.652 36.974 102.072 36.974C102.648 36.974 103.158 36.878 103.602 36.686C104.058 36.482 104.502 36.218 104.934 35.894V33.842ZM104.916 37.154C104.352 37.478 103.824 37.742 103.332 37.946C102.852 38.138 102.33 38.234 101.766 38.234C100.962 38.234 100.32 38.042 99.8397 37.658C99.3717 37.262 99.1377 36.614 99.1377 35.714C99.1377 35.246 99.2577 34.838 99.4977 34.49C99.7377 34.142 100.05 33.854 100.434 33.626C100.83 33.386 101.274 33.2 101.766 33.068C102.258 32.936 102.762 32.852 103.278 32.816C103.494 32.792 103.776 32.774 104.124 32.762C104.472 32.738 104.742 32.72 104.934 32.708C104.934 32.288 104.922 31.916 104.898 31.592C104.874 31.256 104.802 30.974 104.682 30.746C104.562 30.506 104.382 30.326 104.142 30.206C103.914 30.086 103.584 30.026 103.152 30.026C102.804 30.026 102.468 30.05 102.144 30.098C101.82 30.134 101.532 30.176 101.28 30.224C100.98 30.284 100.704 30.35 100.452 30.422L100.164 29.18C100.464 29.108 100.788 29.042 101.136 28.982C101.436 28.922 101.784 28.874 102.18 28.838C102.576 28.79 103.002 28.766 103.458 28.766C104.07 28.766 104.562 28.856 104.934 29.036C105.318 29.216 105.612 29.462 105.816 29.774C106.032 30.074 106.176 30.422 106.248 30.818C106.332 31.202 106.374 31.61 106.374 32.042V36.362C106.374 36.53 106.374 36.71 106.374 36.902C106.386 37.082 106.398 37.262 106.41 37.442C106.434 37.622 106.458 37.808 106.482 38L105.096 38.144L104.916 37.154ZM114.563 30.296C114.131 30.176 113.795 30.104 113.555 30.08C113.315 30.044 113.069 30.026 112.817 30.026C112.313 30.026 111.881 30.116 111.521 30.296C111.161 30.476 110.861 30.728 110.621 31.052C110.393 31.364 110.225 31.73 110.117 32.15C110.009 32.558 109.955 32.996 109.955 33.464C109.955 33.884 109.997 34.304 110.081 34.724C110.177 35.144 110.321 35.522 110.513 35.858C110.705 36.194 110.939 36.464 111.215 36.668C111.491 36.872 111.821 36.974 112.205 36.974C112.469 36.974 112.739 36.926 113.015 36.83C113.303 36.734 113.567 36.626 113.807 36.506C114.047 36.374 114.299 36.212 114.563 36.02V30.296ZM114.581 37.28C114.305 37.472 114.035 37.634 113.771 37.766C113.519 37.886 113.237 37.994 112.925 38.09C112.625 38.186 112.331 38.234 112.043 38.234C110.915 38.234 110.027 37.838 109.379 37.046C108.743 36.242 108.425 35.072 108.425 33.536C108.425 32.624 108.569 31.862 108.857 31.25C109.157 30.638 109.529 30.152 109.973 29.792C110.417 29.42 110.891 29.156 111.395 29C111.911 28.844 112.385 28.766 112.817 28.766C113.033 28.766 113.261 28.784 113.501 28.82C113.741 28.844 114.095 28.916 114.563 29.036V24.518L116.003 24.356V36.362C116.003 36.53 116.003 36.71 116.003 36.902C116.015 37.082 116.027 37.262 116.039 37.442C116.063 37.622 116.087 37.808 116.111 38L114.725 38.144L114.581 37.28ZM118.524 34.94L123.186 32.51L118.524 30.26V28.892L125.238 32.042V32.78L118.524 36.488V34.94ZM71.738 80.78V80.042L78.452 76.892V78.26L73.79 80.51L78.452 82.94V84.488L71.738 80.78ZM86.956 70.7L88.306 71.204L81.556 89.762L80.206 89.258L86.956 70.7ZM90.1378 72.518L91.5778 72.356V78.08C91.9378 77.84 92.2918 77.63 92.6398 77.45C92.9998 77.27 93.3658 77.114 93.7378 76.982C94.1098 76.838 94.4698 76.766 94.8178 76.766C95.3098 76.766 95.7178 76.826 96.0418 76.946C96.3778 77.054 96.6478 77.24 96.8518 77.504C97.0558 77.768 97.1998 78.116 97.2838 78.548C97.3798 78.98 97.4278 79.52 97.4278 80.168V86H95.9878V80.33C95.9878 79.97 95.9818 79.652 95.9698 79.376C95.9578 79.088 95.9038 78.848 95.8078 78.656C95.7238 78.452 95.5858 78.296 95.3938 78.188C95.2138 78.08 94.9558 78.026 94.6198 78.026C94.3078 78.026 93.9718 78.098 93.6118 78.242C93.2518 78.374 92.9098 78.53 92.5858 78.71C92.2618 78.89 91.9258 79.1 91.5778 79.34V86H90.1378V72.518ZM106.66 85.784C106.384 85.868 106.096 85.94 105.796 86C105.508 86.06 105.184 86.114 104.824 86.162C104.476 86.21 104.11 86.234 103.726 86.234C103.126 86.234 102.568 86.15 102.052 85.982C101.536 85.814 101.086 85.544 100.702 85.172C100.318 84.8 100.012 84.32 99.784 83.732C99.568 83.132 99.46 82.4 99.46 81.536C99.46 80.756 99.568 80.072 99.784 79.484C100 78.884 100.294 78.386 100.666 77.99C101.05 77.582 101.494 77.276 101.998 77.072C102.514 76.868 103.072 76.766 103.672 76.766C104.26 76.766 104.77 76.88 105.202 77.108C105.634 77.336 105.988 77.648 106.264 78.044C106.552 78.428 106.762 78.884 106.894 79.412C107.038 79.928 107.11 80.474 107.11 81.05L106.84 81.842H101.026C101.026 82.214 101.074 82.586 101.17 82.958C101.266 83.33 101.428 83.666 101.656 83.966C101.896 84.266 102.202 84.512 102.574 84.704C102.958 84.884 103.432 84.974 103.996 84.974C104.356 84.974 104.686 84.956 104.986 84.92C105.286 84.872 105.544 84.824 105.76 84.776C105.988 84.716 106.198 84.65 106.39 84.578L106.66 85.784ZM105.616 80.69C105.616 80.606 105.598 80.42 105.562 80.132C105.526 79.844 105.442 79.544 105.31 79.232C105.178 78.92 104.974 78.644 104.698 78.404C104.422 78.152 104.056 78.026 103.6 78.026C103.096 78.026 102.682 78.134 102.358 78.35C102.034 78.554 101.776 78.8 101.584 79.088C101.392 79.376 101.26 79.67 101.188 79.97C101.116 80.27 101.08 80.51 101.08 80.69H105.616ZM114.109 81.842C113.869 81.854 113.641 81.866 113.425 81.878C113.209 81.89 112.993 81.908 112.777 81.932C112.573 81.944 112.387 81.962 112.219 81.986C111.355 82.094 110.743 82.286 110.383 82.562C110.023 82.826 109.843 83.21 109.843 83.714C109.843 84.134 109.969 84.452 110.221 84.668C110.485 84.872 110.827 84.974 111.247 84.974C111.823 84.974 112.333 84.878 112.777 84.686C113.233 84.482 113.677 84.218 114.109 83.894V81.842ZM114.091 85.154C113.527 85.478 112.999 85.742 112.507 85.946C112.027 86.138 111.505 86.234 110.941 86.234C110.137 86.234 109.495 86.042 109.015 85.658C108.547 85.262 108.313 84.614 108.313 83.714C108.313 83.246 108.433 82.838 108.673 82.49C108.913 82.142 109.225 81.854 109.609 81.626C110.005 81.386 110.449 81.2 110.941 81.068C111.433 80.936 111.937 80.852 112.453 80.816C112.669 80.792 112.951 80.774 113.299 80.762C113.647 80.738 113.917 80.72 114.109 80.708C114.109 80.288 114.097 79.916 114.073 79.592C114.049 79.256 113.977 78.974 113.857 78.746C113.737 78.506 113.557 78.326 113.317 78.206C113.089 78.086 112.759 78.026 112.327 78.026C111.979 78.026 111.643 78.05 111.319 78.098C110.995 78.134 110.707 78.176 110.455 78.224C110.155 78.284 109.879 78.35 109.627 78.422L109.339 77.18C109.639 77.108 109.963 77.042 110.311 76.982C110.611 76.922 110.959 76.874 111.355 76.838C111.751 76.79 112.177 76.766 112.633 76.766C113.245 76.766 113.737 76.856 114.109 77.036C114.493 77.216 114.787 77.462 114.991 77.774C115.207 78.074 115.351 78.422 115.423 78.818C115.507 79.202 115.549 79.61 115.549 80.042V84.362C115.549 84.53 115.549 84.71 115.549 84.902C115.561 85.082 115.573 85.262 115.585 85.442C115.609 85.622 115.633 85.808 115.657 86L114.271 86.144L114.091 85.154ZM123.739 78.296C123.307 78.176 122.971 78.104 122.731 78.08C122.491 78.044 122.245 78.026 121.993 78.026C121.489 78.026 121.057 78.116 120.697 78.296C120.337 78.476 120.037 78.728 119.797 79.052C119.569 79.364 119.401 79.73 119.293 80.15C119.185 80.558 119.131 80.996 119.131 81.464C119.131 81.884 119.173 82.304 119.257 82.724C119.353 83.144 119.497 83.522 119.689 83.858C119.881 84.194 120.115 84.464 120.391 84.668C120.667 84.872 120.997 84.974 121.381 84.974C121.645 84.974 121.915 84.926 122.191 84.83C122.479 84.734 122.743 84.626 122.983 84.506C123.223 84.374 123.475 84.212 123.739 84.02V78.296ZM123.757 85.28C123.481 85.472 123.211 85.634 122.947 85.766C122.695 85.886 122.413 85.994 122.101 86.09C121.801 86.186 121.507 86.234 121.219 86.234C120.091 86.234 119.203 85.838 118.555 85.046C117.919 84.242 117.601 83.072 117.601 81.536C117.601 80.624 117.745 79.862 118.033 79.25C118.333 78.638 118.705 78.152 119.149 77.792C119.593 77.42 120.067 77.156 120.571 77C121.087 76.844 121.561 76.766 121.993 76.766C122.209 76.766 122.437 76.784 122.677 76.82C122.917 76.844 123.271 76.916 123.739 77.036V72.518L125.179 72.356V84.362C125.179 84.53 125.179 84.71 125.179 84.902C125.191 85.082 125.203 85.262 125.215 85.442C125.239 85.622 125.263 85.808 125.287 86L123.901 86.144L123.757 85.28ZM127.7 82.94L132.362 80.51L127.7 78.26V76.892L134.414 80.042V80.78L127.7 84.488V82.94ZM71.738 128.78V128.042L78.452 124.892V126.26L73.79 128.51L78.452 130.94V132.488L71.738 128.78ZM85.858 126.422C85.354 126.266 84.904 126.164 84.508 126.116C84.124 126.056 83.77 126.026 83.446 126.026C83.026 126.026 82.672 126.128 82.384 126.332C82.108 126.536 81.97 126.8 81.97 127.124C81.982 127.412 82.108 127.658 82.348 127.862C82.588 128.066 82.864 128.252 83.176 128.42C83.5 128.576 83.854 128.75 84.238 128.942C84.634 129.134 85 129.35 85.336 129.59C85.684 129.83 85.966 130.118 86.182 130.454C86.398 130.79 86.512 131.192 86.524 131.66C86.512 132.164 86.398 132.584 86.182 132.92C85.978 133.244 85.708 133.508 85.372 133.712C85.048 133.904 84.694 134.036 84.31 134.108C83.926 134.192 83.566 134.234 83.23 134.234C82.798 134.234 82.348 134.21 81.88 134.162C81.424 134.114 80.932 134.012 80.404 133.856L80.674 132.56C81.214 132.704 81.706 132.812 82.15 132.884C82.594 132.944 82.96 132.974 83.248 132.974C83.464 132.974 83.674 132.95 83.878 132.902C84.094 132.854 84.286 132.788 84.454 132.704C84.622 132.608 84.754 132.488 84.85 132.344C84.958 132.2 85.012 132.038 85.012 131.858C85 131.522 84.886 131.24 84.67 131.012C84.454 130.772 84.172 130.562 83.824 130.382C83.488 130.19 83.122 130.004 82.726 129.824C82.342 129.632 81.976 129.416 81.628 129.176C81.292 128.924 81.01 128.63 80.782 128.294C80.554 127.946 80.44 127.52 80.44 127.016C80.44 126.656 80.53 126.338 80.71 126.062C80.902 125.774 81.142 125.54 81.43 125.36C81.73 125.168 82.054 125.024 82.402 124.928C82.762 124.82 83.11 124.766 83.446 124.766C83.794 124.766 84.184 124.796 84.616 124.856C85.048 124.904 85.546 125 86.11 125.144L85.858 126.422ZM90.5739 122.246V124.946H93.1839V126.116H90.5739V130.922C90.5739 131.318 90.5799 131.648 90.5919 131.912C90.6159 132.176 90.6579 132.386 90.7179 132.542C90.7779 132.698 90.8619 132.812 90.9699 132.884C91.0779 132.944 91.2159 132.974 91.3839 132.974C91.8399 132.962 92.3679 132.794 92.9679 132.47L93.3999 133.568C93.0039 133.832 92.6319 134.006 92.2839 134.09C91.9479 134.186 91.6119 134.234 91.2759 134.234C90.4839 134.234 89.9259 134.012 89.6019 133.568C89.2899 133.112 89.1339 132.362 89.1339 131.318V126.116H87.4779V124.946H89.1339V122.426L90.5739 122.246ZM93.8545 124.946H95.3845L97.0765 129.032C97.2445 129.428 97.3945 129.824 97.5265 130.22C97.6705 130.616 97.7965 130.97 97.9045 131.282C98.0365 131.654 98.1505 132.014 98.2465 132.362H98.2645C98.3725 132.014 98.4925 131.654 98.6245 131.282C98.7325 130.97 98.8585 130.616 99.0025 130.22C99.1465 129.824 99.2965 129.428 99.4525 129.032L101.019 124.946H102.531L98.2465 135.746C98.0785 136.19 97.8565 136.574 97.5805 136.898C97.3165 137.222 97.0585 137.492 96.8065 137.708C96.5065 137.96 96.1945 138.176 95.8705 138.356L95.1685 137.114C95.4205 136.994 95.6545 136.844 95.8705 136.664C96.0625 136.508 96.2545 136.31 96.4465 136.07C96.6385 135.842 96.7945 135.566 96.9145 135.242L97.4725 133.766L93.8545 124.946ZM103.972 120.518L105.412 120.356V134H103.972V120.518ZM114.693 133.784C114.417 133.868 114.129 133.94 113.829 134C113.541 134.06 113.217 134.114 112.857 134.162C112.509 134.21 112.143 134.234 111.759 134.234C111.159 134.234 110.601 134.15 110.085 133.982C109.569 133.814 109.119 133.544 108.735 133.172C108.351 132.8 108.045 132.32 107.817 131.732C107.601 131.132 107.493 130.4 107.493 129.536C107.493 128.756 107.601 128.072 107.817 127.484C108.033 126.884 108.327 126.386 108.699 125.99C109.083 125.582 109.527 125.276 110.031 125.072C110.547 124.868 111.105 124.766 111.705 124.766C112.293 124.766 112.803 124.88 113.235 125.108C113.667 125.336 114.021 125.648 114.297 126.044C114.585 126.428 114.795 126.884 114.927 127.412C115.071 127.928 115.143 128.474 115.143 129.05L114.873 129.842H109.059C109.059 130.214 109.107 130.586 109.203 130.958C109.299 131.33 109.461 131.666 109.689 131.966C109.929 132.266 110.235 132.512 110.607 132.704C110.991 132.884 111.465 132.974 112.029 132.974C112.389 132.974 112.719 132.956 113.019 132.92C113.319 132.872 113.577 132.824 113.793 132.776C114.021 132.716 114.231 132.65 114.423 132.578L114.693 133.784ZM113.649 128.69C113.649 128.606 113.631 128.42 113.595 128.132C113.559 127.844 113.475 127.544 113.343 127.232C113.211 126.92 113.007 126.644 112.731 126.404C112.455 126.152 112.089 126.026 111.633 126.026C111.129 126.026 110.715 126.134 110.391 126.35C110.067 126.554 109.809 126.8 109.617 127.088C109.425 127.376 109.293 127.67 109.221 127.97C109.149 128.27 109.113 128.51 109.113 128.69H113.649ZM117.013 130.94L121.675 128.51L117.013 126.26V124.892L123.727 128.042V128.78L117.013 132.488V130.94ZM71.738 176.78V176.042L78.452 172.892V174.26L73.79 176.51L78.452 178.94V180.488L71.738 176.78ZM86.956 166.7L88.306 167.204L81.556 185.762L80.206 185.258L86.956 166.7ZM94.4361 174.422C93.9321 174.266 93.4821 174.164 93.0861 174.116C92.7021 174.056 92.3481 174.026 92.0241 174.026C91.6041 174.026 91.2501 174.128 90.9621 174.332C90.6861 174.536 90.5481 174.8 90.5481 175.124C90.5601 175.412 90.6861 175.658 90.9261 175.862C91.1661 176.066 91.4421 176.252 91.7541 176.42C92.0781 176.576 92.4321 176.75 92.8161 176.942C93.2121 177.134 93.5781 177.35 93.9141 177.59C94.2621 177.83 94.5441 178.118 94.7601 178.454C94.9761 178.79 95.0901 179.192 95.1021 179.66C95.0901 180.164 94.9761 180.584 94.7601 180.92C94.5561 181.244 94.2861 181.508 93.9501 181.712C93.6261 181.904 93.2721 182.036 92.8881 182.108C92.5041 182.192 92.1441 182.234 91.8081 182.234C91.3761 182.234 90.9261 182.21 90.4581 182.162C90.0021 182.114 89.5101 182.012 88.9821 181.856L89.2521 180.56C89.7921 180.704 90.2841 180.812 90.7281 180.884C91.1721 180.944 91.5381 180.974 91.8261 180.974C92.0421 180.974 92.2521 180.95 92.4561 180.902C92.6721 180.854 92.8641 180.788 93.0321 180.704C93.2001 180.608 93.3321 180.488 93.4281 180.344C93.5361 180.2 93.5901 180.038 93.5901 179.858C93.5781 179.522 93.4641 179.24 93.2481 179.012C93.0321 178.772 92.7501 178.562 92.4021 178.382C92.0661 178.19 91.7001 178.004 91.3041 177.824C90.9201 177.632 90.5541 177.416 90.2061 177.176C89.8701 176.924 89.5881 176.63 89.3601 176.294C89.1321 175.946 89.0181 175.52 89.0181 175.016C89.0181 174.656 89.1081 174.338 89.2881 174.062C89.4801 173.774 89.7201 173.54 90.0081 173.36C90.3081 173.168 90.6321 173.024 90.9801 172.928C91.3401 172.82 91.6881 172.766 92.0241 172.766C92.3721 172.766 92.7621 172.796 93.1941 172.856C93.6261 172.904 94.1241 173 94.6881 173.144L94.4361 174.422ZM99.152 170.246V172.946H101.762V174.116H99.152V178.922C99.152 179.318 99.158 179.648 99.17 179.912C99.194 180.176 99.236 180.386 99.296 180.542C99.356 180.698 99.44 180.812 99.548 180.884C99.656 180.944 99.794 180.974 99.962 180.974C100.418 180.962 100.946 180.794 101.546 180.47L101.978 181.568C101.582 181.832 101.21 182.006 100.862 182.09C100.526 182.186 100.19 182.234 99.854 182.234C99.062 182.234 98.504 182.012 98.18 181.568C97.868 181.112 97.712 180.362 97.712 179.318V174.116H96.056V172.946H97.712V170.426L99.152 170.246ZM102.433 172.946H103.963L105.655 177.032C105.823 177.428 105.973 177.824 106.105 178.22C106.249 178.616 106.375 178.97 106.483 179.282C106.615 179.654 106.729 180.014 106.825 180.362H106.843C106.951 180.014 107.071 179.654 107.203 179.282C107.311 178.97 107.437 178.616 107.581 178.22C107.725 177.824 107.875 177.428 108.031 177.032L109.597 172.946H111.109L106.825 183.746C106.657 184.19 106.435 184.574 106.159 184.898C105.895 185.222 105.637 185.492 105.385 185.708C105.085 185.96 104.773 186.176 104.449 186.356L103.747 185.114C103.999 184.994 104.233 184.844 104.449 184.664C104.641 184.508 104.833 184.31 105.025 184.07C105.217 183.842 105.373 183.566 105.493 183.242L106.051 181.766L102.433 172.946ZM112.55 168.518L113.99 168.356V182H112.55V168.518ZM123.271 181.784C122.995 181.868 122.707 181.94 122.407 182C122.119 182.06 121.795 182.114 121.435 182.162C121.087 182.21 120.721 182.234 120.337 182.234C119.737 182.234 119.179 182.15 118.663 181.982C118.147 181.814 117.697 181.544 117.313 181.172C116.929 180.8 116.623 180.32 116.395 179.732C116.179 179.132 116.071 178.4 116.071 177.536C116.071 176.756 116.179 176.072 116.395 175.484C116.611 174.884 116.905 174.386 117.277 173.99C117.661 173.582 118.105 173.276 118.609 173.072C119.125 172.868 119.683 172.766 120.283 172.766C120.871 172.766 121.381 172.88 121.813 173.108C122.245 173.336 122.599 173.648 122.875 174.044C123.163 174.428 123.373 174.884 123.505 175.412C123.649 175.928 123.721 176.474 123.721 177.05L123.451 177.842H117.637C117.637 178.214 117.685 178.586 117.781 178.958C117.877 179.33 118.039 179.666 118.267 179.966C118.507 180.266 118.813 180.512 119.185 180.704C119.569 180.884 120.043 180.974 120.607 180.974C120.967 180.974 121.297 180.956 121.597 180.92C121.897 180.872 122.155 180.824 122.371 180.776C122.599 180.716 122.809 180.65 123.001 180.578L123.271 181.784ZM122.227 176.69C122.227 176.606 122.209 176.42 122.173 176.132C122.137 175.844 122.053 175.544 121.921 175.232C121.789 174.92 121.585 174.644 121.309 174.404C121.033 174.152 120.667 174.026 120.211 174.026C119.707 174.026 119.293 174.134 118.969 174.35C118.645 174.554 118.387 174.8 118.195 175.088C118.003 175.376 117.871 175.67 117.799 175.97C117.727 176.27 117.691 176.51 117.691 176.69H122.227ZM125.591 178.94L130.253 176.51L125.591 174.26V172.892L132.305 176.042V176.78L125.591 180.488V178.94ZM71.738 224.78V224.042L78.452 220.892V222.26L73.79 224.51L78.452 226.94V228.488L71.738 224.78ZM80.962 216.518L82.402 216.356V222.08C82.762 221.84 83.116 221.63 83.464 221.45C83.824 221.27 84.19 221.114 84.562 220.982C84.934 220.838 85.294 220.766 85.642 220.766C86.134 220.766 86.542 220.826 86.866 220.946C87.202 221.054 87.472 221.24 87.676 221.504C87.88 221.768 88.024 222.116 88.108 222.548C88.204 222.98 88.252 223.52 88.252 224.168V230H86.812V224.33C86.812 223.97 86.806 223.652 86.794 223.376C86.782 223.088 86.728 222.848 86.632 222.656C86.548 222.452 86.41 222.296 86.218 222.188C86.038 222.08 85.78 222.026 85.444 222.026C85.132 222.026 84.796 222.098 84.436 222.242C84.076 222.374 83.734 222.53 83.41 222.71C83.086 222.89 82.75 223.1 82.402 223.34V230H80.962V216.518ZM92.8942 218.246V220.946H95.5042V222.116H92.8942V226.922C92.8942 227.318 92.9002 227.648 92.9122 227.912C92.9362 228.176 92.9782 228.386 93.0382 228.542C93.0982 228.698 93.1822 228.812 93.2902 228.884C93.3982 228.944 93.5362 228.974 93.7042 228.974C94.1602 228.962 94.6882 228.794 95.2882 228.47L95.7202 229.568C95.3242 229.832 94.9522 230.006 94.6042 230.09C94.2682 230.186 93.9322 230.234 93.5962 230.234C92.8042 230.234 92.2462 230.012 91.9222 229.568C91.6102 229.112 91.4542 228.362 91.4542 227.318V222.116H89.7982V220.946H91.4542V218.426L92.8942 218.246ZM97.3628 222.584C97.3628 222.176 97.3268 221.684 97.2548 221.108L98.6048 220.928L98.8028 222.062C99.1268 221.822 99.4448 221.612 99.7568 221.432C100.069 221.252 100.405 221.096 100.765 220.964C101.125 220.832 101.491 220.766 101.863 220.766C102.463 220.766 102.937 220.874 103.285 221.09C103.633 221.294 103.891 221.648 104.059 222.152C104.551 221.804 105.061 221.486 105.589 221.198C106.129 220.91 106.687 220.766 107.263 220.766C107.707 220.766 108.085 220.826 108.397 220.946C108.709 221.054 108.961 221.24 109.153 221.504C109.345 221.768 109.483 222.116 109.567 222.548C109.651 222.98 109.693 223.52 109.693 224.168V230H108.253V224.33C108.253 223.97 108.247 223.652 108.235 223.376C108.223 223.088 108.181 222.848 108.109 222.656C108.037 222.452 107.917 222.296 107.749 222.188C107.593 222.08 107.365 222.026 107.065 222.026C106.789 222.026 106.525 222.068 106.273 222.152C106.033 222.224 105.781 222.332 105.517 222.476C105.253 222.62 104.845 222.914 104.293 223.358V230H102.853V224.33C102.853 223.97 102.847 223.652 102.835 223.376C102.823 223.088 102.781 222.848 102.709 222.656C102.637 222.452 102.517 222.296 102.349 222.188C102.193 222.08 101.965 222.026 101.665 222.026C101.353 222.026 101.029 222.092 100.693 222.224C100.357 222.356 100.039 222.512 99.7388 222.692C99.4388 222.872 99.1268 223.082 98.8028 223.322V230H97.3628V222.584ZM112.234 216.518L113.674 216.356V230H112.234V216.518ZM116.169 226.94L120.831 224.51L116.169 222.26V220.892L122.883 224.042V224.78L116.169 228.488V226.94ZM71.738 272.78V272.042L78.452 268.892V270.26L73.79 272.51L78.452 274.94V276.488L71.738 272.78ZM86.956 262.7L88.306 263.204L81.556 281.762L80.206 281.258L86.956 262.7ZM90.1378 264.518L91.5778 264.356V270.08C91.9378 269.84 92.2918 269.63 92.6398 269.45C92.9998 269.27 93.3658 269.114 93.7378 268.982C94.1098 268.838 94.4698 268.766 94.8178 268.766C95.3098 268.766 95.7178 268.826 96.0418 268.946C96.3778 269.054 96.6478 269.24 96.8518 269.504C97.0558 269.768 97.1998 270.116 97.2838 270.548C97.3798 270.98 97.4278 271.52 97.4278 272.168V278H95.9878V272.33C95.9878 271.97 95.9818 271.652 95.9698 271.376C95.9578 271.088 95.9038 270.848 95.8078 270.656C95.7238 270.452 95.5858 270.296 95.3938 270.188C95.2138 270.08 94.9558 270.026 94.6198 270.026C94.3078 270.026 93.9718 270.098 93.6118 270.242C93.2518 270.374 92.9098 270.53 92.5858 270.71C92.2618 270.89 91.9258 271.1 91.5778 271.34V278H90.1378V264.518ZM102.07 266.246V268.946H104.68V270.116H102.07V274.922C102.07 275.318 102.076 275.648 102.088 275.912C102.112 276.176 102.154 276.386 102.214 276.542C102.274 276.698 102.358 276.812 102.466 276.884C102.574 276.944 102.712 276.974 102.88 276.974C103.336 276.962 103.864 276.794 104.464 276.47L104.896 277.568C104.5 277.832 104.128 278.006 103.78 278.09C103.444 278.186 103.108 278.234 102.772 278.234C101.98 278.234 101.422 278.012 101.098 277.568C100.786 277.112 100.63 276.362 100.63 275.318V270.116H98.974V268.946H100.63V266.426L102.07 266.246ZM106.539 270.584C106.539 270.176 106.503 269.684 106.431 269.108L107.781 268.928L107.979 270.062C108.303 269.822 108.621 269.612 108.933 269.432C109.245 269.252 109.581 269.096 109.941 268.964C110.301 268.832 110.667 268.766 111.039 268.766C111.639 268.766 112.113 268.874 112.461 269.09C112.809 269.294 113.067 269.648 113.235 270.152C113.727 269.804 114.237 269.486 114.765 269.198C115.305 268.91 115.863 268.766 116.439 268.766C116.883 268.766 117.261 268.826 117.573 268.946C117.885 269.054 118.137 269.24 118.329 269.504C118.521 269.768 118.659 270.116 118.743 270.548C118.827 270.98 118.869 271.52 118.869 272.168V278H117.429V272.33C117.429 271.97 117.423 271.652 117.411 271.376C117.399 271.088 117.357 270.848 117.285 270.656C117.213 270.452 117.093 270.296 116.925 270.188C116.769 270.08 116.541 270.026 116.241 270.026C115.965 270.026 115.701 270.068 115.449 270.152C115.209 270.224 114.957 270.332 114.693 270.476C114.429 270.62 114.021 270.914 113.469 271.358V278H112.029V272.33C112.029 271.97 112.023 271.652 112.011 271.376C111.999 271.088 111.957 270.848 111.885 270.656C111.813 270.452 111.693 270.296 111.525 270.188C111.369 270.08 111.141 270.026 110.841 270.026C110.529 270.026 110.205 270.092 109.869 270.224C109.533 270.356 109.215 270.512 108.915 270.692C108.615 270.872 108.303 271.082 107.979 271.322V278H106.539V270.584ZM121.409 264.518L122.849 264.356V278H121.409V264.518ZM125.345 274.94L130.007 272.51L125.345 270.26V268.892L132.059 272.042V272.78L125.345 276.488V274.94Z" fill="#B82B22"/>
<path d="M79.9646 56.78V56.042L86.6786 52.892V54.26L82.0166 56.51L86.6786 58.94V60.488L79.9646 56.78ZM91.2946 50.246V52.946H93.9046V54.116H91.2946V58.922C91.2946 59.318 91.3006 59.648 91.3126 59.912C91.3366 60.176 91.3786 60.386 91.4386 60.542C91.4986 60.698 91.5826 60.812 91.6906 60.884C91.7986 60.944 91.9366 60.974 92.1046 60.974C92.5606 60.962 93.0886 60.794 93.6886 60.47L94.1206 61.568C93.7246 61.832 93.3526 62.006 93.0046 62.09C92.6686 62.186 92.3326 62.234 91.9966 62.234C91.2046 62.234 90.6466 62.012 90.3226 61.568C90.0106 61.112 89.8546 60.362 89.8546 59.318V54.116H88.1986V52.946H89.8546V50.426L91.2946 50.246ZM95.7452 52.928L97.1852 52.766V62H95.7452V52.928ZM95.5112 50.354C95.5112 50.078 95.6012 49.85 95.7812 49.67C95.9732 49.478 96.2072 49.382 96.4832 49.382C96.7712 49.382 97.0112 49.478 97.2032 49.67C97.4072 49.85 97.5092 50.078 97.5092 50.354C97.5092 50.63 97.4072 50.864 97.2032 51.056C97.0112 51.236 96.7712 51.326 96.4832 51.326C96.2072 51.326 95.9732 51.236 95.7812 51.056C95.6012 50.864 95.5112 50.63 95.5112 50.354ZM101.877 50.246V52.946H104.487V54.116H101.877V58.922C101.877 59.318 101.883 59.648 101.895 59.912C101.919 60.176 101.961 60.386 102.021 60.542C102.081 60.698 102.165 60.812 102.273 60.884C102.381 60.944 102.519 60.974 102.687 60.974C103.143 60.962 103.671 60.794 104.271 60.47L104.703 61.568C104.307 61.832 103.935 62.006 103.587 62.09C103.251 62.186 102.915 62.234 102.579 62.234C101.787 62.234 101.229 62.012 100.905 61.568C100.593 61.112 100.437 60.362 100.437 59.318V54.116H98.7806V52.946H100.437V50.426L101.877 50.246ZM106.327 48.518L107.767 48.356V62H106.327V48.518ZM117.049 61.784C116.773 61.868 116.485 61.94 116.185 62C115.897 62.06 115.573 62.114 115.213 62.162C114.865 62.21 114.499 62.234 114.115 62.234C113.515 62.234 112.957 62.15 112.441 61.982C111.925 61.814 111.475 61.544 111.091 61.172C110.707 60.8 110.401 60.32 110.173 59.732C109.957 59.132 109.849 58.4 109.849 57.536C109.849 56.756 109.957 56.072 110.173 55.484C110.389 54.884 110.683 54.386 111.055 53.99C111.439 53.582 111.883 53.276 112.387 53.072C112.903 52.868 113.461 52.766 114.061 52.766C114.649 52.766 115.159 52.88 115.591 53.108C116.023 53.336 116.377 53.648 116.653 54.044C116.941 54.428 117.151 54.884 117.283 55.412C117.427 55.928 117.499 56.474 117.499 57.05L117.229 57.842H111.415C111.415 58.214 111.463 58.586 111.559 58.958C111.655 59.33 111.817 59.666 112.045 59.966C112.285 60.266 112.591 60.512 112.963 60.704C113.347 60.884 113.821 60.974 114.385 60.974C114.745 60.974 115.075 60.956 115.375 60.92C115.675 60.872 115.933 60.824 116.149 60.776C116.377 60.716 116.587 60.65 116.779 60.578L117.049 61.784ZM116.005 56.69C116.005 56.606 115.987 56.42 115.951 56.132C115.915 55.844 115.831 55.544 115.699 55.232C115.567 54.92 115.363 54.644 115.087 54.404C114.811 54.152 114.445 54.026 113.989 54.026C113.485 54.026 113.071 54.134 112.747 54.35C112.423 54.554 112.165 54.8 111.973 55.088C111.781 55.376 111.649 55.67 111.577 55.97C111.505 56.27 111.469 56.51 111.469 56.69H116.005ZM119.368 58.94L124.03 56.51L119.368 54.26V52.892L126.082 56.042V56.78L119.368 60.488V58.94ZM131.382 49.724H133.254L137.466 62H135.9L134.82 58.724H129.834L128.736 62H127.17L131.382 49.724ZM134.334 57.284L132.354 51.164H132.3L130.302 57.284H134.334ZM144.621 54.26C144.417 54.212 144.135 54.164 143.775 54.116C143.415 54.056 143.049 54.026 142.677 54.026C142.137 54.026 141.693 54.134 141.345 54.35C141.009 54.566 140.745 54.848 140.553 55.196C140.361 55.532 140.229 55.91 140.157 56.33C140.085 56.738 140.049 57.14 140.049 57.536C140.049 58.148 140.127 58.676 140.283 59.12C140.439 59.552 140.643 59.906 140.895 60.182C141.159 60.458 141.459 60.662 141.795 60.794C142.131 60.914 142.485 60.974 142.857 60.974C143.109 60.974 143.349 60.962 143.577 60.938C143.817 60.902 144.033 60.866 144.225 60.83C144.429 60.782 144.621 60.728 144.801 60.668L145.089 61.874C144.837 61.946 144.603 62.006 144.387 62.054C144.171 62.102 143.913 62.144 143.613 62.18C143.325 62.216 143.013 62.234 142.677 62.234C142.017 62.234 141.429 62.15 140.913 61.982C140.397 61.814 139.959 61.544 139.599 61.172C139.251 60.8 138.981 60.314 138.789 59.714C138.609 59.114 138.519 58.382 138.519 57.518C138.519 56.678 138.633 55.958 138.861 55.358C139.101 54.746 139.413 54.254 139.797 53.882C140.181 53.498 140.619 53.216 141.111 53.036C141.615 52.856 142.137 52.766 142.677 52.766C142.965 52.766 143.241 52.784 143.505 52.82C143.781 52.844 144.021 52.874 144.225 52.91C144.465 52.958 144.693 53.006 144.909 53.054L144.621 54.26ZM152.267 54.26C152.063 54.212 151.781 54.164 151.421 54.116C151.061 54.056 150.695 54.026 150.323 54.026C149.783 54.026 149.339 54.134 148.991 54.35C148.655 54.566 148.391 54.848 148.199 55.196C148.007 55.532 147.875 55.91 147.803 56.33C147.731 56.738 147.695 57.14 147.695 57.536C147.695 58.148 147.773 58.676 147.929 59.12C148.085 59.552 148.289 59.906 148.541 60.182C148.805 60.458 149.105 60.662 149.441 60.794C149.777 60.914 150.131 60.974 150.503 60.974C150.755 60.974 150.995 60.962 151.223 60.938C151.463 60.902 151.679 60.866 151.871 60.83C152.075 60.782 152.267 60.728 152.447 60.668L152.735 61.874C152.483 61.946 152.249 62.006 152.033 62.054C151.817 62.102 151.559 62.144 151.259 62.18C150.971 62.216 150.659 62.234 150.323 62.234C149.663 62.234 149.075 62.15 148.559 61.982C148.043 61.814 147.605 61.544 147.245 61.172C146.897 60.8 146.627 60.314 146.435 59.714C146.255 59.114 146.165 58.382 146.165 57.518C146.165 56.678 146.279 55.958 146.507 55.358C146.747 54.746 147.059 54.254 147.443 53.882C147.827 53.498 148.265 53.216 148.757 53.036C149.261 52.856 149.783 52.766 150.323 52.766C150.611 52.766 150.887 52.784 151.151 52.82C151.427 52.844 151.667 52.874 151.871 52.91C152.111 52.958 152.339 53.006 152.555 53.054L152.267 54.26ZM160.994 61.784C160.718 61.868 160.43 61.94 160.13 62C159.842 62.06 159.518 62.114 159.158 62.162C158.81 62.21 158.444 62.234 158.06 62.234C157.46 62.234 156.902 62.15 156.386 61.982C155.87 61.814 155.42 61.544 155.036 61.172C154.652 60.8 154.346 60.32 154.118 59.732C153.902 59.132 153.794 58.4 153.794 57.536C153.794 56.756 153.902 56.072 154.118 55.484C154.334 54.884 154.628 54.386 155 53.99C155.384 53.582 155.828 53.276 156.332 53.072C156.848 52.868 157.406 52.766 158.006 52.766C158.594 52.766 159.104 52.88 159.536 53.108C159.968 53.336 160.322 53.648 160.598 54.044C160.886 54.428 161.096 54.884 161.228 55.412C161.372 55.928 161.444 56.474 161.444 57.05L161.174 57.842H155.36C155.36 58.214 155.408 58.586 155.504 58.958C155.6 59.33 155.762 59.666 155.99 59.966C156.23 60.266 156.536 60.512 156.908 60.704C157.292 60.884 157.766 60.974 158.33 60.974C158.69 60.974 159.02 60.956 159.32 60.92C159.62 60.872 159.878 60.824 160.094 60.776C160.322 60.716 160.532 60.65 160.724 60.578L160.994 61.784ZM159.95 56.69C159.95 56.606 159.932 56.42 159.896 56.132C159.86 55.844 159.776 55.544 159.644 55.232C159.512 54.92 159.308 54.644 159.032 54.404C158.756 54.152 158.39 54.026 157.934 54.026C157.43 54.026 157.016 54.134 156.692 54.35C156.368 54.554 156.11 54.8 155.918 55.088C155.726 55.376 155.594 55.67 155.522 55.97C155.45 56.27 155.414 56.51 155.414 56.69H159.95ZM163.403 48.518L164.843 48.356V62H163.403V48.518ZM172.469 57.842C172.229 57.854 172.001 57.866 171.785 57.878C171.569 57.89 171.353 57.908 171.137 57.932C170.933 57.944 170.747 57.962 170.579 57.986C169.715 58.094 169.103 58.286 168.743 58.562C168.383 58.826 168.203 59.21 168.203 59.714C168.203 60.134 168.329 60.452 168.581 60.668C168.845 60.872 169.187 60.974 169.607 60.974C170.183 60.974 170.693 60.878 171.137 60.686C171.593 60.482 172.037 60.218 172.469 59.894V57.842ZM172.451 61.154C171.887 61.478 171.359 61.742 170.867 61.946C170.387 62.138 169.865 62.234 169.301 62.234C168.497 62.234 167.855 62.042 167.375 61.658C166.907 61.262 166.673 60.614 166.673 59.714C166.673 59.246 166.793 58.838 167.033 58.49C167.273 58.142 167.585 57.854 167.969 57.626C168.365 57.386 168.809 57.2 169.301 57.068C169.793 56.936 170.297 56.852 170.813 56.816C171.029 56.792 171.311 56.774 171.659 56.762C172.007 56.738 172.277 56.72 172.469 56.708C172.469 56.288 172.457 55.916 172.433 55.592C172.409 55.256 172.337 54.974 172.217 54.746C172.097 54.506 171.917 54.326 171.677 54.206C171.449 54.086 171.119 54.026 170.687 54.026C170.339 54.026 170.003 54.05 169.679 54.098C169.355 54.134 169.067 54.176 168.815 54.224C168.515 54.284 168.239 54.35 167.987 54.422L167.699 53.18C167.999 53.108 168.323 53.042 168.671 52.982C168.971 52.922 169.319 52.874 169.715 52.838C170.111 52.79 170.537 52.766 170.993 52.766C171.605 52.766 172.097 52.856 172.469 53.036C172.853 53.216 173.147 53.462 173.351 53.774C173.567 54.074 173.711 54.422 173.783 54.818C173.867 55.202 173.909 55.61 173.909 56.042V60.362C173.909 60.53 173.909 60.71 173.909 60.902C173.921 61.082 173.933 61.262 173.945 61.442C173.969 61.622 173.993 61.808 174.017 62L172.631 62.144L172.451 61.154ZM175.888 56.78V56.042L182.602 52.892V54.26L177.94 56.51L182.602 58.94V60.488L175.888 56.78ZM191.106 46.7L192.456 47.204L185.706 65.762L184.356 65.258L191.106 46.7ZM196.131 50.246V52.946H198.741V54.116H196.131V58.922C196.131 59.318 196.137 59.648 196.149 59.912C196.173 60.176 196.215 60.386 196.275 60.542C196.335 60.698 196.419 60.812 196.527 60.884C196.635 60.944 196.773 60.974 196.941 60.974C197.397 60.962 197.925 60.794 198.525 60.47L198.957 61.568C198.561 61.832 198.189 62.006 197.841 62.09C197.505 62.186 197.169 62.234 196.833 62.234C196.041 62.234 195.483 62.012 195.159 61.568C194.847 61.112 194.691 60.362 194.691 59.318V54.116H193.035V52.946H194.691V50.426L196.131 50.246ZM200.581 52.928L202.021 52.766V62H200.581V52.928ZM200.347 50.354C200.347 50.078 200.437 49.85 200.617 49.67C200.809 49.478 201.043 49.382 201.319 49.382C201.607 49.382 201.847 49.478 202.039 49.67C202.243 49.85 202.345 50.078 202.345 50.354C202.345 50.63 202.243 50.864 202.039 51.056C201.847 51.236 201.607 51.326 201.319 51.326C201.043 51.326 200.809 51.236 200.617 51.056C200.437 50.864 200.347 50.63 200.347 50.354ZM206.713 50.246V52.946H209.323V54.116H206.713V58.922C206.713 59.318 206.719 59.648 206.731 59.912C206.755 60.176 206.797 60.386 206.857 60.542C206.917 60.698 207.001 60.812 207.109 60.884C207.217 60.944 207.355 60.974 207.523 60.974C207.979 60.962 208.507 60.794 209.107 60.47L209.539 61.568C209.143 61.832 208.771 62.006 208.423 62.09C208.087 62.186 207.751 62.234 207.415 62.234C206.623 62.234 206.065 62.012 205.741 61.568C205.429 61.112 205.273 60.362 205.273 59.318V54.116H203.617V52.946H205.273V50.426L206.713 50.246ZM211.163 48.518L212.603 48.356V62H211.163V48.518ZM221.885 61.784C221.609 61.868 221.321 61.94 221.021 62C220.733 62.06 220.409 62.114 220.049 62.162C219.701 62.21 219.335 62.234 218.951 62.234C218.351 62.234 217.793 62.15 217.277 61.982C216.761 61.814 216.311 61.544 215.927 61.172C215.543 60.8 215.237 60.32 215.009 59.732C214.793 59.132 214.685 58.4 214.685 57.536C214.685 56.756 214.793 56.072 215.009 55.484C215.225 54.884 215.519 54.386 215.891 53.99C216.275 53.582 216.719 53.276 217.223 53.072C217.739 52.868 218.297 52.766 218.897 52.766C219.485 52.766 219.995 52.88 220.427 53.108C220.859 53.336 221.213 53.648 221.489 54.044C221.777 54.428 221.987 54.884 222.119 55.412C222.263 55.928 222.335 56.474 222.335 57.05L222.065 57.842H216.251C216.251 58.214 216.299 58.586 216.395 58.958C216.491 59.33 216.653 59.666 216.881 59.966C217.121 60.266 217.427 60.512 217.799 60.704C218.183 60.884 218.657 60.974 219.221 60.974C219.581 60.974 219.911 60.956 220.211 60.92C220.511 60.872 220.769 60.824 220.985 60.776C221.213 60.716 221.423 60.65 221.615 60.578L221.885 61.784ZM220.841 56.69C220.841 56.606 220.823 56.42 220.787 56.132C220.751 55.844 220.667 55.544 220.535 55.232C220.403 54.92 220.199 54.644 219.923 54.404C219.647 54.152 219.281 54.026 218.825 54.026C218.321 54.026 217.907 54.134 217.583 54.35C217.259 54.554 217.001 54.8 216.809 55.088C216.617 55.376 216.485 55.67 216.413 55.97C216.341 56.27 216.305 56.51 216.305 56.69H220.841ZM224.204 58.94L228.866 56.51L224.204 54.26V52.892L230.918 56.042V56.78L224.204 60.488V58.94ZM80.5226 144.518L81.9626 144.356V150.08C82.3226 149.84 82.6766 149.63 83.0246 149.45C83.3846 149.27 83.7506 149.114 84.1226 148.982C84.4946 148.838 84.8546 148.766 85.2026 148.766C85.6946 148.766 86.1026 148.826 86.4266 148.946C86.7626 149.054 87.0326 149.24 87.2366 149.504C87.4406 149.768 87.5846 150.116 87.6686 150.548C87.7646 150.98 87.8126 151.52 87.8126 152.168V158H86.3726V152.33C86.3726 151.97 86.3666 151.652 86.3546 151.376C86.3426 151.088 86.2886 150.848 86.1926 150.656C86.1086 150.452 85.9706 150.296 85.7786 150.188C85.5986 150.08 85.3406 150.026 85.0046 150.026C84.6926 150.026 84.3566 150.098 83.9966 150.242C83.6366 150.374 83.2946 150.53 82.9706 150.71C82.6466 150.89 82.3106 151.1 81.9626 151.34V158H80.5226V144.518ZM92.0767 150.602L89.7187 151.052L89.4307 149.828L92.6347 148.946H93.5167V158H92.0767V150.602ZM101.249 155.66C101.249 155.288 101.195 154.982 101.087 154.742C100.979 154.49 100.841 154.286 100.673 154.13C100.517 153.974 100.337 153.848 100.133 153.752C99.9414 153.656 99.7554 153.572 99.5754 153.5V152.15C99.8034 152.066 100.019 151.976 100.223 151.88C100.427 151.772 100.607 151.64 100.763 151.484C100.919 151.316 101.039 151.106 101.123 150.854C101.207 150.59 101.249 150.242 101.249 149.81C101.249 149.474 101.243 149.174 101.231 148.91C101.219 148.634 101.201 148.364 101.177 148.1C101.165 147.824 101.153 147.536 101.141 147.236C101.129 146.924 101.123 146.57 101.123 146.174C101.123 145.766 101.231 145.412 101.447 145.112C101.663 144.812 101.927 144.56 102.239 144.356C102.563 144.152 102.905 143.99 103.265 143.87C103.637 143.738 103.973 143.636 104.273 143.564L104.525 144.824C104.153 144.908 103.829 145.022 103.553 145.166C103.289 145.298 103.055 145.472 102.851 145.688C102.647 145.904 102.545 146.168 102.545 146.48C102.545 146.972 102.563 147.482 102.599 148.01C102.647 148.526 102.671 149.162 102.671 149.918C102.683 150.638 102.581 151.262 102.365 151.79C102.149 152.306 101.753 152.654 101.177 152.834C101.753 153.002 102.143 153.32 102.347 153.788C102.563 154.244 102.671 154.832 102.671 155.552C102.671 156.308 102.647 156.95 102.599 157.478C102.563 157.994 102.545 158.498 102.545 158.99C102.557 159.314 102.659 159.578 102.851 159.782C103.055 159.998 103.283 160.172 103.535 160.304C103.823 160.448 104.153 160.562 104.525 160.646L104.273 161.906C103.973 161.834 103.637 161.732 103.265 161.6C102.905 161.48 102.563 161.312 102.239 161.096C101.915 160.892 101.645 160.64 101.429 160.34C101.225 160.052 101.123 159.704 101.123 159.296C101.123 158.9 101.129 158.546 101.141 158.234C101.153 157.934 101.165 157.652 101.177 157.388C101.201 157.112 101.219 156.842 101.231 156.578C101.243 156.302 101.249 155.996 101.249 155.66ZM108.029 146.246V148.946H110.639V150.116H108.029V154.922C108.029 155.318 108.035 155.648 108.047 155.912C108.071 156.176 108.113 156.386 108.173 156.542C108.233 156.698 108.317 156.812 108.425 156.884C108.533 156.944 108.671 156.974 108.839 156.974C109.295 156.962 109.823 156.794 110.423 156.47L110.855 157.568C110.459 157.832 110.087 158.006 109.739 158.09C109.403 158.186 109.067 158.234 108.731 158.234C107.939 158.234 107.381 158.012 107.057 157.568C106.745 157.112 106.589 156.362 106.589 155.318V150.116H104.933V148.946H106.589V146.426L108.029 146.246ZM119.105 157.784C118.829 157.868 118.541 157.94 118.241 158C117.953 158.06 117.629 158.114 117.269 158.162C116.921 158.21 116.555 158.234 116.171 158.234C115.571 158.234 115.013 158.15 114.497 157.982C113.981 157.814 113.531 157.544 113.147 157.172C112.763 156.8 112.457 156.32 112.229 155.732C112.013 155.132 111.905 154.4 111.905 153.536C111.905 152.756 112.013 152.072 112.229 151.484C112.445 150.884 112.739 150.386 113.111 149.99C113.495 149.582 113.939 149.276 114.443 149.072C114.959 148.868 115.517 148.766 116.117 148.766C116.705 148.766 117.215 148.88 117.647 149.108C118.079 149.336 118.433 149.648 118.709 150.044C118.997 150.428 119.207 150.884 119.339 151.412C119.483 151.928 119.555 152.474 119.555 153.05L119.285 153.842H113.471C113.471 154.214 113.519 154.586 113.615 154.958C113.711 155.33 113.873 155.666 114.101 155.966C114.341 156.266 114.647 156.512 115.019 156.704C115.403 156.884 115.877 156.974 116.441 156.974C116.801 156.974 117.131 156.956 117.431 156.92C117.731 156.872 117.989 156.824 118.205 156.776C118.433 156.716 118.643 156.65 118.835 156.578L119.105 157.784ZM118.061 152.69C118.061 152.606 118.043 152.42 118.007 152.132C117.971 151.844 117.887 151.544 117.755 151.232C117.623 150.92 117.419 150.644 117.143 150.404C116.867 150.152 116.501 150.026 116.045 150.026C115.541 150.026 115.127 150.134 114.803 150.35C114.479 150.554 114.221 150.8 114.029 151.088C113.837 151.376 113.705 151.67 113.633 151.97C113.561 152.27 113.525 152.51 113.525 152.69H118.061ZM123.785 153.248L120.437 148.946H122.129L124.775 152.294L127.277 148.946H128.897L125.747 153.194L129.203 158H127.511L124.757 154.166L121.967 158H120.347L123.785 153.248ZM132.761 146.246V148.946H135.371V150.116H132.761V154.922C132.761 155.318 132.767 155.648 132.779 155.912C132.803 156.176 132.845 156.386 132.905 156.542C132.965 156.698 133.049 156.812 133.157 156.884C133.265 156.944 133.403 156.974 133.571 156.974C134.027 156.962 134.555 156.794 135.155 156.47L135.587 157.568C135.191 157.832 134.819 158.006 134.471 158.09C134.135 158.186 133.799 158.234 133.463 158.234C132.671 158.234 132.113 158.012 131.789 157.568C131.477 157.112 131.321 156.362 131.321 155.318V150.116H129.665V148.946H131.321V146.426L132.761 146.246ZM136.452 152.708H141.258V154.04H136.452V152.708ZM148.703 153.842C148.463 153.854 148.235 153.866 148.019 153.878C147.803 153.89 147.587 153.908 147.371 153.932C147.167 153.944 146.981 153.962 146.813 153.986C145.949 154.094 145.337 154.286 144.977 154.562C144.617 154.826 144.437 155.21 144.437 155.714C144.437 156.134 144.563 156.452 144.815 156.668C145.079 156.872 145.421 156.974 145.841 156.974C146.417 156.974 146.927 156.878 147.371 156.686C147.827 156.482 148.271 156.218 148.703 155.894V153.842ZM148.685 157.154C148.121 157.478 147.593 157.742 147.101 157.946C146.621 158.138 146.099 158.234 145.535 158.234C144.731 158.234 144.089 158.042 143.609 157.658C143.141 157.262 142.907 156.614 142.907 155.714C142.907 155.246 143.027 154.838 143.267 154.49C143.507 154.142 143.819 153.854 144.203 153.626C144.599 153.386 145.043 153.2 145.535 153.068C146.027 152.936 146.531 152.852 147.047 152.816C147.263 152.792 147.545 152.774 147.893 152.762C148.241 152.738 148.511 152.72 148.703 152.708C148.703 152.288 148.691 151.916 148.667 151.592C148.643 151.256 148.571 150.974 148.451 150.746C148.331 150.506 148.151 150.326 147.911 150.206C147.683 150.086 147.353 150.026 146.921 150.026C146.573 150.026 146.237 150.05 145.913 150.098C145.589 150.134 145.301 150.176 145.049 150.224C144.749 150.284 144.473 150.35 144.221 150.422L143.933 149.18C144.233 149.108 144.557 149.042 144.905 148.982C145.205 148.922 145.553 148.874 145.949 148.838C146.345 148.79 146.771 148.766 147.227 148.766C147.839 148.766 148.331 148.856 148.703 149.036C149.087 149.216 149.381 149.462 149.585 149.774C149.801 150.074 149.945 150.422 150.017 150.818C150.101 151.202 150.143 151.61 150.143 152.042V156.362C150.143 156.53 150.143 156.71 150.143 156.902C150.155 157.082 150.167 157.262 150.179 157.442C150.203 157.622 150.227 157.808 150.251 158L148.865 158.144L148.685 157.154ZM152.681 144.518L154.121 144.356V158H152.681V144.518ZM156.706 148.928L158.146 148.766V158H156.706V148.928ZM156.472 146.354C156.472 146.078 156.562 145.85 156.742 145.67C156.934 145.478 157.168 145.382 157.444 145.382C157.732 145.382 157.972 145.478 158.164 145.67C158.368 145.85 158.47 146.078 158.47 146.354C158.47 146.63 158.368 146.864 158.164 147.056C157.972 147.236 157.732 147.326 157.444 147.326C157.168 147.326 156.934 147.236 156.742 147.056C156.562 146.864 156.472 146.63 156.472 146.354ZM167.824 158.864C167.824 159.308 167.776 159.74 167.68 160.16C167.584 160.58 167.398 160.952 167.122 161.276C166.858 161.612 166.48 161.876 165.988 162.068C165.508 162.272 164.872 162.374 164.08 162.374C163.576 162.362 163.138 162.332 162.766 162.284C162.394 162.236 162.04 162.164 161.704 162.068C161.368 161.984 161.062 161.882 160.786 161.762L161.164 160.502C161.632 160.706 162.106 160.862 162.586 160.97C163.078 161.078 163.516 161.132 163.9 161.132C164.32 161.132 164.686 161.09 164.998 161.006C165.31 160.922 165.568 160.778 165.772 160.574C165.988 160.382 166.144 160.124 166.24 159.8C166.348 159.476 166.402 159.074 166.402 158.594V157.28C166.15 157.448 165.886 157.604 165.61 157.748C165.346 157.88 165.058 157.994 164.746 158.09C164.446 158.186 164.152 158.234 163.864 158.234C162.748 158.234 161.866 157.844 161.218 157.064C160.57 156.272 160.246 155.096 160.246 153.536C160.246 152.636 160.384 151.886 160.66 151.286C160.948 150.674 161.308 150.182 161.74 149.81C162.172 149.438 162.646 149.174 163.162 149.018C163.678 148.85 164.17 148.766 164.638 148.766C165.25 148.766 165.808 148.82 166.312 148.928C166.828 149.024 167.332 149.102 167.824 149.162V158.864ZM164.026 156.974C164.29 156.974 164.56 156.926 164.836 156.83C165.112 156.734 165.376 156.62 165.628 156.488C165.892 156.356 166.15 156.2 166.402 156.02V150.278C166.258 150.242 166.09 150.2 165.898 150.152C165.73 150.128 165.538 150.104 165.322 150.08C165.106 150.044 164.878 150.026 164.638 150.026C164.134 150.026 163.702 150.116 163.342 150.296C162.982 150.476 162.682 150.722 162.442 151.034C162.214 151.346 162.046 151.712 161.938 152.132C161.83 152.552 161.776 152.996 161.776 153.464C161.776 153.884 161.818 154.304 161.902 154.724C161.998 155.144 162.142 155.522 162.334 155.858C162.526 156.194 162.76 156.464 163.036 156.668C163.312 156.872 163.642 156.974 164.026 156.974ZM170.435 150.746C170.447 150.494 170.417 149.948 170.345 149.108L171.677 148.928L171.875 150.08C172.235 149.84 172.589 149.63 172.937 149.45C173.297 149.27 173.663 149.114 174.035 148.982C174.407 148.838 174.767 148.766 175.115 148.766C175.607 148.766 176.015 148.826 176.339 148.946C176.675 149.054 176.945 149.24 177.149 149.504C177.353 149.768 177.497 150.116 177.581 150.548C177.677 150.98 177.725 151.52 177.725 152.168V158H176.285V152.33C176.285 151.97 176.279 151.652 176.267 151.376C176.255 151.088 176.201 150.848 176.105 150.656C176.021 150.452 175.883 150.296 175.691 150.188C175.511 150.08 175.253 150.026 174.917 150.026C174.605 150.026 174.275 150.098 173.927 150.242C173.579 150.374 173.237 150.53 172.901 150.71C172.565 150.89 172.223 151.1 171.875 151.34V158H170.435V150.746ZM180.081 156.938C180.081 156.65 180.183 156.404 180.387 156.2C180.591 155.984 180.843 155.876 181.143 155.876C181.455 155.876 181.719 155.984 181.935 156.2C182.151 156.404 182.259 156.65 182.259 156.938C182.259 157.238 182.151 157.49 181.935 157.694C181.719 157.898 181.455 158 181.143 158C180.843 158 180.591 157.898 180.387 157.694C180.183 157.49 180.081 157.238 180.081 156.938ZM180.081 150.908C180.081 150.62 180.183 150.374 180.387 150.17C180.591 149.954 180.843 149.846 181.143 149.846C181.455 149.846 181.719 149.954 181.935 150.17C182.151 150.374 182.259 150.62 182.259 150.908C182.259 151.208 182.151 151.46 181.935 151.664C181.719 151.868 181.455 151.97 181.143 151.97C180.843 151.97 180.591 151.868 180.387 151.664C180.183 151.46 180.081 151.208 180.081 150.908ZM194.402 150.26C194.198 150.212 193.916 150.164 193.556 150.116C193.196 150.056 192.83 150.026 192.458 150.026C191.918 150.026 191.474 150.134 191.126 150.35C190.79 150.566 190.526 150.848 190.334 151.196C190.142 151.532 190.01 151.91 189.938 152.33C189.866 152.738 189.83 153.14 189.83 153.536C189.83 154.148 189.908 154.676 190.064 155.12C190.22 155.552 190.424 155.906 190.676 156.182C190.94 156.458 191.24 156.662 191.576 156.794C191.912 156.914 192.266 156.974 192.638 156.974C192.89 156.974 193.13 156.962 193.358 156.938C193.598 156.902 193.814 156.866 194.006 156.83C194.21 156.782 194.402 156.728 194.582 156.668L194.87 157.874C194.618 157.946 194.384 158.006 194.168 158.054C193.952 158.102 193.694 158.144 193.394 158.18C193.106 158.216 192.794 158.234 192.458 158.234C191.798 158.234 191.21 158.15 190.694 157.982C190.178 157.814 189.74 157.544 189.38 157.172C189.032 156.8 188.762 156.314 188.57 155.714C188.39 155.114 188.3 154.382 188.3 153.518C188.3 152.678 188.414 151.958 188.642 151.358C188.882 150.746 189.194 150.254 189.578 149.882C189.962 149.498 190.4 149.216 190.892 149.036C191.396 148.856 191.918 148.766 192.458 148.766C192.746 148.766 193.022 148.784 193.286 148.82C193.562 148.844 193.802 148.874 194.006 148.91C194.246 148.958 194.474 149.006 194.69 149.054L194.402 150.26ZM203.129 157.784C202.853 157.868 202.565 157.94 202.265 158C201.977 158.06 201.653 158.114 201.293 158.162C200.945 158.21 200.579 158.234 200.195 158.234C199.595 158.234 199.037 158.15 198.521 157.982C198.005 157.814 197.555 157.544 197.171 157.172C196.787 156.8 196.481 156.32 196.253 155.732C196.037 155.132 195.929 154.4 195.929 153.536C195.929 152.756 196.037 152.072 196.253 151.484C196.469 150.884 196.763 150.386 197.135 149.99C197.519 149.582 197.963 149.276 198.467 149.072C198.983 148.868 199.541 148.766 200.141 148.766C200.729 148.766 201.239 148.88 201.671 149.108C202.103 149.336 202.457 149.648 202.733 150.044C203.021 150.428 203.231 150.884 203.363 151.412C203.507 151.928 203.579 152.474 203.579 153.05L203.309 153.842H197.495C197.495 154.214 197.543 154.586 197.639 154.958C197.735 155.33 197.897 155.666 198.125 155.966C198.365 156.266 198.671 156.512 199.043 156.704C199.427 156.884 199.901 156.974 200.465 156.974C200.825 156.974 201.155 156.956 201.455 156.92C201.755 156.872 202.013 156.824 202.229 156.776C202.457 156.716 202.667 156.65 202.859 156.578L203.129 157.784ZM202.085 152.69C202.085 152.606 202.067 152.42 202.031 152.132C201.995 151.844 201.911 151.544 201.779 151.232C201.647 150.92 201.443 150.644 201.167 150.404C200.891 150.152 200.525 150.026 200.069 150.026C199.565 150.026 199.151 150.134 198.827 150.35C198.503 150.554 198.245 150.8 198.053 151.088C197.861 151.376 197.729 151.67 197.657 151.97C197.585 152.27 197.549 152.51 197.549 152.69H202.085ZM205.556 150.746C205.568 150.494 205.538 149.948 205.466 149.108L206.798 148.928L206.996 150.08C207.356 149.84 207.71 149.63 208.058 149.45C208.418 149.27 208.784 149.114 209.156 148.982C209.528 148.838 209.888 148.766 210.236 148.766C210.728 148.766 211.136 148.826 211.46 148.946C211.796 149.054 212.066 149.24 212.27 149.504C212.474 149.768 212.618 150.116 212.702 150.548C212.798 150.98 212.846 151.52 212.846 152.168V158H211.406V152.33C211.406 151.97 211.4 151.652 211.388 151.376C211.376 151.088 211.322 150.848 211.226 150.656C211.142 150.452 211.004 150.296 210.812 150.188C210.632 150.08 210.374 150.026 210.038 150.026C209.726 150.026 209.396 150.098 209.048 150.242C208.7 150.374 208.358 150.53 208.022 150.71C207.686 150.89 207.344 151.1 206.996 151.34V158H205.556V150.746ZM217.488 146.246V148.946H220.098V150.116H217.488V154.922C217.488 155.318 217.494 155.648 217.506 155.912C217.53 156.176 217.572 156.386 217.632 156.542C217.692 156.698 217.776 156.812 217.884 156.884C217.992 156.944 218.13 156.974 218.298 156.974C218.754 156.962 219.282 156.794 219.882 156.47L220.314 157.568C219.918 157.832 219.546 158.006 219.198 158.09C218.862 158.186 218.526 158.234 218.19 158.234C217.398 158.234 216.84 158.012 216.516 157.568C216.204 157.112 216.048 156.362 216.048 155.318V150.116H214.392V148.946H216.048V146.426L217.488 146.246ZM228.564 157.784C228.288 157.868 228 157.94 227.7 158C227.412 158.06 227.088 158.114 226.728 158.162C226.38 158.21 226.014 158.234 225.63 158.234C225.03 158.234 224.472 158.15 223.956 157.982C223.44 157.814 222.99 157.544 222.606 157.172C222.222 156.8 221.916 156.32 221.688 155.732C221.472 155.132 221.364 154.4 221.364 153.536C221.364 152.756 221.472 152.072 221.688 151.484C221.904 150.884 222.198 150.386 222.57 149.99C222.954 149.582 223.398 149.276 223.902 149.072C224.418 148.868 224.976 148.766 225.576 148.766C226.164 148.766 226.674 148.88 227.106 149.108C227.538 149.336 227.892 149.648 228.168 150.044C228.456 150.428 228.666 150.884 228.798 151.412C228.942 151.928 229.014 152.474 229.014 153.05L228.744 153.842H222.93C222.93 154.214 222.978 154.586 223.074 154.958C223.17 155.33 223.332 155.666 223.56 155.966C223.8 156.266 224.106 156.512 224.478 156.704C224.862 156.884 225.336 156.974 225.9 156.974C226.26 156.974 226.59 156.956 226.89 156.92C227.19 156.872 227.448 156.824 227.664 156.776C227.892 156.716 228.102 156.65 228.294 156.578L228.564 157.784ZM227.52 152.69C227.52 152.606 227.502 152.42 227.466 152.132C227.43 151.844 227.346 151.544 227.214 151.232C227.082 150.92 226.878 150.644 226.602 150.404C226.326 150.152 225.96 150.026 225.504 150.026C225 150.026 224.586 150.134 224.262 150.35C223.938 150.554 223.68 150.8 223.488 151.088C223.296 151.376 223.164 151.67 223.092 151.97C223.02 152.27 222.984 152.51 222.984 152.69H227.52ZM230.992 150.404C230.992 150.128 230.962 149.696 230.902 149.108L232.234 148.928L232.378 150.242H232.396C232.612 149.966 232.822 149.726 233.026 149.522C233.23 149.318 233.44 149.144 233.656 149C233.884 148.844 234.1 148.766 234.304 148.766C234.58 148.754 234.964 148.784 235.456 148.856L235.132 150.242C234.736 150.17 234.46 150.14 234.304 150.152C234.1 150.152 233.884 150.248 233.656 150.44C233.428 150.632 233.23 150.836 233.062 151.052C232.846 151.316 232.636 151.616 232.432 151.952V158H230.992V150.404ZM237.074 150.89C237.074 150.602 237.176 150.356 237.38 150.152C237.584 149.936 237.836 149.828 238.136 149.828C238.448 149.828 238.712 149.936 238.928 150.152C239.144 150.356 239.252 150.602 239.252 150.89C239.252 151.19 239.144 151.442 238.928 151.646C238.712 151.85 238.448 151.952 238.136 151.952C237.836 151.952 237.584 151.85 237.38 151.646C237.176 151.442 237.074 151.19 237.074 150.89ZM237.218 155.858H238.748L237.74 160.502L236.606 160.286L237.218 155.858ZM243.968 155.66C243.968 155.996 243.974 156.302 243.986 156.578C243.998 156.842 244.01 157.112 244.022 157.388C244.046 157.652 244.064 157.934 244.076 158.234C244.088 158.546 244.094 158.9 244.094 159.296C244.094 159.704 243.986 160.058 243.77 160.358C243.554 160.658 243.284 160.91 242.96 161.114C242.648 161.318 242.306 161.486 241.934 161.618C241.574 161.75 241.244 161.846 240.944 161.906L240.692 160.646C241.052 160.562 241.382 160.448 241.682 160.304C241.922 160.172 242.144 159.998 242.348 159.782C242.564 159.578 242.672 159.314 242.672 158.99C242.672 158.498 242.648 157.994 242.6 157.478C242.564 156.95 242.546 156.308 242.546 155.552C242.546 154.832 242.648 154.244 242.852 153.788C243.068 153.32 243.464 153.002 244.04 152.834C243.488 152.678 243.098 152.336 242.87 151.808C242.642 151.268 242.534 150.638 242.546 149.918C242.546 149.162 242.564 148.526 242.6 148.01C242.648 147.482 242.672 146.972 242.672 146.48C242.672 146.168 242.57 145.904 242.366 145.688C242.174 145.472 241.946 145.298 241.682 145.166C241.382 145.022 241.052 144.908 240.692 144.824L240.944 143.564C241.244 143.636 241.574 143.738 241.934 143.87C242.306 143.99 242.648 144.152 242.96 144.356C243.284 144.56 243.554 144.812 243.77 145.112C243.986 145.412 244.094 145.766 244.094 146.174C244.094 146.57 244.088 146.924 244.076 147.236C244.064 147.536 244.046 147.824 244.022 148.1C244.01 148.364 243.998 148.634 243.986 148.91C243.974 149.174 243.968 149.474 243.968 149.81C243.968 150.242 244.01 150.59 244.094 150.854C244.178 151.106 244.298 151.316 244.454 151.484C244.61 151.64 244.784 151.766 244.976 151.862C245.18 151.958 245.402 152.054 245.642 152.15V153.5C245.462 153.572 245.27 153.662 245.066 153.77C244.862 153.866 244.682 153.992 244.526 154.148C244.37 154.292 244.238 154.49 244.13 154.742C244.022 154.982 243.968 155.288 243.968 155.66ZM79.9646 248.78V248.042L86.6786 244.892V246.26L82.0166 248.51L86.6786 250.94V252.488L79.9646 248.78ZM89.1886 240.518L90.6286 240.356V246.08C90.9886 245.84 91.3426 245.63 91.6906 245.45C92.0506 245.27 92.4166 245.114 92.7886 244.982C93.1606 244.838 93.5206 244.766 93.8686 244.766C94.3606 244.766 94.7686 244.826 95.0926 244.946C95.4286 245.054 95.6986 245.24 95.9026 245.504C96.1066 245.768 96.2506 246.116 96.3346 246.548C96.4306 246.98 96.4786 247.52 96.4786 248.168V254H95.0386V248.33C95.0386 247.97 95.0326 247.652 95.0206 247.376C95.0086 247.088 94.9546 246.848 94.8586 246.656C94.7746 246.452 94.6366 246.296 94.4446 246.188C94.2646 246.08 94.0066 246.026 93.6706 246.026C93.3586 246.026 93.0226 246.098 92.6626 246.242C92.3026 246.374 91.9606 246.53 91.6366 246.71C91.3126 246.89 90.9766 247.1 90.6286 247.34V254H89.1886V240.518ZM100.743 246.602L98.3848 247.052L98.0968 245.828L101.301 244.946H102.183V254H100.743V246.602ZM104.866 250.94L109.528 248.51L104.866 246.26V244.892L111.58 248.042V248.78L104.866 252.488V250.94ZM113.91 241.724H115.422V247.034H121.632V241.724H123.144V254H121.632V248.384H115.422V254H113.91V241.724ZM132.588 253.784C132.312 253.868 132.024 253.94 131.724 254C131.436 254.06 131.112 254.114 130.752 254.162C130.404 254.21 130.038 254.234 129.654 254.234C129.054 254.234 128.496 254.15 127.98 253.982C127.464 253.814 127.014 253.544 126.63 253.172C126.246 252.8 125.94 252.32 125.712 251.732C125.496 251.132 125.388 250.4 125.388 249.536C125.388 248.756 125.496 248.072 125.712 247.484C125.928 246.884 126.222 246.386 126.594 245.99C126.978 245.582 127.422 245.276 127.926 245.072C128.442 244.868 129 244.766 129.6 244.766C130.188 244.766 130.698 244.88 131.13 245.108C131.562 245.336 131.916 245.648 132.192 246.044C132.48 246.428 132.69 246.884 132.822 247.412C132.966 247.928 133.038 248.474 133.038 249.05L132.768 249.842H126.954C126.954 250.214 127.002 250.586 127.098 250.958C127.194 251.33 127.356 251.666 127.584 251.966C127.824 252.266 128.13 252.512 128.502 252.704C128.886 252.884 129.36 252.974 129.924 252.974C130.284 252.974 130.614 252.956 130.914 252.92C131.214 252.872 131.472 252.824 131.688 252.776C131.916 252.716 132.126 252.65 132.318 252.578L132.588 253.784ZM131.544 248.69C131.544 248.606 131.526 248.42 131.49 248.132C131.454 247.844 131.37 247.544 131.238 247.232C131.106 246.92 130.902 246.644 130.626 246.404C130.35 246.152 129.984 246.026 129.528 246.026C129.024 246.026 128.61 246.134 128.286 246.35C127.962 246.554 127.704 246.8 127.512 247.088C127.32 247.376 127.188 247.67 127.116 247.97C127.044 248.27 127.008 248.51 127.008 248.69H131.544ZM134.997 240.518L136.437 240.356V254H134.997V240.518ZM139.023 240.518L140.463 240.356V254H139.023V240.518ZM144.074 249.518C144.074 250.682 144.332 251.552 144.848 252.128C145.376 252.692 146.084 252.974 146.972 252.974C147.848 252.974 148.532 252.692 149.024 252.128C149.516 251.564 149.762 250.718 149.762 249.59C149.762 248.39 149.498 247.496 148.97 246.908C148.454 246.32 147.746 246.026 146.846 246.026C145.946 246.026 145.256 246.32 144.776 246.908C144.308 247.484 144.074 248.354 144.074 249.518ZM142.544 249.5C142.544 248.588 142.688 247.832 142.976 247.232C143.264 246.62 143.63 246.134 144.074 245.774C144.518 245.402 144.992 245.144 145.496 245C146.012 244.844 146.498 244.766 146.954 244.766C147.386 244.766 147.854 244.838 148.358 244.982C148.874 245.114 149.348 245.36 149.78 245.72C150.212 246.068 150.572 246.542 150.86 247.142C151.148 247.73 151.292 248.48 151.292 249.392C151.292 250.34 151.142 251.126 150.842 251.75C150.554 252.374 150.188 252.872 149.744 253.244C149.3 253.604 148.82 253.856 148.304 254C147.788 254.156 147.308 254.234 146.864 254.234C146.408 254.234 145.928 254.162 145.424 254.018C144.92 253.874 144.452 253.628 144.02 253.28C143.6 252.92 143.246 252.434 142.958 251.822C142.682 251.21 142.544 250.436 142.544 249.5ZM152.826 248.78V248.042L159.54 244.892V246.26L154.878 248.51L159.54 250.94V252.488L152.826 248.78ZM168.044 238.7L169.394 239.204L162.644 257.762L161.294 257.258L168.044 238.7ZM171.226 240.518L172.666 240.356V246.08C173.026 245.84 173.38 245.63 173.728 245.45C174.088 245.27 174.454 245.114 174.826 244.982C175.198 244.838 175.558 244.766 175.906 244.766C176.398 244.766 176.806 244.826 177.13 244.946C177.466 245.054 177.736 245.24 177.94 245.504C178.144 245.768 178.288 246.116 178.372 246.548C178.468 246.98 178.516 247.52 178.516 248.168V254H177.076V248.33C177.076 247.97 177.07 247.652 177.058 247.376C177.046 247.088 176.992 246.848 176.896 246.656C176.812 246.452 176.674 246.296 176.482 246.188C176.302 246.08 176.044 246.026 175.708 246.026C175.396 246.026 175.06 246.098 174.7 246.242C174.34 246.374 173.998 246.53 173.674 246.71C173.35 246.89 173.014 247.1 172.666 247.34V254H171.226V240.518ZM182.78 246.602L180.422 247.052L180.134 245.828L183.338 244.946H184.22V254H182.78V246.602ZM186.903 250.94L191.565 248.51L186.903 246.26V244.892L193.617 248.042V248.78L186.903 252.488V250.94Z" fill="#888888"/>
<path d="M55.4745 36.072C55.6238 36.104 55.6985 36.2 55.6985 36.36V37H49.5545V36.36C49.5545 36.2 49.6292 36.104 49.7785 36.072L52.0185 35.912V28.104C52.0185 27.784 52.0238 27.544 52.0345 27.384L49.9865 29.128C49.8905 29.2133 49.7785 29.256 49.6505 29.256C49.5012 29.256 49.3892 29.1973 49.3145 29.08L48.8665 28.456L52.2745 25.512H53.4265V35.912L55.4745 36.072ZM47.884 61V60.52C47.884 60.4347 47.9053 60.328 47.948 60.2C47.98 60.104 48.044 60.008 48.14 59.912L51.82 56.232C52.1933 55.848 52.4707 55.5493 52.652 55.336C52.8867 55.0693 53.1 54.7813 53.292 54.472C53.4413 54.2267 53.5747 53.928 53.692 53.576C53.788 53.288 53.836 52.9733 53.836 52.632C53.836 52.3333 53.7827 52.04 53.676 51.752C53.5693 51.4853 53.4253 51.272 53.244 51.112C53.0307 50.9413 52.812 50.8187 52.588 50.744C52.3533 50.6693 52.0867 50.632 51.788 50.632C51.4787 50.632 51.212 50.6747 50.988 50.76C50.7 50.8667 50.4813 50.984 50.332 51.112C50.1293 51.2827 49.9693 51.464 49.852 51.656C49.7347 51.848 49.644 52.072 49.58 52.328C49.548 52.4987 49.484 52.616 49.388 52.68C49.292 52.744 49.1747 52.776 49.036 52.776H48.972L48.86 52.76L48.108 52.632C48.172 52.12 48.3213 51.656 48.556 51.24C48.78 50.8453 49.0467 50.5147 49.356 50.248C49.6867 49.9707 50.0653 49.7573 50.492 49.608C50.8973 49.4693 51.3507 49.4 51.852 49.4C52.364 49.4 52.8227 49.4693 53.228 49.608C53.6333 49.7467 53.996 49.96 54.316 50.248C54.636 50.536 54.8813 50.8667 55.052 51.24C55.2227 51.6133 55.308 52.0613 55.308 52.584C55.308 53.0213 55.244 53.416 55.116 53.768C54.9667 54.1627 54.796 54.5093 54.604 54.808C54.3907 55.128 54.1347 55.4533 53.836 55.784C53.548 56.104 53.244 56.424 52.924 56.744L49.9 59.816C50.06 59.7733 50.2787 59.7307 50.556 59.688C50.78 59.656 50.988 59.64 51.18 59.64H54.316C54.3373 59.3733 54.3587 59.1653 54.38 59.016C54.4013 58.8667 54.412 58.7707 54.412 58.728C54.4333 58.6427 54.476 58.5733 54.54 58.52C54.604 58.4667 54.6733 58.44 54.748 58.44H55.532V60.008L55.516 61H47.884ZM51.9796 73.416C52.4596 73.416 52.9076 73.48 53.3236 73.608C53.7076 73.7253 54.0596 73.928 54.3796 74.216C54.6783 74.4827 54.9076 74.792 55.0676 75.144C55.2383 75.5173 55.3236 75.912 55.3236 76.328C55.3236 76.6907 55.2756 77.016 55.1796 77.304C55.0836 77.5813 54.9503 77.832 54.7796 78.056C54.6303 78.248 54.417 78.4293 54.1396 78.6C53.9156 78.7387 53.6383 78.8613 53.3076 78.968C54.0543 79.16 54.6196 79.4907 55.0036 79.96C55.377 80.408 55.5636 80.9893 55.5636 81.704C55.5636 82.216 55.4623 82.6907 55.2596 83.128C55.057 83.576 54.7903 83.9333 54.4596 84.2C54.0863 84.5093 53.681 84.7387 53.2436 84.888C52.785 85.048 52.289 85.128 51.7556 85.128C51.1263 85.128 50.609 85.0533 50.2036 84.904C49.7663 84.744 49.3983 84.5307 49.0996 84.264C48.801 83.9973 48.5556 83.6827 48.3636 83.32C48.161 82.9253 47.9956 82.5253 47.8676 82.12L48.4756 81.864C48.5716 81.8213 48.689 81.8 48.8276 81.8C48.9343 81.8 49.025 81.8213 49.0996 81.864C49.185 81.9173 49.2436 81.992 49.2756 82.088C49.2756 82.0987 49.281 82.1093 49.2916 82.12C49.3023 82.1307 49.3076 82.1413 49.3076 82.152C49.3076 82.1627 49.313 82.1787 49.3236 82.2C49.3343 82.2107 49.3396 82.2213 49.3396 82.232C49.361 82.2853 49.4463 82.4613 49.5956 82.76C49.7023 82.9733 49.8463 83.1547 50.0276 83.304C50.1983 83.4427 50.4276 83.5813 50.7156 83.72C50.993 83.848 51.3236 83.912 51.7076 83.912C52.113 83.912 52.465 83.848 52.7636 83.72C53.0836 83.5813 53.3396 83.4107 53.5316 83.208C53.7343 82.984 53.8836 82.7493 53.9796 82.504C54.0863 82.216 54.1396 81.9653 54.1396 81.752C54.1396 81.464 54.097 81.1813 54.0116 80.904C53.9263 80.6373 53.777 80.4133 53.5636 80.232C53.3503 80.0507 53.0516 79.912 52.6676 79.816C52.241 79.7093 51.7503 79.656 51.1956 79.656V78.616C51.601 78.616 52.017 78.5573 52.4436 78.44C52.753 78.3547 53.0303 78.216 53.2756 78.024C53.5103 77.8427 53.6703 77.6347 53.7556 77.4C53.8516 77.144 53.8996 76.872 53.8996 76.584C53.8996 76.264 53.8516 75.976 53.7556 75.72C53.6703 75.496 53.521 75.2933 53.3076 75.112C53.1156 74.952 52.9023 74.8347 52.6676 74.76C52.3903 74.6747 52.1236 74.632 51.8676 74.632C51.5583 74.632 51.2916 74.6747 51.0676 74.76C50.7796 74.8667 50.561 74.984 50.4116 75.112C50.209 75.2827 50.049 75.464 49.9316 75.656C49.8036 75.8693 49.7076 76.0987 49.6436 76.344C49.6116 76.504 49.5476 76.616 49.4516 76.68C49.3556 76.744 49.2436 76.776 49.1156 76.776H48.9236L48.1876 76.648C48.2516 76.1147 48.3956 75.6507 48.6196 75.256C48.8436 74.8613 49.1156 74.5253 49.4356 74.248C49.745 73.9813 50.1183 73.7733 50.5556 73.624C50.961 73.4853 51.4196 73.416 51.9316 73.416H51.9796ZM55.6643 105.688C55.6643 105.752 55.6376 105.821 55.5843 105.896C55.5416 105.96 55.4669 105.992 55.3603 105.992H53.9363V109H52.6723V105.992H47.6003C47.4936 105.992 47.4029 105.96 47.3283 105.896C47.2536 105.832 47.2003 105.757 47.1683 105.672L47.0403 104.936L52.6083 97.544H53.9363V104.872H55.6643V105.688ZM52.6883 99.688C52.6883 99.528 52.7043 99.368 52.7363 99.208L48.5763 104.872H52.6723V100.136L52.6883 99.688ZM55.1546 122.184C55.1546 122.376 55.0906 122.536 54.9626 122.664C54.8346 122.792 54.6213 122.856 54.3226 122.856H50.7066L50.1946 125.864C50.8026 125.736 51.352 125.672 51.8426 125.672C52.44 125.672 52.968 125.763 53.4266 125.944C53.896 126.125 54.28 126.365 54.5786 126.664C54.8773 126.963 55.112 127.336 55.2826 127.784C55.4426 128.2 55.5226 128.659 55.5226 129.16C55.5226 129.789 55.416 130.333 55.2026 130.792C54.968 131.304 54.6746 131.725 54.3226 132.056C53.96 132.397 53.528 132.664 53.0266 132.856C52.5466 133.037 52.0026 133.128 51.3946 133.128C51.064 133.128 50.7386 133.096 50.4186 133.032C50.0773 132.968 49.7893 132.883 49.5546 132.776C49.2666 132.648 49.0213 132.52 48.8186 132.392C48.552 132.221 48.3493 132.072 48.2106 131.944L48.6426 131.336C48.7493 131.187 48.8773 131.112 49.0266 131.112C49.1333 131.112 49.256 131.155 49.3946 131.24C49.5653 131.347 49.7253 131.437 49.8746 131.512C50.0986 131.619 50.3226 131.709 50.5466 131.784C50.824 131.869 51.1333 131.912 51.4746 131.912C51.88 131.912 52.2426 131.848 52.5626 131.72C52.872 131.592 53.144 131.405 53.3786 131.16C53.6026 130.925 53.7786 130.643 53.9066 130.312C54.024 130.013 54.0826 129.64 54.0826 129.192C54.0826 128.84 54.0346 128.52 53.9386 128.232C53.8426 127.955 53.6826 127.709 53.4586 127.496C53.224 127.272 52.9626 127.112 52.6746 127.016C52.3653 126.909 51.9973 126.856 51.5706 126.856C51.2613 126.856 50.9626 126.877 50.6746 126.92C50.4613 126.952 50.1413 127.032 49.7146 127.16L48.8186 126.888L49.7466 121.544H55.1866V122.152L55.1546 122.184ZM52.1743 149.992C52.6649 149.992 53.1023 150.067 53.4863 150.216C53.8809 150.365 54.2383 150.584 54.5583 150.872C54.8569 151.139 55.1076 151.496 55.3103 151.944C55.4809 152.317 55.5663 152.797 55.5663 153.384C55.5663 153.917 55.4703 154.408 55.2783 154.856C55.0756 155.325 54.8089 155.72 54.4783 156.04C54.1156 156.381 53.6996 156.648 53.2303 156.84C52.7503 157.032 52.2169 157.128 51.6302 157.128C51.0543 157.128 50.5316 157.032 50.0623 156.84C49.5609 156.637 49.1663 156.381 48.8783 156.072C48.5369 155.709 48.2809 155.299 48.1103 154.84C47.9396 154.371 47.8543 153.832 47.8543 153.224C47.8543 152.723 47.9663 152.184 48.1903 151.608C48.4036 151.064 48.7609 150.456 49.2623 149.784L52.1583 145.864C52.2116 145.789 52.3129 145.715 52.4623 145.64C52.5903 145.576 52.7449 145.544 52.9263 145.544H54.1903L50.2223 150.568C50.4889 150.376 50.7876 150.232 51.1183 150.136C51.4703 150.029 51.8276 149.976 52.1903 149.976L52.1743 149.992ZM49.2303 153.48C49.2303 153.8 49.2836 154.131 49.3903 154.472C49.4863 154.771 49.6409 155.037 49.8543 155.272C50.0249 155.453 50.2756 155.619 50.6063 155.768C50.8729 155.885 51.2089 155.944 51.6143 155.944C51.9876 155.944 52.3343 155.88 52.6543 155.752C52.9956 155.613 53.2623 155.448 53.4543 155.256C53.6569 155.053 53.8276 154.797 53.9663 154.488C54.0943 154.2 54.1583 153.875 54.1583 153.512C54.1583 153.128 54.0943 152.787 53.9663 152.488C53.8276 152.147 53.6623 151.891 53.4703 151.72C53.2463 151.507 52.9903 151.347 52.7023 151.24C52.4249 151.133 52.0996 151.08 51.7263 151.08C51.3423 151.08 50.9903 151.144 50.6703 151.272C50.3823 151.389 50.1209 151.565 49.8863 151.8C49.6729 152.013 49.5076 152.269 49.3903 152.568C49.2836 152.845 49.2303 153.149 49.2303 153.48ZM55.6005 170.184C55.6005 170.472 55.5418 170.717 55.4245 170.92L50.6725 180.488C50.5125 180.829 50.2565 181 49.9045 181H48.8805L53.6965 171.544C53.8672 171.235 54.0218 171.005 54.1605 170.856H49.0405C48.9765 171.56 48.9338 171.96 48.9125 172.056C48.8805 172.237 48.7738 172.328 48.5925 172.328H47.8085V169.544H55.6005V170.184ZM51.6943 205.16C51.1076 205.16 50.5903 205.085 50.1423 204.936C49.6623 204.776 49.2516 204.557 48.9103 204.28C48.5903 204.013 48.3289 203.672 48.1263 203.256C47.9449 202.883 47.8543 202.429 47.8543 201.896C47.8543 201.16 48.0463 200.552 48.4303 200.072C48.8249 199.581 49.3689 199.24 50.0623 199.048C49.4756 198.835 49.0276 198.499 48.7183 198.04C48.4089 197.581 48.2543 197.048 48.2543 196.44C48.2543 196.013 48.3343 195.619 48.4943 195.256C48.6543 194.893 48.8889 194.573 49.1983 194.296C49.4756 194.04 49.8436 193.827 50.3023 193.656C50.7183 193.496 51.1929 193.416 51.7263 193.416C52.2489 193.416 52.7183 193.496 53.1343 193.656C53.5716 193.827 53.9343 194.04 54.2223 194.296C54.5316 194.573 54.7663 194.893 54.9263 195.256C55.0969 195.651 55.1823 196.045 55.1823 196.44C55.1823 197.059 55.0276 197.587 54.7183 198.024C54.3769 198.493 53.9236 198.835 53.3583 199.048C54.0623 199.24 54.6063 199.576 54.9903 200.056C55.3743 200.536 55.5663 201.144 55.5663 201.88C55.5663 202.381 55.4703 202.835 55.2783 203.24C55.0863 203.635 54.8249 203.976 54.4943 204.264C54.1956 204.52 53.7903 204.733 53.2783 204.904C52.8303 205.053 52.3129 205.128 51.7263 205.128L51.6943 205.16ZM51.6463 198.536C52.0303 198.536 52.3449 198.483 52.5903 198.376C52.8676 198.248 53.0863 198.093 53.2463 197.912C53.4383 197.677 53.5609 197.459 53.6143 197.256C53.6783 197 53.7103 196.744 53.7103 196.488C53.7103 196.2 53.6676 195.955 53.5823 195.752C53.4649 195.475 53.3369 195.267 53.1983 195.128C53.0063 194.936 52.7929 194.797 52.5583 194.712C52.3023 194.616 52.0036 194.568 51.6623 194.568C51.3209 194.568 51.0223 194.616 50.7663 194.712C50.5103 194.808 50.2916 194.947 50.1103 195.128C49.9503 195.277 49.8169 195.485 49.7103 195.752C49.6249 195.955 49.5823 196.2 49.5823 196.488C49.5823 196.659 49.6249 196.915 49.7103 197.256C49.7636 197.48 49.8809 197.699 50.0623 197.912C50.2223 198.104 50.4356 198.259 50.7023 198.376C50.9476 198.483 51.2623 198.536 51.6463 198.536ZM51.6623 204.04C52.0249 204.04 52.3663 203.987 52.6863 203.88C52.9529 203.795 53.1983 203.645 53.4223 203.432C53.6356 203.24 53.7956 203.016 53.9023 202.76C54.0196 202.493 54.0783 202.2 54.0783 201.88C54.0783 201.496 54.0143 201.16 53.8863 200.872C53.7583 200.595 53.5823 200.365 53.3583 200.184C53.1343 200.003 52.8783 199.875 52.5903 199.8C52.3236 199.725 52.0249 199.688 51.6943 199.688C51.3529 199.688 51.0489 199.725 50.7823 199.8C50.4943 199.875 50.2383 200.003 50.0143 200.184C49.7903 200.365 49.6143 200.595 49.4863 200.872C49.3583 201.16 49.2943 201.491 49.2943 201.864C49.2943 202.205 49.3476 202.499 49.4543 202.744C49.5716 203.021 49.7316 203.251 49.9343 203.432C50.1369 203.613 50.3929 203.757 50.7023 203.864C50.9903 203.96 51.3209 204.008 51.6943 204.008L51.6623 204.04ZM51.2886 224.296C50.862 224.296 50.4513 224.221 50.0566 224.072C49.662 223.923 49.326 223.709 49.0486 223.432C48.7393 223.123 48.5046 222.781 48.3446 222.408C48.1633 221.981 48.0726 221.512 48.0726 221C48.0726 220.488 48.1633 220.019 48.3446 219.592C48.5366 219.155 48.8033 218.771 49.1446 218.44C49.486 218.109 49.8806 217.853 50.3286 217.672C50.798 217.48 51.31 217.384 51.8646 217.384C52.4406 217.384 52.942 217.475 53.3686 217.656C53.8166 217.848 54.2006 218.104 54.5206 218.424C54.83 218.733 55.0753 219.123 55.2566 219.592C55.4273 220.029 55.5126 220.536 55.5126 221.112C55.5126 221.453 55.4806 221.768 55.4166 222.056C55.3313 222.44 55.246 222.728 55.1606 222.92C55.0326 223.197 54.894 223.475 54.7446 223.752C54.606 224.008 54.4193 224.296 54.1846 224.616L51.3846 228.648C51.31 228.755 51.214 228.84 51.0966 228.904C50.9686 228.968 50.8193 229 50.6486 229H49.3366L52.8246 224.424L53.1766 223.992L53.4646 223.592C53.2086 223.795 52.878 223.965 52.4726 224.104C52.11 224.232 51.7153 224.296 51.2886 224.296ZM54.1366 220.952C54.1366 220.589 54.0833 220.269 53.9766 219.992C53.87 219.715 53.71 219.469 53.4966 219.256C53.294 219.053 53.054 218.899 52.7766 218.792C52.478 218.675 52.174 218.616 51.8646 218.616C51.5233 218.616 51.2033 218.675 50.9046 218.792C50.6166 218.899 50.366 219.053 50.1526 219.256C49.95 219.448 49.79 219.688 49.6726 219.976C49.5553 220.275 49.4966 220.584 49.4966 220.904C49.4966 221.224 49.55 221.544 49.6566 221.864C49.7526 222.152 49.902 222.397 50.1046 222.6C50.318 222.813 50.558 222.963 50.8246 223.048C51.1446 223.155 51.4593 223.208 51.7686 223.208C52.1633 223.208 52.5046 223.144 52.7926 223.016C53.0913 222.888 53.3366 222.717 53.5286 222.504C53.742 222.269 53.8913 222.035 53.9766 221.8C54.0833 221.501 54.1366 221.219 54.1366 220.952ZM46.0526 252.072C46.202 252.104 46.2766 252.2 46.2766 252.36V253H40.1326V252.36C40.1326 252.2 40.2073 252.104 40.3566 252.072L42.5966 251.912V244.104C42.5966 243.784 42.602 243.544 42.6126 243.384L40.5646 245.128C40.4686 245.213 40.3566 245.256 40.2286 245.256C40.0793 245.256 39.9673 245.197 39.8926 245.08L39.4446 244.456L42.8526 241.512H44.0046V251.912L46.0526 252.072ZM55.4421 247.272C55.4421 248.307 55.3355 249.176 55.1221 249.88C54.8875 250.659 54.5941 251.267 54.2421 251.704C53.8368 252.205 53.3941 252.563 52.9141 252.776C52.3808 253.011 51.8368 253.128 51.2821 253.128C50.7275 253.128 50.1835 253.011 49.6501 252.776C49.1701 252.563 48.7275 252.205 48.3221 251.704C47.9701 251.267 47.6768 250.659 47.4421 249.88C47.2288 249.176 47.1221 248.307 47.1221 247.272C47.1221 246.237 47.2288 245.368 47.4421 244.664C47.6768 243.885 47.9701 243.277 48.3221 242.84C48.7275 242.339 49.1701 241.981 49.6501 241.768C50.1835 241.533 50.7275 241.416 51.2821 241.416C51.8368 241.416 52.3808 241.533 52.9141 241.768C53.3941 241.981 53.8368 242.339 54.2421 242.84C54.5941 243.277 54.8875 243.885 55.1221 244.664C55.3461 245.4 55.4581 246.269 55.4581 247.272H55.4421ZM53.9701 247.288C53.9701 246.445 53.8955 245.715 53.7461 245.096C53.5968 244.467 53.3995 243.987 53.1541 243.656C52.8875 243.283 52.5995 243.021 52.2901 242.872C51.9701 242.712 51.6341 242.632 51.2821 242.632C50.9195 242.632 50.5781 242.712 50.2581 242.872C49.9488 243.021 49.6608 243.283 49.3941 243.656C49.1595 243.976 48.9675 244.451 48.8181 245.08C48.6688 245.699 48.5941 246.429 48.5941 247.272C48.5941 248.125 48.6688 248.861 48.8181 249.48C48.9781 250.131 49.1701 250.611 49.3941 250.92C49.6501 251.272 49.9381 251.528 50.2581 251.688C50.5781 251.848 50.9195 251.928 51.2821 251.928C51.6448 251.928 51.9861 251.848 52.3061 251.688C52.6155 251.539 52.9035 251.277 53.1701 250.904C53.4048 250.584 53.5968 250.109 53.7461 249.48C53.8955 248.861 53.9701 248.131 53.9701 247.288ZM48.037 276.072C48.1863 276.104 48.261 276.2 48.261 276.36V277H42.117V276.36C42.117 276.2 42.1917 276.104 42.341 276.072L44.581 275.912V268.104C44.581 267.784 44.5863 267.544 44.597 267.384L42.549 269.128C42.453 269.213 42.341 269.256 42.213 269.256C42.0637 269.256 41.9517 269.197 41.877 269.08L41.429 268.456L44.837 265.512H45.989V275.912L48.037 276.072ZM55.4745 276.072C55.6238 276.104 55.6985 276.2 55.6985 276.36V277H49.5545V276.36C49.5545 276.2 49.6292 276.104 49.7785 276.072L52.0185 275.912V268.104C52.0185 267.784 52.0238 267.544 52.0345 267.384L49.9865 269.128C49.8905 269.213 49.7785 269.256 49.6505 269.256C49.5012 269.256 49.3892 269.197 49.3145 269.08L48.8665 268.456L52.2745 265.512H53.4265V275.912L55.4745 276.072Z" fill="#AA9999"/>
</g>
<defs>
<clipPath id="clip0">
<rect width="400" height="300" rx="20" fill="white"/>
</clipPath>
</defs>
</svg>
