<svg width="400" height="300" viewBox="0 0 400 300" fill="none" xmlns="http://www.w3.org/2000/svg">
<rect width="400" height="300" rx="20" fill="white" fill-opacity="0.4"/>
<rect x="64.5" y="61.5" width="299" height="39" fill="white" stroke="#B82B22" stroke-linecap="square" stroke-linejoin="round"/>
<rect x="111.5" y="159.5" width="252" height="39" fill="white" stroke="#B82B22" stroke-linecap="square" stroke-linejoin="round"/>
<rect x="111.5" y="219.5" width="252" height="39" fill="white" stroke="#B82B22" stroke-linecap="square" stroke-linejoin="round"/>
<path d="M34.576 33.997C34.4027 34.0057 34.238 34.0143 34.082 34.023C33.926 34.0317 33.77 34.0447 33.614 34.062C33.4667 34.0707 33.3323 34.0837 33.211 34.101C32.587 34.179 32.145 34.3177 31.885 34.517C31.625 34.7077 31.495 34.985 31.495 35.349C31.495 35.6523 31.586 35.882 31.768 36.038C31.9587 36.1853 32.2057 36.259 32.509 36.259C32.925 36.259 33.2933 36.1897 33.614 36.051C33.9433 35.9037 34.264 35.713 34.576 35.479V33.997ZM34.563 36.389C34.1557 36.623 33.7743 36.8137 33.419 36.961C33.0723 37.0997 32.6953 37.169 32.288 37.169C31.7073 37.169 31.2437 37.0303 30.897 36.753C30.559 36.467 30.39 35.999 30.39 35.349C30.39 35.011 30.4767 34.7163 30.65 34.465C30.8233 34.2137 31.0487 34.0057 31.326 33.841C31.612 33.6677 31.9327 33.5333 32.288 33.438C32.6433 33.3427 33.0073 33.282 33.38 33.256C33.536 33.2387 33.7397 33.2257 33.991 33.217C34.2423 33.1997 34.4373 33.1867 34.576 33.178C34.576 32.8747 34.5673 32.606 34.55 32.372C34.5327 32.1293 34.4807 31.9257 34.394 31.761C34.3073 31.5877 34.1773 31.4577 34.004 31.371C33.8393 31.2843 33.601 31.241 33.289 31.241C33.0377 31.241 32.795 31.2583 32.561 31.293C32.327 31.319 32.119 31.3493 31.937 31.384C31.7203 31.4273 31.521 31.475 31.339 31.527L31.131 30.63C31.3477 30.578 31.5817 30.5303 31.833 30.487C32.0497 30.4437 32.301 30.409 32.587 30.383C32.873 30.3483 33.1807 30.331 33.51 30.331C33.952 30.331 34.3073 30.396 34.576 30.526C34.8533 30.656 35.0657 30.8337 35.213 31.059C35.369 31.2757 35.473 31.527 35.525 31.813C35.5857 32.0903 35.616 32.385 35.616 32.697V35.817C35.616 35.9383 35.616 36.0683 35.616 36.207C35.6247 36.337 35.6333 36.467 35.642 36.597C35.6593 36.727 35.6767 36.8613 35.694 37L34.693 37.104L34.563 36.389ZM37.4617 31.969C37.4617 31.657 37.44 31.1933 37.3967 30.578L38.3587 30.448L38.4757 31.15C38.649 31.0027 38.8267 30.8727 39.0087 30.76C39.1994 30.6387 39.403 30.539 39.6197 30.461C39.845 30.3743 40.0834 30.331 40.3347 30.331C40.69 30.331 41.0237 30.3917 41.3357 30.513C41.6564 30.6343 41.9337 30.8293 42.1677 31.098C42.4104 31.3667 42.601 31.7177 42.7397 32.151C42.8784 32.5757 42.9477 33.1 42.9477 33.724C42.9477 34.3567 42.8524 34.894 42.6617 35.336C42.4797 35.7693 42.237 36.1247 41.9337 36.402C41.639 36.6707 41.301 36.8657 40.9197 36.987C40.547 37.1083 40.1657 37.169 39.7757 37.169C39.3597 37.1603 38.935 37.1083 38.5017 37.013V39.834L37.4617 39.964V31.969ZM39.7757 36.259C40.1397 36.259 40.4517 36.194 40.7117 36.064C40.9717 35.934 41.184 35.7563 41.3487 35.531C41.522 35.297 41.6477 35.0327 41.7257 34.738C41.8037 34.4347 41.8427 34.114 41.8427 33.776C41.8427 33.4727 41.8124 33.1693 41.7517 32.866C41.6997 32.5627 41.6087 32.294 41.4787 32.06C41.3574 31.8173 41.1927 31.6223 40.9847 31.475C40.7767 31.319 40.521 31.241 40.2177 31.241C39.9924 31.241 39.78 31.2843 39.5807 31.371C39.3814 31.449 39.1907 31.5487 39.0087 31.67C38.8354 31.7827 38.6664 31.9127 38.5017 32.06V36.051C38.597 36.0857 38.701 36.1203 38.8137 36.155C38.935 36.181 39.0737 36.207 39.2297 36.233C39.3944 36.2503 39.5764 36.259 39.7757 36.259ZM44.4822 31.969C44.4822 31.657 44.4605 31.1933 44.4172 30.578L45.3792 30.448L45.4962 31.15C45.6695 31.0027 45.8472 30.8727 46.0292 30.76C46.2199 30.6387 46.4235 30.539 46.6402 30.461C46.8655 30.3743 47.1039 30.331 47.3552 30.331C47.7105 30.331 48.0442 30.3917 48.3562 30.513C48.6769 30.6343 48.9542 30.8293 49.1882 31.098C49.4309 31.3667 49.6215 31.7177 49.7602 32.151C49.8989 32.5757 49.9682 33.1 49.9682 33.724C49.9682 34.3567 49.8729 34.894 49.6822 35.336C49.5002 35.7693 49.2575 36.1247 48.9542 36.402C48.6595 36.6707 48.3215 36.8657 47.9402 36.987C47.5675 37.1083 47.1862 37.169 46.7962 37.169C46.3802 37.1603 45.9555 37.1083 45.5222 37.013V39.834L44.4822 39.964V31.969ZM46.7962 36.259C47.1602 36.259 47.4722 36.194 47.7322 36.064C47.9922 35.934 48.2045 35.7563 48.3692 35.531C48.5425 35.297 48.6682 35.0327 48.7462 34.738C48.8242 34.4347 48.8632 34.114 48.8632 33.776C48.8632 33.4727 48.8329 33.1693 48.7722 32.866C48.7202 32.5627 48.6292 32.294 48.4992 32.06C48.3779 31.8173 48.2132 31.6223 48.0052 31.475C47.7972 31.319 47.5415 31.241 47.2382 31.241C47.0129 31.241 46.8005 31.2843 46.6012 31.371C46.4019 31.449 46.2112 31.5487 46.0292 31.67C45.8559 31.7827 45.6869 31.9127 45.5222 32.06V36.051C45.6175 36.0857 45.7215 36.1203 45.8342 36.155C45.9555 36.181 46.0942 36.207 46.2502 36.233C46.4149 36.2503 46.5969 36.259 46.7962 36.259ZM55.4886 25.95L56.4636 26.314L51.5886 39.717L50.6136 39.353L55.4886 25.95ZM57.3806 31.969C57.3806 31.657 57.359 31.1933 57.3156 30.578L58.2776 30.448L58.3946 31.15C58.568 31.0027 58.7456 30.8727 58.9276 30.76C59.1183 30.6387 59.322 30.539 59.5386 30.461C59.764 30.3743 60.0023 30.331 60.2536 30.331C60.609 30.331 60.9426 30.3917 61.2546 30.513C61.5753 30.6343 61.8526 30.8293 62.0866 31.098C62.3293 31.3667 62.52 31.7177 62.6586 32.151C62.7973 32.5757 62.8666 33.1 62.8666 33.724C62.8666 34.3567 62.7713 34.894 62.5806 35.336C62.3986 35.7693 62.156 36.1247 61.8526 36.402C61.558 36.6707 61.22 36.8657 60.8386 36.987C60.466 37.1083 60.0846 37.169 59.6946 37.169C59.2786 37.1603 58.854 37.1083 58.4206 37.013V39.834L57.3806 39.964V31.969ZM59.6946 36.259C60.0586 36.259 60.3706 36.194 60.6306 36.064C60.8906 35.934 61.103 35.7563 61.2676 35.531C61.441 35.297 61.5666 35.0327 61.6446 34.738C61.7226 34.4347 61.7616 34.114 61.7616 33.776C61.7616 33.4727 61.7313 33.1693 61.6706 32.866C61.6186 32.5627 61.5276 32.294 61.3976 32.06C61.2763 31.8173 61.1116 31.6223 60.9036 31.475C60.6956 31.319 60.44 31.241 60.1366 31.241C59.9113 31.241 59.699 31.2843 59.4996 31.371C59.3003 31.449 59.1096 31.5487 58.9276 31.67C58.7543 31.7827 58.5853 31.9127 58.4206 32.06V36.051C58.516 36.0857 58.62 36.1203 58.7326 36.155C58.854 36.181 58.9926 36.207 59.1486 36.233C59.3133 36.2503 59.4953 36.259 59.6946 36.259ZM68.0281 33.997C67.8548 34.0057 67.6901 34.0143 67.5341 34.023C67.3781 34.0317 67.2221 34.0447 67.0661 34.062C66.9188 34.0707 66.7845 34.0837 66.6631 34.101C66.0391 34.179 65.5971 34.3177 65.3371 34.517C65.0771 34.7077 64.9471 34.985 64.9471 35.349C64.9471 35.6523 65.0381 35.882 65.2201 36.038C65.4108 36.1853 65.6578 36.259 65.9611 36.259C66.3771 36.259 66.7455 36.1897 67.0661 36.051C67.3955 35.9037 67.7161 35.713 68.0281 35.479V33.997ZM68.0151 36.389C67.6078 36.623 67.2265 36.8137 66.8711 36.961C66.5245 37.0997 66.1475 37.169 65.7401 37.169C65.1595 37.169 64.6958 37.0303 64.3491 36.753C64.0111 36.467 63.8421 35.999 63.8421 35.349C63.8421 35.011 63.9288 34.7163 64.1021 34.465C64.2755 34.2137 64.5008 34.0057 64.7781 33.841C65.0641 33.6677 65.3848 33.5333 65.7401 33.438C66.0955 33.3427 66.4595 33.282 66.8321 33.256C66.9881 33.2387 67.1918 33.2257 67.4431 33.217C67.6945 33.1997 67.8895 33.1867 68.0281 33.178C68.0281 32.8747 68.0195 32.606 68.0021 32.372C67.9848 32.1293 67.9328 31.9257 67.8461 31.761C67.7595 31.5877 67.6295 31.4577 67.4561 31.371C67.2915 31.2843 67.0531 31.241 66.7411 31.241C66.4898 31.241 66.2471 31.2583 66.0131 31.293C65.7791 31.319 65.5711 31.3493 65.3891 31.384C65.1725 31.4273 64.9731 31.475 64.7911 31.527L64.5831 30.63C64.7998 30.578 65.0338 30.5303 65.2851 30.487C65.5018 30.4437 65.7531 30.409 66.0391 30.383C66.3251 30.3483 66.6328 30.331 66.9621 30.331C67.4041 30.331 67.7595 30.396 68.0281 30.526C68.3055 30.656 68.5178 30.8337 68.6651 31.059C68.8211 31.2757 68.9251 31.527 68.9771 31.813C69.0378 32.0903 69.0681 32.385 69.0681 32.697V35.817C69.0681 35.9383 69.0681 36.0683 69.0681 36.207C69.0768 36.337 69.0855 36.467 69.0941 36.597C69.1115 36.727 69.1288 36.8613 69.1461 37L68.1451 37.104L68.0151 36.389ZM76.0228 37.624C76.0228 37.9447 75.9882 38.2567 75.9188 38.56C75.8495 38.8633 75.7152 39.132 75.5158 39.366C75.3252 39.6087 75.0522 39.7993 74.6968 39.938C74.3502 40.0853 73.8908 40.159 73.3188 40.159C72.9548 40.1503 72.6385 40.1287 72.3698 40.094C72.1012 40.0593 71.8455 40.0073 71.6028 39.938C71.3602 39.8773 71.1392 39.8037 70.9398 39.717L71.2128 38.807C71.5508 38.9543 71.8932 39.067 72.2398 39.145C72.5952 39.223 72.9115 39.262 73.1888 39.262C73.4922 39.262 73.7565 39.2317 73.9818 39.171C74.2072 39.1103 74.3935 39.0063 74.5408 38.859C74.6968 38.7203 74.8095 38.534 74.8788 38.3C74.9568 38.066 74.9958 37.7757 74.9958 37.429V36.48C74.8138 36.6013 74.6232 36.714 74.4238 36.818C74.2332 36.9133 74.0252 36.9957 73.7998 37.065C73.5832 37.1343 73.3708 37.169 73.1628 37.169C72.3568 37.169 71.7198 36.8873 71.2518 36.324C70.7838 35.752 70.5498 34.9027 70.5498 33.776C70.5498 33.126 70.6495 32.5843 70.8488 32.151C71.0568 31.709 71.3168 31.3537 71.6288 31.085C71.9408 30.8163 72.2832 30.6257 72.6558 30.513C73.0285 30.3917 73.3838 30.331 73.7218 30.331C74.1638 30.331 74.5668 30.37 74.9308 30.448C75.3035 30.5173 75.6675 30.5737 76.0228 30.617V37.624ZM73.2798 36.259C73.4705 36.259 73.6655 36.2243 73.8648 36.155C74.0642 36.0857 74.2548 36.0033 74.4368 35.908C74.6275 35.8127 74.8138 35.7 74.9958 35.57V31.423C74.8918 31.397 74.7705 31.3667 74.6318 31.332C74.5105 31.3147 74.3718 31.2973 74.2158 31.28C74.0598 31.254 73.8952 31.241 73.7218 31.241C73.3578 31.241 73.0458 31.306 72.7858 31.436C72.5258 31.566 72.3092 31.7437 72.1358 31.969C71.9712 32.1943 71.8498 32.4587 71.7718 32.762C71.6938 33.0653 71.6548 33.386 71.6548 33.724C71.6548 34.0273 71.6852 34.3307 71.7458 34.634C71.8152 34.9373 71.9192 35.2103 72.0578 35.453C72.1965 35.6957 72.3655 35.8907 72.5648 36.038C72.7642 36.1853 73.0025 36.259 73.2798 36.259ZM82.732 36.844C82.5326 36.9047 82.3246 36.9567 82.108 37C81.9 37.0433 81.666 37.0823 81.406 37.117C81.1546 37.1517 80.8903 37.169 80.613 37.169C80.1796 37.169 79.7766 37.1083 79.404 36.987C79.0313 36.8657 78.7063 36.6707 78.429 36.402C78.1516 36.1333 77.9306 35.7867 77.766 35.362C77.61 34.9287 77.532 34.4 77.532 33.776C77.532 33.2127 77.61 32.7187 77.766 32.294C77.922 31.8607 78.1343 31.501 78.403 31.215C78.6803 30.9203 79.001 30.6993 79.365 30.552C79.7376 30.4047 80.1406 30.331 80.574 30.331C80.9986 30.331 81.367 30.4133 81.679 30.578C81.991 30.7427 82.2466 30.968 82.446 31.254C82.654 31.5313 82.8056 31.8607 82.901 32.242C83.005 32.6147 83.057 33.009 83.057 33.425L82.862 33.997H78.663C78.663 34.2657 78.6976 34.5343 78.767 34.803C78.8363 35.0717 78.9533 35.3143 79.118 35.531C79.2913 35.7477 79.5123 35.9253 79.781 36.064C80.0583 36.194 80.4006 36.259 80.808 36.259C81.068 36.259 81.3063 36.246 81.523 36.22C81.7396 36.1853 81.926 36.1507 82.082 36.116C82.2466 36.0727 82.3983 36.025 82.537 35.973L82.732 36.844ZM81.978 33.165C81.978 33.1043 81.965 32.97 81.939 32.762C81.913 32.554 81.8523 32.3373 81.757 32.112C81.6616 31.8867 81.5143 31.6873 81.315 31.514C81.1156 31.332 80.8513 31.241 80.522 31.241C80.158 31.241 79.859 31.319 79.625 31.475C79.391 31.6223 79.2046 31.8 79.066 32.008C78.9273 32.216 78.832 32.4283 78.78 32.645C78.728 32.8617 78.702 33.035 78.702 33.165H81.978ZM88.0081 31.527C87.6441 31.4143 87.3191 31.3407 87.0331 31.306C86.7558 31.2627 86.5001 31.241 86.2661 31.241C85.9628 31.241 85.7071 31.3147 85.4991 31.462C85.2998 31.6093 85.2001 31.8 85.2001 32.034C85.2088 32.242 85.2998 32.4197 85.4731 32.567C85.6465 32.7143 85.8458 32.8487 86.0711 32.97C86.3051 33.0827 86.5608 33.2083 86.8381 33.347C87.1241 33.4857 87.3885 33.6417 87.6311 33.815C87.8825 33.9883 88.0861 34.1963 88.2421 34.439C88.3981 34.6817 88.4805 34.972 88.4891 35.31C88.4805 35.674 88.3981 35.9773 88.2421 36.22C88.0948 36.454 87.8998 36.6447 87.6571 36.792C87.4231 36.9307 87.1675 37.026 86.8901 37.078C86.6128 37.1387 86.3528 37.169 86.1101 37.169C85.7981 37.169 85.4731 37.1517 85.1351 37.117C84.8058 37.0823 84.4505 37.0087 84.0691 36.896L84.2641 35.96C84.6541 36.064 85.0095 36.142 85.3301 36.194C85.6508 36.2373 85.9151 36.259 86.1231 36.259C86.2791 36.259 86.4308 36.2417 86.5781 36.207C86.7341 36.1723 86.8728 36.1247 86.9941 36.064C87.1155 35.9947 87.2108 35.908 87.2801 35.804C87.3581 35.7 87.3971 35.583 87.3971 35.453C87.3885 35.2103 87.3061 35.0067 87.1501 34.842C86.9941 34.6687 86.7905 34.517 86.5391 34.387C86.2965 34.2483 86.0321 34.114 85.7461 33.984C85.4688 33.8453 85.2045 33.6893 84.9531 33.516C84.7105 33.334 84.5068 33.1217 84.3421 32.879C84.1775 32.6277 84.0951 32.32 84.0951 31.956C84.0951 31.696 84.1601 31.4663 84.2901 31.267C84.4288 31.059 84.6021 30.89 84.8101 30.76C85.0268 30.6213 85.2608 30.5173 85.5121 30.448C85.7721 30.37 86.0235 30.331 86.2661 30.331C86.5175 30.331 86.7991 30.3527 87.1111 30.396C87.4231 30.4307 87.7828 30.5 88.1901 30.604L88.0081 31.527ZM94.0443 25.95L95.0193 26.314L90.1443 39.717L89.1693 39.353L94.0443 25.95Z" fill="black"/>
<line x1="39.5" y1="51" x2="39.5" y2="271" stroke="black"/>
<line x1="40" y1="80.5" x2="65" y2="80.5" stroke="black"/>
<path d="M75.936 79.448L76.976 79.331V86H75.936V79.448ZM75.767 77.589C75.767 77.3897 75.832 77.225 75.962 77.095C76.1007 76.9563 76.2697 76.887 76.469 76.887C76.677 76.887 76.8503 76.9563 76.989 77.095C77.1363 77.225 77.21 77.3897 77.21 77.589C77.21 77.7883 77.1363 77.9573 76.989 78.096C76.8503 78.226 76.677 78.291 76.469 78.291C76.2697 78.291 76.1007 78.226 75.962 78.096C75.832 77.9573 75.767 77.7883 75.767 77.589ZM78.8562 80.761C78.8649 80.579 78.8432 80.1847 78.7912 79.578L79.7532 79.448L79.8962 80.28C80.1562 80.1067 80.4119 79.955 80.6632 79.825C80.9232 79.695 81.1876 79.5823 81.4562 79.487C81.7249 79.383 81.9849 79.331 82.2362 79.331C82.5916 79.331 82.8862 79.3743 83.1202 79.461C83.3629 79.539 83.5579 79.6733 83.7052 79.864C83.8526 80.0547 83.9566 80.306 84.0172 80.618C84.0866 80.93 84.1212 81.32 84.1212 81.788V86H83.0812V81.905C83.0812 81.645 83.0769 81.4153 83.0682 81.216C83.0596 81.008 83.0206 80.8347 82.9512 80.696C82.8906 80.5487 82.7909 80.436 82.6522 80.358C82.5222 80.28 82.3359 80.241 82.0932 80.241C81.8679 80.241 81.6296 80.293 81.3782 80.397C81.1269 80.4923 80.8799 80.605 80.6372 80.735C80.3946 80.865 80.1476 81.0167 79.8962 81.19V86H78.8562V80.761ZM90.0346 80.436C89.7226 80.3493 89.4799 80.2973 89.3066 80.28C89.1333 80.254 88.9556 80.241 88.7736 80.241C88.4096 80.241 88.0976 80.306 87.8376 80.436C87.5776 80.566 87.3609 80.748 87.1876 80.982C87.0229 81.2073 86.9016 81.4717 86.8236 81.775C86.7456 82.0697 86.7066 82.386 86.7066 82.724C86.7066 83.0273 86.7369 83.3307 86.7976 83.634C86.8669 83.9373 86.9709 84.2103 87.1096 84.453C87.2483 84.6957 87.4173 84.8907 87.6166 85.038C87.8159 85.1853 88.0543 85.259 88.3316 85.259C88.5223 85.259 88.7173 85.2243 88.9166 85.155C89.1246 85.0857 89.3153 85.0077 89.4886 84.921C89.6619 84.8257 89.8439 84.7087 90.0346 84.57V80.436ZM90.0476 85.48C89.8483 85.6187 89.6533 85.7357 89.4626 85.831C89.2806 85.9177 89.0769 85.9957 88.8516 86.065C88.6349 86.1343 88.4226 86.169 88.2146 86.169C87.3999 86.169 86.7586 85.883 86.2906 85.311C85.8313 84.7303 85.6016 83.8853 85.6016 82.776C85.6016 82.1173 85.7056 81.567 85.9136 81.125C86.1303 80.683 86.3989 80.332 86.7196 80.072C87.0403 79.8033 87.3826 79.6127 87.7466 79.5C88.1193 79.3873 88.4616 79.331 88.7736 79.331C88.9296 79.331 89.0943 79.344 89.2676 79.37C89.4409 79.3873 89.6966 79.4393 90.0346 79.526V76.263L91.0746 76.146V84.817C91.0746 84.9383 91.0746 85.0683 91.0746 85.207C91.0833 85.337 91.0919 85.467 91.1006 85.597C91.1179 85.727 91.1353 85.8613 91.1526 86L90.1516 86.104L90.0476 85.48ZM97.7964 85.844C97.5971 85.9047 97.3891 85.9567 97.1724 86C96.9644 86.0433 96.7304 86.0823 96.4704 86.117C96.2191 86.1517 95.9547 86.169 95.6774 86.169C95.2441 86.169 94.8411 86.1083 94.4684 85.987C94.0957 85.8657 93.7707 85.6707 93.4934 85.402C93.2161 85.1333 92.9951 84.7867 92.8304 84.362C92.6744 83.9287 92.5964 83.4 92.5964 82.776C92.5964 82.2127 92.6744 81.7187 92.8304 81.294C92.9864 80.8607 93.1987 80.501 93.4674 80.215C93.7447 79.9203 94.0654 79.6993 94.4294 79.552C94.8021 79.4047 95.2051 79.331 95.6384 79.331C96.0631 79.331 96.4314 79.4133 96.7434 79.578C97.0554 79.7427 97.3111 79.968 97.5104 80.254C97.7184 80.5313 97.8701 80.8607 97.9654 81.242C98.0694 81.6147 98.1214 82.009 98.1214 82.425L97.9264 82.997H93.7274C93.7274 83.2657 93.7621 83.5343 93.8314 83.803C93.9007 84.0717 94.0177 84.3143 94.1824 84.531C94.3557 84.7477 94.5767 84.9253 94.8454 85.064C95.1227 85.194 95.4651 85.259 95.8724 85.259C96.1324 85.259 96.3707 85.246 96.5874 85.22C96.8041 85.1853 96.9904 85.1507 97.1464 85.116C97.3111 85.0727 97.4627 85.025 97.6014 84.973L97.7964 85.844ZM97.0424 82.165C97.0424 82.1043 97.0294 81.97 97.0034 81.762C96.9774 81.554 96.9167 81.3373 96.8214 81.112C96.7261 80.8867 96.5787 80.6873 96.3794 80.514C96.1801 80.332 95.9157 80.241 95.5864 80.241C95.2224 80.241 94.9234 80.319 94.6894 80.475C94.4554 80.6223 94.2691 80.8 94.1304 81.008C93.9917 81.216 93.8964 81.4283 93.8444 81.645C93.7924 81.8617 93.7664 82.035 93.7664 82.165H97.0424ZM101.176 82.568L98.7584 79.461H99.9804L101.891 81.879L103.698 79.461H104.868L102.593 82.529L105.089 86H103.867L101.878 83.231L99.8634 86H98.6934L101.176 82.568ZM105.865 85.233C105.865 85.025 105.939 84.8473 106.086 84.7C106.233 84.544 106.415 84.466 106.632 84.466C106.857 84.466 107.048 84.544 107.204 84.7C107.36 84.8473 107.438 85.025 107.438 85.233C107.438 85.4497 107.36 85.6317 107.204 85.779C107.048 85.9263 106.857 86 106.632 86C106.415 86 106.233 85.9263 106.086 85.779C105.939 85.6317 105.865 85.4497 105.865 85.233ZM109.02 76.263L110.06 76.146V80.28C110.32 80.1067 110.576 79.955 110.827 79.825C111.087 79.695 111.351 79.5823 111.62 79.487C111.889 79.383 112.149 79.331 112.4 79.331C112.755 79.331 113.05 79.3743 113.284 79.461C113.527 79.539 113.722 79.6733 113.869 79.864C114.016 80.0547 114.12 80.306 114.181 80.618C114.25 80.93 114.285 81.32 114.285 81.788V86H113.245V81.905C113.245 81.645 113.241 81.4153 113.232 81.216C113.223 81.008 113.184 80.8347 113.115 80.696C113.054 80.5487 112.955 80.436 112.816 80.358C112.686 80.28 112.5 80.241 112.257 80.241C112.032 80.241 111.789 80.293 111.529 80.397C111.269 80.4923 111.022 80.605 110.788 80.735C110.554 80.865 110.311 81.0167 110.06 81.19V86H109.02V76.263ZM117.638 77.511V79.461H119.523V80.306H117.638V83.777C117.638 84.063 117.642 84.3013 117.651 84.492C117.668 84.6827 117.698 84.8343 117.742 84.947C117.785 85.0597 117.846 85.142 117.924 85.194C118.002 85.2373 118.101 85.259 118.223 85.259C118.552 85.2503 118.933 85.129 119.367 84.895L119.679 85.688C119.393 85.8787 119.124 86.0043 118.873 86.065C118.63 86.1343 118.387 86.169 118.145 86.169C117.573 86.169 117.17 86.0087 116.936 85.688C116.71 85.3587 116.598 84.817 116.598 84.063V80.306H115.402V79.461H116.598V77.641L117.638 77.511ZM120.865 80.644C120.865 80.3493 120.839 79.994 120.787 79.578L121.762 79.448L121.905 80.267C122.139 80.0937 122.369 79.942 122.594 79.812C122.819 79.682 123.062 79.5693 123.322 79.474C123.582 79.3787 123.846 79.331 124.115 79.331C124.548 79.331 124.891 79.409 125.142 79.565C125.393 79.7123 125.58 79.968 125.701 80.332C126.056 80.0807 126.425 79.851 126.806 79.643C127.196 79.435 127.599 79.331 128.015 79.331C128.336 79.331 128.609 79.3743 128.834 79.461C129.059 79.539 129.241 79.6733 129.38 79.864C129.519 80.0547 129.618 80.306 129.679 80.618C129.74 80.93 129.77 81.32 129.77 81.788V86H128.73V81.905C128.73 81.645 128.726 81.4153 128.717 81.216C128.708 81.008 128.678 80.8347 128.626 80.696C128.574 80.5487 128.487 80.436 128.366 80.358C128.253 80.28 128.089 80.241 127.872 80.241C127.673 80.241 127.482 80.2713 127.3 80.332C127.127 80.384 126.945 80.462 126.754 80.566C126.563 80.67 126.269 80.8823 125.87 81.203V86H124.83V81.905C124.83 81.645 124.826 81.4153 124.817 81.216C124.808 81.008 124.778 80.8347 124.726 80.696C124.674 80.5487 124.587 80.436 124.466 80.358C124.353 80.28 124.189 80.241 123.972 80.241C123.747 80.241 123.513 80.2887 123.27 80.384C123.027 80.4793 122.798 80.592 122.581 80.722C122.364 80.852 122.139 81.0037 121.905 81.177V86H120.865V80.644ZM131.605 76.263L132.645 76.146V86H131.605V76.263Z" fill="black"/>
<line x1="40" y1="130.5" x2="65" y2="130.5" stroke="black"/>
<line x1="86" y1="179.5" x2="111" y2="179.5" stroke="black"/>
<path d="M79.576 132.997C79.4027 133.006 79.238 133.014 79.082 133.023C78.926 133.032 78.77 133.045 78.614 133.062C78.4667 133.071 78.3323 133.084 78.211 133.101C77.587 133.179 77.145 133.318 76.885 133.517C76.625 133.708 76.495 133.985 76.495 134.349C76.495 134.652 76.586 134.882 76.768 135.038C76.9587 135.185 77.2057 135.259 77.509 135.259C77.925 135.259 78.2933 135.19 78.614 135.051C78.9433 134.904 79.264 134.713 79.576 134.479V132.997ZM79.563 135.389C79.1557 135.623 78.7743 135.814 78.419 135.961C78.0723 136.1 77.6953 136.169 77.288 136.169C76.7073 136.169 76.2437 136.03 75.897 135.753C75.559 135.467 75.39 134.999 75.39 134.349C75.39 134.011 75.4767 133.716 75.65 133.465C75.8233 133.214 76.0487 133.006 76.326 132.841C76.612 132.668 76.9327 132.533 77.288 132.438C77.6433 132.343 78.0073 132.282 78.38 132.256C78.536 132.239 78.7397 132.226 78.991 132.217C79.2423 132.2 79.4373 132.187 79.576 132.178C79.576 131.875 79.5673 131.606 79.55 131.372C79.5327 131.129 79.4807 130.926 79.394 130.761C79.3073 130.588 79.1773 130.458 79.004 130.371C78.8393 130.284 78.601 130.241 78.289 130.241C78.0377 130.241 77.795 130.258 77.561 130.293C77.327 130.319 77.119 130.349 76.937 130.384C76.7203 130.427 76.521 130.475 76.339 130.527L76.131 129.63C76.3477 129.578 76.5817 129.53 76.833 129.487C77.0497 129.444 77.301 129.409 77.587 129.383C77.873 129.348 78.1807 129.331 78.51 129.331C78.952 129.331 79.3073 129.396 79.576 129.526C79.8533 129.656 80.0657 129.834 80.213 130.059C80.369 130.276 80.473 130.527 80.525 130.813C80.5857 131.09 80.616 131.385 80.616 131.697V134.817C80.616 134.938 80.616 135.068 80.616 135.207C80.6247 135.337 80.6333 135.467 80.642 135.597C80.6593 135.727 80.6767 135.861 80.694 136L79.693 136.104L79.563 135.389ZM82.4357 126.263L83.4757 126.146V130.02C83.6664 129.89 83.8657 129.777 84.0737 129.682C84.247 129.595 84.442 129.517 84.6587 129.448C84.8754 129.37 85.092 129.331 85.3087 129.331C85.664 129.331 85.9977 129.4 86.3097 129.539C86.6304 129.678 86.9077 129.886 87.1417 130.163C87.3844 130.44 87.575 130.791 87.7137 131.216C87.8524 131.641 87.9217 132.143 87.9217 132.724C87.9217 133.365 87.8307 133.907 87.6487 134.349C87.4754 134.782 87.237 135.133 86.9337 135.402C86.639 135.671 86.301 135.866 85.9197 135.987C85.5384 136.108 85.1484 136.169 84.7497 136.169C84.351 136.169 84.0044 136.139 83.7097 136.078C83.4237 136.026 83.1854 135.965 82.9947 135.896C82.7694 135.809 82.583 135.714 82.4357 135.61V126.263ZM83.4757 135.038C83.5884 135.081 83.7097 135.12 83.8397 135.155C83.9697 135.181 84.1084 135.207 84.2557 135.233C84.4117 135.25 84.5764 135.259 84.7497 135.259C85.1484 135.259 85.482 135.203 85.7507 135.09C86.0194 134.977 86.2317 134.813 86.3877 134.596C86.5437 134.379 86.652 134.119 86.7127 133.816C86.782 133.504 86.8167 133.157 86.8167 132.776C86.8167 132.473 86.782 132.169 86.7127 131.866C86.652 131.563 86.5524 131.294 86.4137 131.06C86.275 130.817 86.1017 130.622 85.8937 130.475C85.6944 130.319 85.4604 130.241 85.1917 130.241C85.0097 130.241 84.819 130.28 84.6197 130.358C84.4204 130.427 84.234 130.51 84.0607 130.605C83.8614 130.709 83.6664 130.826 83.4757 130.956V135.038ZM90.1848 132.763C90.1848 133.604 90.3711 134.232 90.7438 134.648C91.1251 135.055 91.6365 135.259 92.2778 135.259C92.9105 135.259 93.4045 135.055 93.7598 134.648C94.1151 134.241 94.2928 133.63 94.2928 132.815C94.2928 131.948 94.1021 131.303 93.7208 130.878C93.3481 130.453 92.8368 130.241 92.1868 130.241C91.5368 130.241 91.0385 130.453 90.6918 130.878C90.3538 131.294 90.1848 131.922 90.1848 132.763ZM89.0798 132.75C89.0798 132.091 89.1838 131.545 89.3918 131.112C89.5998 130.67 89.8641 130.319 90.1848 130.059C90.5055 129.79 90.8478 129.604 91.2118 129.5C91.5845 129.387 91.9355 129.331 92.2648 129.331C92.5768 129.331 92.9148 129.383 93.2788 129.487C93.6515 129.582 93.9938 129.76 94.3058 130.02C94.6178 130.271 94.8778 130.614 95.0858 131.047C95.2938 131.472 95.3978 132.013 95.3978 132.672C95.3978 133.357 95.2895 133.924 95.0728 134.375C94.8648 134.826 94.6005 135.185 94.2798 135.454C93.9591 135.714 93.6125 135.896 93.2398 136C92.8671 136.113 92.5205 136.169 92.1998 136.169C91.8705 136.169 91.5238 136.117 91.1598 136.013C90.7958 135.909 90.4578 135.731 90.1458 135.48C89.8425 135.22 89.5868 134.869 89.3788 134.427C89.1795 133.985 89.0798 133.426 89.0798 132.75ZM100.822 135.285H100.796C100.718 135.346 100.605 135.428 100.458 135.532C100.31 135.627 100.141 135.723 99.9507 135.818C99.76 135.913 99.5477 135.996 99.3137 136.065C99.0883 136.134 98.8587 136.169 98.6247 136.169C98.304 136.169 98.031 136.126 97.8057 136.039C97.5803 135.961 97.3983 135.827 97.2597 135.636C97.121 135.445 97.0213 135.194 96.9607 134.882C96.9 134.57 96.8697 134.18 96.8697 133.712V129.461H97.9097V133.556C97.9097 133.816 97.914 134.05 97.9227 134.258C97.9313 134.466 97.9617 134.644 98.0137 134.791C98.0657 134.938 98.148 135.055 98.2607 135.142C98.382 135.22 98.551 135.259 98.7677 135.259C98.993 135.259 99.227 135.211 99.4697 135.116C99.7123 135.021 99.9333 134.912 100.133 134.791C100.367 134.652 100.596 134.496 100.822 134.323V129.461H101.862V135.155C101.87 135.467 101.892 135.749 101.927 136L100.9 136.104L100.822 135.285ZM105.272 127.511V129.461H107.157V130.306H105.272V133.777C105.272 134.063 105.277 134.301 105.285 134.492C105.303 134.683 105.333 134.834 105.376 134.947C105.42 135.06 105.48 135.142 105.558 135.194C105.636 135.237 105.736 135.259 105.857 135.259C106.187 135.25 106.568 135.129 107.001 134.895L107.313 135.688C107.027 135.879 106.759 136.004 106.507 136.065C106.265 136.134 106.022 136.169 105.779 136.169C105.207 136.169 104.804 136.009 104.57 135.688C104.345 135.359 104.232 134.817 104.232 134.063V130.306H103.036V129.461H104.232V127.641L105.272 127.511ZM112.816 124.95L113.791 125.314L108.916 138.717L107.941 138.353L112.816 124.95Z" fill="black"/>
<path d="M121.936 178.448L122.976 178.331V185H121.936V178.448ZM121.767 176.589C121.767 176.39 121.832 176.225 121.962 176.095C122.101 175.956 122.27 175.887 122.469 175.887C122.677 175.887 122.85 175.956 122.989 176.095C123.136 176.225 123.21 176.39 123.21 176.589C123.21 176.788 123.136 176.957 122.989 177.096C122.85 177.226 122.677 177.291 122.469 177.291C122.27 177.291 122.101 177.226 121.962 177.096C121.832 176.957 121.767 176.788 121.767 176.589ZM124.856 179.761C124.865 179.579 124.843 179.185 124.791 178.578L125.753 178.448L125.896 179.28C126.156 179.107 126.412 178.955 126.663 178.825C126.923 178.695 127.188 178.582 127.456 178.487C127.725 178.383 127.985 178.331 128.236 178.331C128.592 178.331 128.886 178.374 129.12 178.461C129.363 178.539 129.558 178.673 129.705 178.864C129.853 179.055 129.957 179.306 130.017 179.618C130.087 179.93 130.121 180.32 130.121 180.788V185H129.081V180.905C129.081 180.645 129.077 180.415 129.068 180.216C129.06 180.008 129.021 179.835 128.951 179.696C128.891 179.549 128.791 179.436 128.652 179.358C128.522 179.28 128.336 179.241 128.093 179.241C127.868 179.241 127.63 179.293 127.378 179.397C127.127 179.492 126.88 179.605 126.637 179.735C126.395 179.865 126.148 180.017 125.896 180.19V185H124.856V179.761ZM136.035 179.436C135.723 179.349 135.48 179.297 135.307 179.28C135.133 179.254 134.956 179.241 134.774 179.241C134.41 179.241 134.098 179.306 133.838 179.436C133.578 179.566 133.361 179.748 133.188 179.982C133.023 180.207 132.902 180.472 132.824 180.775C132.746 181.07 132.707 181.386 132.707 181.724C132.707 182.027 132.737 182.331 132.798 182.634C132.867 182.937 132.971 183.21 133.11 183.453C133.248 183.696 133.417 183.891 133.617 184.038C133.816 184.185 134.054 184.259 134.332 184.259C134.522 184.259 134.717 184.224 134.917 184.155C135.125 184.086 135.315 184.008 135.489 183.921C135.662 183.826 135.844 183.709 136.035 183.57V179.436ZM136.048 184.48C135.848 184.619 135.653 184.736 135.463 184.831C135.281 184.918 135.077 184.996 134.852 185.065C134.635 185.134 134.423 185.169 134.215 185.169C133.4 185.169 132.759 184.883 132.291 184.311C131.831 183.73 131.602 182.885 131.602 181.776C131.602 181.117 131.706 180.567 131.914 180.125C132.13 179.683 132.399 179.332 132.72 179.072C133.04 178.803 133.383 178.613 133.747 178.5C134.119 178.387 134.462 178.331 134.774 178.331C134.93 178.331 135.094 178.344 135.268 178.37C135.441 178.387 135.697 178.439 136.035 178.526V175.263L137.075 175.146V183.817C137.075 183.938 137.075 184.068 137.075 184.207C137.083 184.337 137.092 184.467 137.101 184.597C137.118 184.727 137.135 184.861 137.153 185L136.152 185.104L136.048 184.48ZM143.796 184.844C143.597 184.905 143.389 184.957 143.172 185C142.964 185.043 142.73 185.082 142.47 185.117C142.219 185.152 141.955 185.169 141.677 185.169C141.244 185.169 140.841 185.108 140.468 184.987C140.096 184.866 139.771 184.671 139.493 184.402C139.216 184.133 138.995 183.787 138.83 183.362C138.674 182.929 138.596 182.4 138.596 181.776C138.596 181.213 138.674 180.719 138.83 180.294C138.986 179.861 139.199 179.501 139.467 179.215C139.745 178.92 140.065 178.699 140.429 178.552C140.802 178.405 141.205 178.331 141.638 178.331C142.063 178.331 142.431 178.413 142.743 178.578C143.055 178.743 143.311 178.968 143.51 179.254C143.718 179.531 143.87 179.861 143.965 180.242C144.069 180.615 144.121 181.009 144.121 181.425L143.926 181.997H139.727C139.727 182.266 139.762 182.534 139.831 182.803C139.901 183.072 140.018 183.314 140.182 183.531C140.356 183.748 140.577 183.925 140.845 184.064C141.123 184.194 141.465 184.259 141.872 184.259C142.132 184.259 142.371 184.246 142.587 184.22C142.804 184.185 142.99 184.151 143.146 184.116C143.311 184.073 143.463 184.025 143.601 183.973L143.796 184.844ZM143.042 181.165C143.042 181.104 143.029 180.97 143.003 180.762C142.977 180.554 142.917 180.337 142.821 180.112C142.726 179.887 142.579 179.687 142.379 179.514C142.18 179.332 141.916 179.241 141.586 179.241C141.222 179.241 140.923 179.319 140.689 179.475C140.455 179.622 140.269 179.8 140.13 180.008C139.992 180.216 139.896 180.428 139.844 180.645C139.792 180.862 139.766 181.035 139.766 181.165H143.042ZM147.176 181.568L144.758 178.461H145.98L147.891 180.879L149.698 178.461H150.868L148.593 181.529L151.089 185H149.867L147.878 182.231L145.863 185H144.693L147.176 181.568ZM151.865 184.233C151.865 184.025 151.939 183.847 152.086 183.7C152.233 183.544 152.415 183.466 152.632 183.466C152.857 183.466 153.048 183.544 153.204 183.7C153.36 183.847 153.438 184.025 153.438 184.233C153.438 184.45 153.36 184.632 153.204 184.779C153.048 184.926 152.857 185 152.632 185C152.415 185 152.233 184.926 152.086 184.779C151.939 184.632 151.865 184.45 151.865 184.233ZM155.02 175.263L156.06 175.146V179.28C156.32 179.107 156.576 178.955 156.827 178.825C157.087 178.695 157.351 178.582 157.62 178.487C157.889 178.383 158.149 178.331 158.4 178.331C158.755 178.331 159.05 178.374 159.284 178.461C159.527 178.539 159.722 178.673 159.869 178.864C160.016 179.055 160.12 179.306 160.181 179.618C160.25 179.93 160.285 180.32 160.285 180.788V185H159.245V180.905C159.245 180.645 159.241 180.415 159.232 180.216C159.223 180.008 159.184 179.835 159.115 179.696C159.054 179.549 158.955 179.436 158.816 179.358C158.686 179.28 158.5 179.241 158.257 179.241C158.032 179.241 157.789 179.293 157.529 179.397C157.269 179.492 157.022 179.605 156.788 179.735C156.554 179.865 156.311 180.017 156.06 180.19V185H155.02V175.263ZM163.638 176.511V178.461H165.523V179.306H163.638V182.777C163.638 183.063 163.642 183.301 163.651 183.492C163.668 183.683 163.698 183.834 163.742 183.947C163.785 184.06 163.846 184.142 163.924 184.194C164.002 184.237 164.101 184.259 164.223 184.259C164.552 184.25 164.933 184.129 165.367 183.895L165.679 184.688C165.393 184.879 165.124 185.004 164.873 185.065C164.63 185.134 164.387 185.169 164.145 185.169C163.573 185.169 163.17 185.009 162.936 184.688C162.71 184.359 162.598 183.817 162.598 183.063V179.306H161.402V178.461H162.598V176.641L163.638 176.511ZM166.865 179.644C166.865 179.349 166.839 178.994 166.787 178.578L167.762 178.448L167.905 179.267C168.139 179.094 168.369 178.942 168.594 178.812C168.819 178.682 169.062 178.569 169.322 178.474C169.582 178.379 169.846 178.331 170.115 178.331C170.548 178.331 170.891 178.409 171.142 178.565C171.393 178.712 171.58 178.968 171.701 179.332C172.056 179.081 172.425 178.851 172.806 178.643C173.196 178.435 173.599 178.331 174.015 178.331C174.336 178.331 174.609 178.374 174.834 178.461C175.059 178.539 175.241 178.673 175.38 178.864C175.519 179.055 175.618 179.306 175.679 179.618C175.74 179.93 175.77 180.32 175.77 180.788V185H174.73V180.905C174.73 180.645 174.726 180.415 174.717 180.216C174.708 180.008 174.678 179.835 174.626 179.696C174.574 179.549 174.487 179.436 174.366 179.358C174.253 179.28 174.089 179.241 173.872 179.241C173.673 179.241 173.482 179.271 173.3 179.332C173.127 179.384 172.945 179.462 172.754 179.566C172.563 179.67 172.269 179.882 171.87 180.203V185H170.83V180.905C170.83 180.645 170.826 180.415 170.817 180.216C170.808 180.008 170.778 179.835 170.726 179.696C170.674 179.549 170.587 179.436 170.466 179.358C170.353 179.28 170.189 179.241 169.972 179.241C169.747 179.241 169.513 179.289 169.27 179.384C169.027 179.479 168.798 179.592 168.581 179.722C168.364 179.852 168.139 180.004 167.905 180.177V185H166.865V179.644ZM177.605 175.263L178.645 175.146V185H177.605V175.263Z" fill="black"/>
<line x1="86" y1="239.5" x2="111" y2="239.5" stroke="black"/>
<path d="M125.576 241.997C125.403 242.006 125.238 242.014 125.082 242.023C124.926 242.032 124.77 242.045 124.614 242.062C124.467 242.071 124.332 242.084 124.211 242.101C123.587 242.179 123.145 242.318 122.885 242.517C122.625 242.708 122.495 242.985 122.495 243.349C122.495 243.652 122.586 243.882 122.768 244.038C122.959 244.185 123.206 244.259 123.509 244.259C123.925 244.259 124.293 244.19 124.614 244.051C124.943 243.904 125.264 243.713 125.576 243.479V241.997ZM125.563 244.389C125.156 244.623 124.774 244.814 124.419 244.961C124.072 245.1 123.695 245.169 123.288 245.169C122.707 245.169 122.244 245.03 121.897 244.753C121.559 244.467 121.39 243.999 121.39 243.349C121.39 243.011 121.477 242.716 121.65 242.465C121.823 242.214 122.049 242.006 122.326 241.841C122.612 241.668 122.933 241.533 123.288 241.438C123.643 241.343 124.007 241.282 124.38 241.256C124.536 241.239 124.74 241.226 124.991 241.217C125.242 241.2 125.437 241.187 125.576 241.178C125.576 240.875 125.567 240.606 125.55 240.372C125.533 240.129 125.481 239.926 125.394 239.761C125.307 239.588 125.177 239.458 125.004 239.371C124.839 239.284 124.601 239.241 124.289 239.241C124.038 239.241 123.795 239.258 123.561 239.293C123.327 239.319 123.119 239.349 122.937 239.384C122.72 239.427 122.521 239.475 122.339 239.527L122.131 238.63C122.348 238.578 122.582 238.53 122.833 238.487C123.05 238.444 123.301 238.409 123.587 238.383C123.873 238.348 124.181 238.331 124.51 238.331C124.952 238.331 125.307 238.396 125.576 238.526C125.853 238.656 126.066 238.834 126.213 239.059C126.369 239.276 126.473 239.527 126.525 239.813C126.586 240.09 126.616 240.385 126.616 240.697V243.817C126.616 243.938 126.616 244.068 126.616 244.207C126.625 244.337 126.633 244.467 126.642 244.597C126.659 244.727 126.677 244.861 126.694 245L125.693 245.104L125.563 244.389ZM132.505 239.41C132.357 239.375 132.154 239.341 131.894 239.306C131.634 239.263 131.369 239.241 131.101 239.241C130.711 239.241 130.39 239.319 130.139 239.475C129.896 239.631 129.705 239.835 129.567 240.086C129.428 240.329 129.333 240.602 129.281 240.905C129.229 241.2 129.203 241.49 129.203 241.776C129.203 242.218 129.259 242.599 129.372 242.92C129.484 243.232 129.632 243.488 129.814 243.687C130.004 243.886 130.221 244.034 130.464 244.129C130.706 244.216 130.962 244.259 131.231 244.259C131.413 244.259 131.586 244.25 131.751 244.233C131.924 244.207 132.08 244.181 132.219 244.155C132.366 244.12 132.505 244.081 132.635 244.038L132.843 244.909C132.661 244.961 132.492 245.004 132.336 245.039C132.18 245.074 131.993 245.104 131.777 245.13C131.569 245.156 131.343 245.169 131.101 245.169C130.624 245.169 130.199 245.108 129.827 244.987C129.454 244.866 129.138 244.671 128.878 244.402C128.626 244.133 128.431 243.782 128.293 243.349C128.163 242.916 128.098 242.387 128.098 241.763C128.098 241.156 128.18 240.636 128.345 240.203C128.518 239.761 128.743 239.406 129.021 239.137C129.298 238.86 129.614 238.656 129.97 238.526C130.334 238.396 130.711 238.331 131.101 238.331C131.309 238.331 131.508 238.344 131.699 238.37C131.898 238.387 132.071 238.409 132.219 238.435C132.392 238.47 132.557 238.504 132.713 238.539L132.505 239.41ZM138.027 239.41C137.88 239.375 137.676 239.341 137.416 239.306C137.156 239.263 136.892 239.241 136.623 239.241C136.233 239.241 135.912 239.319 135.661 239.475C135.418 239.631 135.228 239.835 135.089 240.086C134.95 240.329 134.855 240.602 134.803 240.905C134.751 241.2 134.725 241.49 134.725 241.776C134.725 242.218 134.781 242.599 134.894 242.92C135.007 243.232 135.154 243.488 135.336 243.687C135.527 243.886 135.743 244.034 135.986 244.129C136.229 244.216 136.484 244.259 136.753 244.259C136.935 244.259 137.108 244.25 137.273 244.233C137.446 244.207 137.602 244.181 137.741 244.155C137.888 244.12 138.027 244.081 138.157 244.038L138.365 244.909C138.183 244.961 138.014 245.004 137.858 245.039C137.702 245.074 137.516 245.104 137.299 245.13C137.091 245.156 136.866 245.169 136.623 245.169C136.146 245.169 135.722 245.108 135.349 244.987C134.976 244.866 134.66 244.671 134.4 244.402C134.149 244.133 133.954 243.782 133.815 243.349C133.685 242.916 133.62 242.387 133.62 241.763C133.62 241.156 133.702 240.636 133.867 240.203C134.04 239.761 134.266 239.406 134.543 239.137C134.82 238.86 135.137 238.656 135.492 238.526C135.856 238.396 136.233 238.331 136.623 238.331C136.831 238.331 137.03 238.344 137.221 238.37C137.42 238.387 137.594 238.409 137.741 238.435C137.914 238.47 138.079 238.504 138.235 238.539L138.027 239.41ZM144.33 244.844C144.13 244.905 143.922 244.957 143.706 245C143.498 245.043 143.264 245.082 143.004 245.117C142.752 245.152 142.488 245.169 142.211 245.169C141.777 245.169 141.374 245.108 141.002 244.987C140.629 244.866 140.304 244.671 140.027 244.402C139.749 244.133 139.528 243.787 139.364 243.362C139.208 242.929 139.13 242.4 139.13 241.776C139.13 241.213 139.208 240.719 139.364 240.294C139.52 239.861 139.732 239.501 140.001 239.215C140.278 238.92 140.599 238.699 140.963 238.552C141.335 238.405 141.738 238.331 142.172 238.331C142.596 238.331 142.965 238.413 143.277 238.578C143.589 238.743 143.844 238.968 144.044 239.254C144.252 239.531 144.403 239.861 144.499 240.242C144.603 240.615 144.655 241.009 144.655 241.425L144.46 241.997H140.261C140.261 242.266 140.295 242.534 140.365 242.803C140.434 243.072 140.551 243.314 140.716 243.531C140.889 243.748 141.11 243.925 141.379 244.064C141.656 244.194 141.998 244.259 142.406 244.259C142.666 244.259 142.904 244.246 143.121 244.22C143.337 244.185 143.524 244.151 143.68 244.116C143.844 244.073 143.996 244.025 144.135 243.973L144.33 244.844ZM143.576 241.165C143.576 241.104 143.563 240.97 143.537 240.762C143.511 240.554 143.45 240.337 143.355 240.112C143.259 239.887 143.112 239.687 142.913 239.514C142.713 239.332 142.449 239.241 142.12 239.241C141.756 239.241 141.457 239.319 141.223 239.475C140.989 239.622 140.802 239.8 140.664 240.008C140.525 240.216 140.43 240.428 140.378 240.645C140.326 240.862 140.3 241.035 140.3 241.165H143.576ZM146.07 235.263L147.11 235.146V245H146.07V235.263ZM152.617 241.997C152.444 242.006 152.279 242.014 152.123 242.023C151.967 242.032 151.811 242.045 151.655 242.062C151.508 242.071 151.373 242.084 151.252 242.101C150.628 242.179 150.186 242.318 149.926 242.517C149.666 242.708 149.536 242.985 149.536 243.349C149.536 243.652 149.627 243.882 149.809 244.038C150 244.185 150.247 244.259 150.55 244.259C150.966 244.259 151.334 244.19 151.655 244.051C151.984 243.904 152.305 243.713 152.617 243.479V241.997ZM152.604 244.389C152.197 244.623 151.815 244.814 151.46 244.961C151.113 245.1 150.736 245.169 150.329 245.169C149.748 245.169 149.285 245.03 148.938 244.753C148.6 244.467 148.431 243.999 148.431 243.349C148.431 243.011 148.518 242.716 148.691 242.465C148.864 242.214 149.09 242.006 149.367 241.841C149.653 241.668 149.974 241.533 150.329 241.438C150.684 241.343 151.048 241.282 151.421 241.256C151.577 241.239 151.781 241.226 152.032 241.217C152.283 241.2 152.478 241.187 152.617 241.178C152.617 240.875 152.608 240.606 152.591 240.372C152.574 240.129 152.522 239.926 152.435 239.761C152.348 239.588 152.218 239.458 152.045 239.371C151.88 239.284 151.642 239.241 151.33 239.241C151.079 239.241 150.836 239.258 150.602 239.293C150.368 239.319 150.16 239.349 149.978 239.384C149.761 239.427 149.562 239.475 149.38 239.527L149.172 238.63C149.389 238.578 149.623 238.53 149.874 238.487C150.091 238.444 150.342 238.409 150.628 238.383C150.914 238.348 151.222 238.331 151.551 238.331C151.993 238.331 152.348 238.396 152.617 238.526C152.894 238.656 153.107 238.834 153.254 239.059C153.41 239.276 153.514 239.527 153.566 239.813C153.627 240.09 153.657 240.385 153.657 240.697V243.817C153.657 243.938 153.657 244.068 153.657 244.207C153.666 244.337 153.674 244.467 153.683 244.597C153.7 244.727 153.718 244.861 153.735 245L152.734 245.104L152.604 244.389ZM155.217 244.233C155.217 244.025 155.29 243.847 155.438 243.7C155.585 243.544 155.767 243.466 155.984 243.466C156.209 243.466 156.4 243.544 156.556 243.7C156.712 243.847 156.79 244.025 156.79 244.233C156.79 244.45 156.712 244.632 156.556 244.779C156.4 244.926 156.209 245 155.984 245C155.767 245 155.585 244.926 155.438 244.779C155.29 244.632 155.217 244.45 155.217 244.233ZM158.372 235.263L159.412 235.146V239.28C159.672 239.107 159.927 238.955 160.179 238.825C160.439 238.695 160.703 238.582 160.972 238.487C161.24 238.383 161.5 238.331 161.752 238.331C162.107 238.331 162.402 238.374 162.636 238.461C162.878 238.539 163.073 238.673 163.221 238.864C163.368 239.055 163.472 239.306 163.533 239.618C163.602 239.93 163.637 240.32 163.637 240.788V245H162.597V240.905C162.597 240.645 162.592 240.415 162.584 240.216C162.575 240.008 162.536 239.835 162.467 239.696C162.406 239.549 162.306 239.436 162.168 239.358C162.038 239.28 161.851 239.241 161.609 239.241C161.383 239.241 161.141 239.293 160.881 239.397C160.621 239.492 160.374 239.605 160.14 239.735C159.906 239.865 159.663 240.017 159.412 240.19V245H158.372V235.263ZM166.989 236.511V238.461H168.874V239.306H166.989V242.777C166.989 243.063 166.994 243.301 167.002 243.492C167.02 243.683 167.05 243.834 167.093 243.947C167.137 244.06 167.197 244.142 167.275 244.194C167.353 244.237 167.453 244.259 167.574 244.259C167.904 244.25 168.285 244.129 168.718 243.895L169.03 244.688C168.744 244.879 168.476 245.004 168.224 245.065C167.982 245.134 167.739 245.169 167.496 245.169C166.924 245.169 166.521 245.009 166.287 244.688C166.062 244.359 165.949 243.817 165.949 243.063V239.306H164.753V238.461H165.949V236.641L166.989 236.511ZM170.217 239.644C170.217 239.349 170.191 238.994 170.139 238.578L171.114 238.448L171.257 239.267C171.491 239.094 171.72 238.942 171.946 238.812C172.171 238.682 172.414 238.569 172.674 238.474C172.934 238.379 173.198 238.331 173.467 238.331C173.9 238.331 174.242 238.409 174.494 238.565C174.745 238.712 174.931 238.968 175.053 239.332C175.408 239.081 175.776 238.851 176.158 238.643C176.548 238.435 176.951 238.331 177.367 238.331C177.687 238.331 177.96 238.374 178.186 238.461C178.411 238.539 178.593 238.673 178.732 238.864C178.87 239.055 178.97 239.306 179.031 239.618C179.091 239.93 179.122 240.32 179.122 240.788V245H178.082V240.905C178.082 240.645 178.077 240.415 178.069 240.216C178.06 240.008 178.03 239.835 177.978 239.696C177.926 239.549 177.839 239.436 177.718 239.358C177.605 239.28 177.44 239.241 177.224 239.241C177.024 239.241 176.834 239.271 176.652 239.332C176.478 239.384 176.296 239.462 176.106 239.566C175.915 239.67 175.62 239.882 175.222 240.203V245H174.182V240.905C174.182 240.645 174.177 240.415 174.169 240.216C174.16 240.008 174.13 239.835 174.078 239.696C174.026 239.549 173.939 239.436 173.818 239.358C173.705 239.28 173.54 239.241 173.324 239.241C173.098 239.241 172.864 239.289 172.622 239.384C172.379 239.479 172.149 239.592 171.933 239.722C171.716 239.852 171.491 240.004 171.257 240.177V245H170.217V239.644ZM180.957 235.263L181.997 235.146V245H180.957V235.263Z" fill="black"/>
<line x1="86.5" y1="150" x2="86.5" y2="240" stroke="black"/>
<path d="M225.105 176.21C224.665 176.12 224.195 176.035 223.695 175.955C223.205 175.875 222.635 175.825 221.985 175.805C221.325 175.815 220.755 175.915 220.275 176.105C219.795 176.295 219.4 176.57 219.09 176.93C218.79 177.28 218.565 177.7 218.415 178.19C218.265 178.68 218.19 179.22 218.19 179.81C218.19 180.57 218.285 181.22 218.475 181.76C218.675 182.3 218.945 182.745 219.285 183.095C219.635 183.435 220.04 183.685 220.5 183.845C220.96 184.005 221.455 184.085 221.985 184.085C222.325 184.085 222.63 184.065 222.9 184.025C223.18 183.985 223.42 183.94 223.62 183.89C223.83 183.83 224.02 183.765 224.19 183.695V180.95H222.315V179.825H225.465V184.31C225.115 184.54 224.63 184.75 224.01 184.94C223.4 185.12 222.725 185.205 221.985 185.195C221.305 185.195 220.65 185.115 220.02 184.955C219.4 184.795 218.845 184.515 218.355 184.115C217.875 183.705 217.49 183.15 217.2 182.45C216.91 181.75 216.765 180.865 216.765 179.795C216.765 178.925 216.9 178.17 217.17 177.53C217.44 176.88 217.805 176.345 218.265 175.925C218.735 175.495 219.275 175.175 219.885 174.965C220.505 174.745 221.16 174.635 221.85 174.635C222.3 174.635 222.735 174.66 223.155 174.71C223.575 174.75 223.96 174.8 224.31 174.86C224.66 174.91 224.995 174.975 225.315 175.055L225.105 176.21ZM227.706 174.77H233.976V175.925H228.966V179.195H233.616V180.32H228.966V183.845H234.126V185H227.706V174.77ZM238.318 175.94H235.108V174.77H242.788V175.94H239.578V185H238.318V175.94Z" fill="black"/>
<path d="M255.971 172.25L257.096 172.67L251.471 188.135L250.346 187.715L255.971 172.25ZM262.222 181.535C262.022 181.545 261.832 181.555 261.652 181.565C261.472 181.575 261.292 181.59 261.112 181.61C260.942 181.62 260.787 181.635 260.647 181.655C259.927 181.745 259.417 181.905 259.117 182.135C258.817 182.355 258.667 182.675 258.667 183.095C258.667 183.445 258.772 183.71 258.982 183.89C259.202 184.06 259.487 184.145 259.837 184.145C260.317 184.145 260.742 184.065 261.112 183.905C261.492 183.735 261.862 183.515 262.222 183.245V181.535ZM262.207 184.295C261.737 184.565 261.297 184.785 260.887 184.955C260.487 185.115 260.052 185.195 259.582 185.195C258.912 185.195 258.377 185.035 257.977 184.715C257.587 184.385 257.392 183.845 257.392 183.095C257.392 182.705 257.492 182.365 257.692 182.075C257.892 181.785 258.152 181.545 258.472 181.355C258.802 181.155 259.172 181 259.582 180.89C259.992 180.78 260.412 180.71 260.842 180.68C261.022 180.66 261.257 180.645 261.547 180.635C261.837 180.615 262.062 180.6 262.222 180.59C262.222 180.24 262.212 179.93 262.192 179.66C262.172 179.38 262.112 179.145 262.012 178.955C261.912 178.755 261.762 178.605 261.562 178.505C261.372 178.405 261.097 178.355 260.737 178.355C260.447 178.355 260.167 178.375 259.897 178.415C259.627 178.445 259.387 178.48 259.177 178.52C258.927 178.57 258.697 178.625 258.487 178.685L258.247 177.65C258.497 177.59 258.767 177.535 259.057 177.485C259.307 177.435 259.597 177.395 259.927 177.365C260.257 177.325 260.612 177.305 260.992 177.305C261.502 177.305 261.912 177.38 262.222 177.53C262.542 177.68 262.787 177.885 262.957 178.145C263.137 178.395 263.257 178.685 263.317 179.015C263.387 179.335 263.422 179.675 263.422 180.035V183.635C263.422 183.775 263.422 183.925 263.422 184.085C263.432 184.235 263.442 184.385 263.452 184.535C263.472 184.685 263.492 184.84 263.512 185L262.357 185.12L262.207 184.295ZM265.522 173.765L266.722 173.63V178.1C266.942 177.95 267.172 177.82 267.412 177.71C267.612 177.61 267.837 177.52 268.087 177.44C268.337 177.35 268.587 177.305 268.837 177.305C269.247 177.305 269.632 177.385 269.992 177.545C270.362 177.705 270.682 177.945 270.952 178.265C271.232 178.585 271.452 178.99 271.612 179.48C271.772 179.97 271.852 180.55 271.852 181.22C271.852 181.96 271.747 182.585 271.537 183.095C271.337 183.595 271.062 184 270.712 184.31C270.372 184.62 269.982 184.845 269.542 184.985C269.102 185.125 268.652 185.195 268.192 185.195C267.732 185.195 267.332 185.16 266.992 185.09C266.662 185.03 266.387 184.96 266.167 184.88C265.907 184.78 265.692 184.67 265.522 184.55V173.765ZM266.722 183.89C266.852 183.94 266.992 183.985 267.142 184.025C267.292 184.055 267.452 184.085 267.622 184.115C267.802 184.135 267.992 184.145 268.192 184.145C268.652 184.145 269.037 184.08 269.347 183.95C269.657 183.82 269.902 183.63 270.082 183.38C270.262 183.13 270.387 182.83 270.457 182.48C270.537 182.12 270.577 181.72 270.577 181.28C270.577 180.93 270.537 180.58 270.457 180.23C270.387 179.88 270.272 179.57 270.112 179.3C269.952 179.02 269.752 178.795 269.512 178.625C269.282 178.445 269.012 178.355 268.702 178.355C268.492 178.355 268.272 178.4 268.042 178.49C267.812 178.57 267.597 178.665 267.397 178.775C267.167 178.895 266.942 179.03 266.722 179.18V183.89ZM274.463 181.265C274.463 182.235 274.678 182.96 275.108 183.44C275.548 183.91 276.138 184.145 276.878 184.145C277.608 184.145 278.178 183.91 278.588 183.44C278.998 182.97 279.203 182.265 279.203 181.325C279.203 180.325 278.983 179.58 278.543 179.09C278.113 178.6 277.523 178.355 276.773 178.355C276.023 178.355 275.448 178.6 275.048 179.09C274.658 179.57 274.463 180.295 274.463 181.265ZM273.188 181.25C273.188 180.49 273.308 179.86 273.548 179.36C273.788 178.85 274.093 178.445 274.463 178.145C274.833 177.835 275.228 177.62 275.648 177.5C276.078 177.37 276.483 177.305 276.863 177.305C277.223 177.305 277.613 177.365 278.033 177.485C278.463 177.595 278.858 177.8 279.218 178.1C279.578 178.39 279.878 178.785 280.118 179.285C280.358 179.775 280.478 180.4 280.478 181.16C280.478 181.95 280.353 182.605 280.103 183.125C279.863 183.645 279.558 184.06 279.188 184.37C278.818 184.67 278.418 184.88 277.988 185C277.558 185.13 277.158 185.195 276.788 185.195C276.408 185.195 276.008 185.135 275.588 185.015C275.168 184.895 274.778 184.69 274.418 184.4C274.068 184.1 273.773 183.695 273.533 183.185C273.303 182.675 273.188 182.03 273.188 181.25ZM286.737 184.175H286.707C286.617 184.245 286.487 184.34 286.317 184.46C286.147 184.57 285.952 184.68 285.732 184.79C285.512 184.9 285.267 184.995 284.997 185.075C284.737 185.155 284.472 185.195 284.202 185.195C283.832 185.195 283.517 185.145 283.257 185.045C282.997 184.955 282.787 184.8 282.627 184.58C282.467 184.36 282.352 184.07 282.282 183.71C282.212 183.35 282.177 182.9 282.177 182.36V177.455H283.377V182.18C283.377 182.48 283.382 182.75 283.392 182.99C283.402 183.23 283.437 183.435 283.497 183.605C283.557 183.775 283.652 183.91 283.782 184.01C283.922 184.1 284.117 184.145 284.367 184.145C284.627 184.145 284.897 184.09 285.177 183.98C285.457 183.87 285.712 183.745 285.942 183.605C286.212 183.445 286.477 183.265 286.737 183.065V177.455H287.937V184.025C287.947 184.385 287.972 184.71 288.012 185L286.827 185.12L286.737 184.175ZM291.872 175.205V177.455H294.047V178.43H291.872V182.435C291.872 182.765 291.877 183.04 291.887 183.26C291.907 183.48 291.942 183.655 291.992 183.785C292.042 183.915 292.112 184.01 292.202 184.07C292.292 184.12 292.407 184.145 292.547 184.145C292.927 184.135 293.367 183.995 293.867 183.725L294.227 184.64C293.897 184.86 293.587 185.005 293.297 185.075C293.017 185.155 292.737 185.195 292.457 185.195C291.797 185.195 291.332 185.01 291.062 184.64C290.802 184.26 290.672 183.635 290.672 182.765V178.43H289.292V177.455H290.672V175.355L291.872 175.205ZM300.576 172.25L301.701 172.67L296.076 188.135L294.951 187.715L300.576 172.25Z" fill="#B82B22"/>
<path d="M225.105 77.21C224.665 77.12 224.195 77.035 223.695 76.955C223.205 76.875 222.635 76.825 221.985 76.805C221.325 76.815 220.755 76.915 220.275 77.105C219.795 77.295 219.4 77.57 219.09 77.93C218.79 78.28 218.565 78.7 218.415 79.19C218.265 79.68 218.19 80.22 218.19 80.81C218.19 81.57 218.285 82.22 218.475 82.76C218.675 83.3 218.945 83.745 219.285 84.095C219.635 84.435 220.04 84.685 220.5 84.845C220.96 85.005 221.455 85.085 221.985 85.085C222.325 85.085 222.63 85.065 222.9 85.025C223.18 84.985 223.42 84.94 223.62 84.89C223.83 84.83 224.02 84.765 224.19 84.695V81.95H222.315V80.825H225.465V85.31C225.115 85.54 224.63 85.75 224.01 85.94C223.4 86.12 222.725 86.205 221.985 86.195C221.305 86.195 220.65 86.115 220.02 85.955C219.4 85.795 218.845 85.515 218.355 85.115C217.875 84.705 217.49 84.15 217.2 83.45C216.91 82.75 216.765 81.865 216.765 80.795C216.765 79.925 216.9 79.17 217.17 78.53C217.44 77.88 217.805 77.345 218.265 76.925C218.735 76.495 219.275 76.175 219.885 75.965C220.505 75.745 221.16 75.635 221.85 75.635C222.3 75.635 222.735 75.66 223.155 75.71C223.575 75.75 223.96 75.8 224.31 75.86C224.66 75.91 224.995 75.975 225.315 76.055L225.105 77.21ZM227.706 75.77H233.976V76.925H228.966V80.195H233.616V81.32H228.966V84.845H234.126V86H227.706V75.77ZM238.318 76.94H235.108V75.77H242.788V76.94H239.578V86H238.318V76.94Z" fill="black"/>
<path d="M255.971 73.25L257.096 73.67L251.471 89.135L250.346 88.715L255.971 73.25Z" fill="#B82B22"/>
<path d="M225.105 236.21C224.665 236.12 224.195 236.035 223.695 235.955C223.205 235.875 222.635 235.825 221.985 235.805C221.325 235.815 220.755 235.915 220.275 236.105C219.795 236.295 219.4 236.57 219.09 236.93C218.79 237.28 218.565 237.7 218.415 238.19C218.265 238.68 218.19 239.22 218.19 239.81C218.19 240.57 218.285 241.22 218.475 241.76C218.675 242.3 218.945 242.745 219.285 243.095C219.635 243.435 220.04 243.685 220.5 243.845C220.96 244.005 221.455 244.085 221.985 244.085C222.325 244.085 222.63 244.065 222.9 244.025C223.18 243.985 223.42 243.94 223.62 243.89C223.83 243.83 224.02 243.765 224.19 243.695V240.95H222.315V239.825H225.465V244.31C225.115 244.54 224.63 244.75 224.01 244.94C223.4 245.12 222.725 245.205 221.985 245.195C221.305 245.195 220.65 245.115 220.02 244.955C219.4 244.795 218.845 244.515 218.355 244.115C217.875 243.705 217.49 243.15 217.2 242.45C216.91 241.75 216.765 240.865 216.765 239.795C216.765 238.925 216.9 238.17 217.17 237.53C217.44 236.88 217.805 236.345 218.265 235.925C218.735 235.495 219.275 235.175 219.885 234.965C220.505 234.745 221.16 234.635 221.85 234.635C222.3 234.635 222.735 234.66 223.155 234.71C223.575 234.75 223.96 234.8 224.31 234.86C224.66 234.91 224.995 234.975 225.315 235.055L225.105 236.21ZM227.706 234.77H233.976V235.925H228.966V239.195H233.616V240.32H228.966V243.845H234.126V245H227.706V234.77ZM238.318 235.94H235.108V234.77H242.788V235.94H239.578V245H238.318V235.94Z" fill="black"/>
<path d="M255.971 232.25L257.096 232.67L251.471 248.135L250.346 247.715L255.971 232.25ZM262.222 241.535C262.022 241.545 261.832 241.555 261.652 241.565C261.472 241.575 261.292 241.59 261.112 241.61C260.942 241.62 260.787 241.635 260.647 241.655C259.927 241.745 259.417 241.905 259.117 242.135C258.817 242.355 258.667 242.675 258.667 243.095C258.667 243.445 258.772 243.71 258.982 243.89C259.202 244.06 259.487 244.145 259.837 244.145C260.317 244.145 260.742 244.065 261.112 243.905C261.492 243.735 261.862 243.515 262.222 243.245V241.535ZM262.207 244.295C261.737 244.565 261.297 244.785 260.887 244.955C260.487 245.115 260.052 245.195 259.582 245.195C258.912 245.195 258.377 245.035 257.977 244.715C257.587 244.385 257.392 243.845 257.392 243.095C257.392 242.705 257.492 242.365 257.692 242.075C257.892 241.785 258.152 241.545 258.472 241.355C258.802 241.155 259.172 241 259.582 240.89C259.992 240.78 260.412 240.71 260.842 240.68C261.022 240.66 261.257 240.645 261.547 240.635C261.837 240.615 262.062 240.6 262.222 240.59C262.222 240.24 262.212 239.93 262.192 239.66C262.172 239.38 262.112 239.145 262.012 238.955C261.912 238.755 261.762 238.605 261.562 238.505C261.372 238.405 261.097 238.355 260.737 238.355C260.447 238.355 260.167 238.375 259.897 238.415C259.627 238.445 259.387 238.48 259.177 238.52C258.927 238.57 258.697 238.625 258.487 238.685L258.247 237.65C258.497 237.59 258.767 237.535 259.057 237.485C259.307 237.435 259.597 237.395 259.927 237.365C260.257 237.325 260.612 237.305 260.992 237.305C261.502 237.305 261.912 237.38 262.222 237.53C262.542 237.68 262.787 237.885 262.957 238.145C263.137 238.395 263.257 238.685 263.317 239.015C263.387 239.335 263.422 239.675 263.422 240.035V243.635C263.422 243.775 263.422 243.925 263.422 244.085C263.432 244.235 263.442 244.385 263.452 244.535C263.472 244.685 263.492 244.84 263.512 245L262.357 245.12L262.207 244.295ZM265.522 233.765L266.722 233.63V238.1C266.942 237.95 267.172 237.82 267.412 237.71C267.612 237.61 267.837 237.52 268.087 237.44C268.337 237.35 268.587 237.305 268.837 237.305C269.247 237.305 269.632 237.385 269.992 237.545C270.362 237.705 270.682 237.945 270.952 238.265C271.232 238.585 271.452 238.99 271.612 239.48C271.772 239.97 271.852 240.55 271.852 241.22C271.852 241.96 271.747 242.585 271.537 243.095C271.337 243.595 271.062 244 270.712 244.31C270.372 244.62 269.982 244.845 269.542 244.985C269.102 245.125 268.652 245.195 268.192 245.195C267.732 245.195 267.332 245.16 266.992 245.09C266.662 245.03 266.387 244.96 266.167 244.88C265.907 244.78 265.692 244.67 265.522 244.55V233.765ZM266.722 243.89C266.852 243.94 266.992 243.985 267.142 244.025C267.292 244.055 267.452 244.085 267.622 244.115C267.802 244.135 267.992 244.145 268.192 244.145C268.652 244.145 269.037 244.08 269.347 243.95C269.657 243.82 269.902 243.63 270.082 243.38C270.262 243.13 270.387 242.83 270.457 242.48C270.537 242.12 270.577 241.72 270.577 241.28C270.577 240.93 270.537 240.58 270.457 240.23C270.387 239.88 270.272 239.57 270.112 239.3C269.952 239.02 269.752 238.795 269.512 238.625C269.282 238.445 269.012 238.355 268.702 238.355C268.492 238.355 268.272 238.4 268.042 238.49C267.812 238.57 267.597 238.665 267.397 238.775C267.167 238.895 266.942 239.03 266.722 239.18V243.89ZM274.463 241.265C274.463 242.235 274.678 242.96 275.108 243.44C275.548 243.91 276.138 244.145 276.878 244.145C277.608 244.145 278.178 243.91 278.588 243.44C278.998 242.97 279.203 242.265 279.203 241.325C279.203 240.325 278.983 239.58 278.543 239.09C278.113 238.6 277.523 238.355 276.773 238.355C276.023 238.355 275.448 238.6 275.048 239.09C274.658 239.57 274.463 240.295 274.463 241.265ZM273.188 241.25C273.188 240.49 273.308 239.86 273.548 239.36C273.788 238.85 274.093 238.445 274.463 238.145C274.833 237.835 275.228 237.62 275.648 237.5C276.078 237.37 276.483 237.305 276.863 237.305C277.223 237.305 277.613 237.365 278.033 237.485C278.463 237.595 278.858 237.8 279.218 238.1C279.578 238.39 279.878 238.785 280.118 239.285C280.358 239.775 280.478 240.4 280.478 241.16C280.478 241.95 280.353 242.605 280.103 243.125C279.863 243.645 279.558 244.06 279.188 244.37C278.818 244.67 278.418 244.88 277.988 245C277.558 245.13 277.158 245.195 276.788 245.195C276.408 245.195 276.008 245.135 275.588 245.015C275.168 244.895 274.778 244.69 274.418 244.4C274.068 244.1 273.773 243.695 273.533 243.185C273.303 242.675 273.188 242.03 273.188 241.25ZM286.737 244.175H286.707C286.617 244.245 286.487 244.34 286.317 244.46C286.147 244.57 285.952 244.68 285.732 244.79C285.512 244.9 285.267 244.995 284.997 245.075C284.737 245.155 284.472 245.195 284.202 245.195C283.832 245.195 283.517 245.145 283.257 245.045C282.997 244.955 282.787 244.8 282.627 244.58C282.467 244.36 282.352 244.07 282.282 243.71C282.212 243.35 282.177 242.9 282.177 242.36V237.455H283.377V242.18C283.377 242.48 283.382 242.75 283.392 242.99C283.402 243.23 283.437 243.435 283.497 243.605C283.557 243.775 283.652 243.91 283.782 244.01C283.922 244.1 284.117 244.145 284.367 244.145C284.627 244.145 284.897 244.09 285.177 243.98C285.457 243.87 285.712 243.745 285.942 243.605C286.212 243.445 286.477 243.265 286.737 243.065V237.455H287.937V244.025C287.947 244.385 287.972 244.71 288.012 245L286.827 245.12L286.737 244.175ZM291.872 235.205V237.455H294.047V238.43H291.872V242.435C291.872 242.765 291.877 243.04 291.887 243.26C291.907 243.48 291.942 243.655 291.992 243.785C292.042 243.915 292.112 244.01 292.202 244.07C292.292 244.12 292.407 244.145 292.547 244.145C292.927 244.135 293.367 243.995 293.867 243.725L294.227 244.64C293.897 244.86 293.587 245.005 293.297 245.075C293.017 245.155 292.737 245.195 292.457 245.195C291.797 245.195 291.332 245.01 291.062 244.64C290.802 244.26 290.672 243.635 290.672 242.765V238.43H289.292V237.455H290.672V235.355L291.872 235.205ZM300.576 232.25L301.701 232.67L296.076 248.135L294.951 247.715L300.576 232.25ZM306.827 241.535C306.627 241.545 306.437 241.555 306.257 241.565C306.077 241.575 305.897 241.59 305.717 241.61C305.547 241.62 305.392 241.635 305.252 241.655C304.532 241.745 304.022 241.905 303.722 242.135C303.422 242.355 303.272 242.675 303.272 243.095C303.272 243.445 303.377 243.71 303.587 243.89C303.807 244.06 304.092 244.145 304.442 244.145C304.922 244.145 305.347 244.065 305.717 243.905C306.097 243.735 306.467 243.515 306.827 243.245V241.535ZM306.812 244.295C306.342 244.565 305.902 244.785 305.492 244.955C305.092 245.115 304.657 245.195 304.187 245.195C303.517 245.195 302.982 245.035 302.582 244.715C302.192 244.385 301.997 243.845 301.997 243.095C301.997 242.705 302.097 242.365 302.297 242.075C302.497 241.785 302.757 241.545 303.077 241.355C303.407 241.155 303.777 241 304.187 240.89C304.597 240.78 305.017 240.71 305.447 240.68C305.627 240.66 305.862 240.645 306.152 240.635C306.442 240.615 306.667 240.6 306.827 240.59C306.827 240.24 306.817 239.93 306.797 239.66C306.777 239.38 306.717 239.145 306.617 238.955C306.517 238.755 306.367 238.605 306.167 238.505C305.977 238.405 305.702 238.355 305.342 238.355C305.052 238.355 304.772 238.375 304.502 238.415C304.232 238.445 303.992 238.48 303.782 238.52C303.532 238.57 303.302 238.625 303.092 238.685L302.852 237.65C303.102 237.59 303.372 237.535 303.662 237.485C303.912 237.435 304.202 237.395 304.532 237.365C304.862 237.325 305.217 237.305 305.597 237.305C306.107 237.305 306.517 237.38 306.827 237.53C307.147 237.68 307.392 237.885 307.562 238.145C307.742 238.395 307.862 238.685 307.922 239.015C307.992 239.335 308.027 239.675 308.027 240.035V243.635C308.027 243.775 308.027 243.925 308.027 244.085C308.037 244.235 308.047 244.385 308.057 244.535C308.077 244.685 308.097 244.84 308.117 245L306.962 245.12L306.812 244.295ZM314.822 238.55C314.652 238.51 314.417 238.47 314.117 238.43C313.817 238.38 313.512 238.355 313.202 238.355C312.752 238.355 312.382 238.445 312.092 238.625C311.812 238.805 311.592 239.04 311.432 239.33C311.272 239.61 311.162 239.925 311.102 240.275C311.042 240.615 311.012 240.95 311.012 241.28C311.012 241.79 311.077 242.23 311.207 242.6C311.337 242.96 311.507 243.255 311.717 243.485C311.937 243.715 312.187 243.885 312.467 243.995C312.747 244.095 313.042 244.145 313.352 244.145C313.562 244.145 313.762 244.135 313.952 244.115C314.152 244.085 314.332 244.055 314.492 244.025C314.662 243.985 314.822 243.94 314.972 243.89L315.212 244.895C315.002 244.955 314.807 245.005 314.627 245.045C314.447 245.085 314.232 245.12 313.982 245.15C313.742 245.18 313.482 245.195 313.202 245.195C312.652 245.195 312.162 245.125 311.732 244.985C311.302 244.845 310.937 244.62 310.637 244.31C310.347 244 310.122 243.595 309.962 243.095C309.812 242.595 309.737 241.985 309.737 241.265C309.737 240.565 309.832 239.965 310.022 239.465C310.222 238.955 310.482 238.545 310.802 238.235C311.122 237.915 311.487 237.68 311.897 237.53C312.317 237.38 312.752 237.305 313.202 237.305C313.442 237.305 313.672 237.32 313.892 237.35C314.122 237.37 314.322 237.395 314.492 237.425C314.692 237.465 314.882 237.505 315.062 237.545L314.822 238.55ZM321.194 238.55C321.024 238.51 320.789 238.47 320.489 238.43C320.189 238.38 319.884 238.355 319.574 238.355C319.124 238.355 318.754 238.445 318.464 238.625C318.184 238.805 317.964 239.04 317.804 239.33C317.644 239.61 317.534 239.925 317.474 240.275C317.414 240.615 317.384 240.95 317.384 241.28C317.384 241.79 317.449 242.23 317.579 242.6C317.709 242.96 317.879 243.255 318.089 243.485C318.309 243.715 318.559 243.885 318.839 243.995C319.119 244.095 319.414 244.145 319.724 244.145C319.934 244.145 320.134 244.135 320.324 244.115C320.524 244.085 320.704 244.055 320.864 244.025C321.034 243.985 321.194 243.94 321.344 243.89L321.584 244.895C321.374 244.955 321.179 245.005 320.999 245.045C320.819 245.085 320.604 245.12 320.354 245.15C320.114 245.18 319.854 245.195 319.574 245.195C319.024 245.195 318.534 245.125 318.104 244.985C317.674 244.845 317.309 244.62 317.009 244.31C316.719 244 316.494 243.595 316.334 243.095C316.184 242.595 316.109 241.985 316.109 241.265C316.109 240.565 316.204 239.965 316.394 239.465C316.594 238.955 316.854 238.545 317.174 238.235C317.494 237.915 317.859 237.68 318.269 237.53C318.689 237.38 319.124 237.305 319.574 237.305C319.814 237.305 320.044 237.32 320.264 237.35C320.494 237.37 320.694 237.395 320.864 237.425C321.064 237.465 321.254 237.505 321.434 237.545L321.194 238.55ZM328.466 244.82C328.236 244.89 327.996 244.95 327.746 245C327.506 245.05 327.236 245.095 326.936 245.135C326.646 245.175 326.341 245.195 326.021 245.195C325.521 245.195 325.056 245.125 324.626 244.985C324.196 244.845 323.821 244.62 323.501 244.31C323.181 244 322.926 243.6 322.736 243.11C322.556 242.61 322.466 242 322.466 241.28C322.466 240.63 322.556 240.06 322.736 239.57C322.916 239.07 323.161 238.655 323.471 238.325C323.791 237.985 324.161 237.73 324.581 237.56C325.011 237.39 325.476 237.305 325.976 237.305C326.466 237.305 326.891 237.4 327.251 237.59C327.611 237.78 327.906 238.04 328.136 238.37C328.376 238.69 328.551 239.07 328.661 239.51C328.781 239.94 328.841 240.395 328.841 240.875L328.616 241.535H323.771C323.771 241.845 323.811 242.155 323.891 242.465C323.971 242.775 324.106 243.055 324.296 243.305C324.496 243.555 324.751 243.76 325.061 243.92C325.381 244.07 325.776 244.145 326.246 244.145C326.546 244.145 326.821 244.13 327.071 244.1C327.321 244.06 327.536 244.02 327.716 243.98C327.906 243.93 328.081 243.875 328.241 243.815L328.466 244.82ZM327.596 240.575C327.596 240.505 327.581 240.35 327.551 240.11C327.521 239.87 327.451 239.62 327.341 239.36C327.231 239.1 327.061 238.87 326.831 238.67C326.601 238.46 326.296 238.355 325.916 238.355C325.496 238.355 325.151 238.445 324.881 238.625C324.611 238.795 324.396 239 324.236 239.24C324.076 239.48 323.966 239.725 323.906 239.975C323.846 240.225 323.816 240.425 323.816 240.575H327.596ZM330.474 233.765L331.674 233.63V245H330.474V233.765ZM338.028 241.535C337.828 241.545 337.638 241.555 337.458 241.565C337.278 241.575 337.098 241.59 336.918 241.61C336.748 241.62 336.593 241.635 336.453 241.655C335.733 241.745 335.223 241.905 334.923 242.135C334.623 242.355 334.473 242.675 334.473 243.095C334.473 243.445 334.578 243.71 334.788 243.89C335.008 244.06 335.293 244.145 335.643 244.145C336.123 244.145 336.548 244.065 336.918 243.905C337.298 243.735 337.668 243.515 338.028 243.245V241.535ZM338.013 244.295C337.543 244.565 337.103 244.785 336.693 244.955C336.293 245.115 335.858 245.195 335.388 245.195C334.718 245.195 334.183 245.035 333.783 244.715C333.393 244.385 333.198 243.845 333.198 243.095C333.198 242.705 333.298 242.365 333.498 242.075C333.698 241.785 333.958 241.545 334.278 241.355C334.608 241.155 334.978 241 335.388 240.89C335.798 240.78 336.218 240.71 336.648 240.68C336.828 240.66 337.063 240.645 337.353 240.635C337.643 240.615 337.868 240.6 338.028 240.59C338.028 240.24 338.018 239.93 337.998 239.66C337.978 239.38 337.918 239.145 337.818 238.955C337.718 238.755 337.568 238.605 337.368 238.505C337.178 238.405 336.903 238.355 336.543 238.355C336.253 238.355 335.973 238.375 335.703 238.415C335.433 238.445 335.193 238.48 334.983 238.52C334.733 238.57 334.503 238.625 334.293 238.685L334.053 237.65C334.303 237.59 334.573 237.535 334.863 237.485C335.113 237.435 335.403 237.395 335.733 237.365C336.063 237.325 336.418 237.305 336.798 237.305C337.308 237.305 337.718 237.38 338.028 237.53C338.348 237.68 338.593 237.885 338.763 238.145C338.943 238.395 339.063 238.685 339.123 239.015C339.193 239.335 339.228 239.675 339.228 240.035V243.635C339.228 243.775 339.228 243.925 339.228 244.085C339.238 244.235 339.248 244.385 339.258 244.535C339.278 244.685 339.298 244.84 339.318 245L338.163 245.12L338.013 244.295Z" fill="#B82B22"/>
</svg>
