<svg width="400" height="300" viewBox="0 0 400 300" fill="none" xmlns="http://www.w3.org/2000/svg">
<rect width="400" height="300" rx="20" fill="white" fill-opacity="0.4"/>
<rect opacity="0.8" x="20.5" y="175.5" width="157" height="109" rx="9.5" fill="white" stroke="#DDDDDD"/>
<path opacity="0.8" d="M20.5 25C20.5 19.7533 24.7533 15.5 30 15.5H168C173.247 15.5 177.5 19.7533 177.5 25V157C177.5 162.247 173.247 166.5 168 166.5H30C24.7533 166.5 20.5 162.247 20.5 157V25Z" fill="white" stroke="#DDDDDD"/>
<path d="M88.5704 57.928L90.0104 57.766V67H88.5704V57.928ZM88.3364 55.354C88.3364 55.078 88.4264 54.85 88.6064 54.67C88.7984 54.478 89.0324 54.382 89.3084 54.382C89.5964 54.382 89.8364 54.478 90.0284 54.67C90.2324 54.85 90.3344 55.078 90.3344 55.354C90.3344 55.63 90.2324 55.864 90.0284 56.056C89.8364 56.236 89.5964 56.326 89.3084 56.326C89.0324 56.326 88.7984 56.236 88.6064 56.056C88.4264 55.864 88.3364 55.63 88.3364 55.354ZM92.6138 59.746C92.6258 59.494 92.5958 58.948 92.5238 58.108L93.8558 57.928L94.0538 59.08C94.4138 58.84 94.7678 58.63 95.1158 58.45C95.4758 58.27 95.8418 58.114 96.2138 57.982C96.5858 57.838 96.9458 57.766 97.2938 57.766C97.7858 57.766 98.1938 57.826 98.5178 57.946C98.8538 58.054 99.1238 58.24 99.3278 58.504C99.5318 58.768 99.6758 59.116 99.7598 59.548C99.8558 59.98 99.9038 60.52 99.9038 61.168V67H98.4638V61.33C98.4638 60.97 98.4578 60.652 98.4458 60.376C98.4338 60.088 98.3798 59.848 98.2838 59.656C98.1998 59.452 98.0618 59.296 97.8698 59.188C97.6898 59.08 97.4318 59.026 97.0958 59.026C96.7838 59.026 96.4538 59.098 96.1058 59.242C95.7578 59.374 95.4158 59.53 95.0798 59.71C94.7438 59.89 94.4018 60.1 94.0538 60.34V67H92.6138V59.746ZM102.44 57.928L103.88 57.766V67H102.44V57.928ZM102.206 55.354C102.206 55.078 102.296 54.85 102.476 54.67C102.668 54.478 102.902 54.382 103.178 54.382C103.466 54.382 103.706 54.478 103.898 54.67C104.102 54.85 104.204 55.078 104.204 55.354C104.204 55.63 104.102 55.864 103.898 56.056C103.706 56.236 103.466 56.326 103.178 56.326C102.902 56.326 102.668 56.236 102.476 56.056C102.296 55.864 102.206 55.63 102.206 55.354ZM108.571 55.246V57.946H111.181V59.116H108.571V63.922C108.571 64.318 108.577 64.648 108.589 64.912C108.613 65.176 108.655 65.386 108.715 65.542C108.775 65.698 108.859 65.812 108.967 65.884C109.075 65.944 109.213 65.974 109.381 65.974C109.837 65.962 110.365 65.794 110.965 65.47L111.397 66.568C111.001 66.832 110.629 67.006 110.281 67.09C109.945 67.186 109.609 67.234 109.273 67.234C108.481 67.234 107.923 67.012 107.599 66.568C107.287 66.112 107.131 65.362 107.131 64.318V59.116H105.475V57.946H107.131V55.426L108.571 55.246ZM82.321 141.518L83.761 141.356V146.72C84.025 146.54 84.301 146.384 84.589 146.252C84.829 146.132 85.099 146.024 85.399 145.928C85.699 145.82 85.999 145.766 86.299 145.766C86.791 145.766 87.253 145.862 87.685 146.054C88.129 146.246 88.513 146.534 88.837 146.918C89.173 147.302 89.437 147.788 89.629 148.376C89.821 148.964 89.917 149.66 89.917 150.464C89.917 151.352 89.791 152.102 89.539 152.714C89.299 153.314 88.969 153.8 88.549 154.172C88.141 154.544 87.673 154.814 87.145 154.982C86.617 155.15 86.077 155.234 85.525 155.234C84.973 155.234 84.493 155.192 84.085 155.108C83.689 155.036 83.359 154.952 83.095 154.856C82.783 154.736 82.525 154.604 82.321 154.46V141.518ZM83.761 153.668C83.917 153.728 84.085 153.782 84.265 153.83C84.445 153.866 84.637 153.902 84.841 153.938C85.057 153.962 85.285 153.974 85.525 153.974C86.077 153.974 86.539 153.896 86.911 153.74C87.283 153.584 87.577 153.356 87.793 153.056C88.009 152.756 88.159 152.396 88.243 151.976C88.339 151.544 88.387 151.064 88.387 150.536C88.387 150.116 88.339 149.696 88.243 149.276C88.159 148.856 88.021 148.484 87.829 148.16C87.637 147.824 87.397 147.554 87.109 147.35C86.833 147.134 86.509 147.026 86.137 147.026C85.885 147.026 85.621 147.08 85.345 147.188C85.069 147.284 84.811 147.398 84.571 147.53C84.295 147.674 84.025 147.836 83.761 148.016V153.668ZM97.4425 154.01H97.4065C97.2985 154.094 97.1425 154.208 96.9385 154.352C96.7345 154.484 96.5005 154.616 96.2365 154.748C95.9725 154.88 95.6785 154.994 95.3545 155.09C95.0425 155.186 94.7245 155.234 94.4005 155.234C93.9565 155.234 93.5785 155.174 93.2665 155.054C92.9545 154.946 92.7025 154.76 92.5105 154.496C92.3185 154.232 92.1805 153.884 92.0965 153.452C92.0125 153.02 91.9705 152.48 91.9705 151.832V145.946H93.4105V151.616C93.4105 151.976 93.4165 152.3 93.4285 152.588C93.4405 152.876 93.4825 153.122 93.5545 153.326C93.6265 153.53 93.7405 153.692 93.8965 153.812C94.0645 153.92 94.2985 153.974 94.5985 153.974C94.9105 153.974 95.2345 153.908 95.5705 153.776C95.9065 153.644 96.2125 153.494 96.4885 153.326C96.8125 153.134 97.1305 152.918 97.4425 152.678V145.946H98.8825V153.83C98.8945 154.262 98.9245 154.652 98.9725 155L97.5505 155.144L97.4425 154.01ZM101.499 145.928L102.939 145.766V155H101.499V145.928ZM101.265 143.354C101.265 143.078 101.355 142.85 101.535 142.67C101.727 142.478 101.961 142.382 102.237 142.382C102.525 142.382 102.765 142.478 102.957 142.67C103.161 142.85 103.263 143.078 103.263 143.354C103.263 143.63 103.161 143.864 102.957 144.056C102.765 144.236 102.525 144.326 102.237 144.326C101.961 144.326 101.727 144.236 101.535 144.056C101.355 143.864 101.265 143.63 101.265 143.354ZM105.525 141.518L106.965 141.356V155H105.525V141.518ZM115.202 147.296C114.77 147.176 114.434 147.104 114.194 147.08C113.954 147.044 113.708 147.026 113.456 147.026C112.952 147.026 112.52 147.116 112.16 147.296C111.8 147.476 111.5 147.728 111.26 148.052C111.032 148.364 110.864 148.73 110.756 149.15C110.648 149.558 110.594 149.996 110.594 150.464C110.594 150.884 110.636 151.304 110.72 151.724C110.816 152.144 110.96 152.522 111.152 152.858C111.344 153.194 111.578 153.464 111.854 153.668C112.13 153.872 112.46 153.974 112.844 153.974C113.108 153.974 113.378 153.926 113.654 153.83C113.942 153.734 114.206 153.626 114.446 153.506C114.686 153.374 114.938 153.212 115.202 153.02V147.296ZM115.22 154.28C114.944 154.472 114.674 154.634 114.41 154.766C114.158 154.886 113.876 154.994 113.564 155.09C113.264 155.186 112.97 155.234 112.682 155.234C111.554 155.234 110.666 154.838 110.018 154.046C109.382 153.242 109.064 152.072 109.064 150.536C109.064 149.624 109.208 148.862 109.496 148.25C109.796 147.638 110.168 147.152 110.612 146.792C111.056 146.42 111.53 146.156 112.034 146C112.55 145.844 113.024 145.766 113.456 145.766C113.672 145.766 113.9 145.784 114.14 145.82C114.38 145.844 114.734 145.916 115.202 146.036V141.518L116.642 141.356V153.362C116.642 153.53 116.642 153.71 116.642 153.902C116.654 154.082 116.666 154.262 116.678 154.442C116.702 154.622 116.726 154.808 116.75 155L115.364 155.144L115.22 154.28ZM76.0025 235.404C76.0025 235.128 75.9725 234.696 75.9125 234.108L77.2445 233.928L77.3885 235.242H77.4065C77.6225 234.966 77.8325 234.726 78.0365 234.522C78.2405 234.318 78.4505 234.144 78.6665 234C78.8945 233.844 79.1105 233.766 79.3145 233.766C79.5905 233.754 79.9745 233.784 80.4665 233.856L80.1425 235.242C79.7465 235.17 79.4705 235.14 79.3145 235.152C79.1105 235.152 78.8945 235.248 78.6665 235.44C78.4385 235.632 78.2405 235.836 78.0725 236.052C77.8565 236.316 77.6465 236.616 77.4425 236.952V243H76.0025V235.404ZM88.4813 242.784C88.2053 242.868 87.9173 242.94 87.6173 243C87.3293 243.06 87.0053 243.114 86.6453 243.162C86.2973 243.21 85.9313 243.234 85.5473 243.234C84.9473 243.234 84.3893 243.15 83.8733 242.982C83.3573 242.814 82.9073 242.544 82.5233 242.172C82.1393 241.8 81.8333 241.32 81.6053 240.732C81.3893 240.132 81.2813 239.4 81.2813 238.536C81.2813 237.756 81.3893 237.072 81.6053 236.484C81.8213 235.884 82.1153 235.386 82.4873 234.99C82.8713 234.582 83.3153 234.276 83.8193 234.072C84.3353 233.868 84.8933 233.766 85.4933 233.766C86.0813 233.766 86.5913 233.88 87.0233 234.108C87.4553 234.336 87.8093 234.648 88.0853 235.044C88.3733 235.428 88.5833 235.884 88.7153 236.412C88.8593 236.928 88.9313 237.474 88.9313 238.05L88.6613 238.842H82.8473C82.8473 239.214 82.8953 239.586 82.9913 239.958C83.0873 240.33 83.2493 240.666 83.4773 240.966C83.7173 241.266 84.0233 241.512 84.3953 241.704C84.7793 241.884 85.2533 241.974 85.8173 241.974C86.1773 241.974 86.5073 241.956 86.8073 241.92C87.1073 241.872 87.3653 241.824 87.5813 241.776C87.8093 241.716 88.0193 241.65 88.2113 241.578L88.4813 242.784ZM87.4373 237.69C87.4373 237.606 87.4193 237.42 87.3833 237.132C87.3473 236.844 87.2633 236.544 87.1313 236.232C86.9993 235.92 86.7953 235.644 86.5193 235.404C86.2433 235.152 85.8773 235.026 85.4213 235.026C84.9173 235.026 84.5033 235.134 84.1793 235.35C83.8553 235.554 83.5973 235.8 83.4053 236.088C83.2133 236.376 83.0813 236.67 83.0093 236.97C82.9373 237.27 82.9013 237.51 82.9013 237.69H87.4373ZM90.9087 235.746C90.9207 235.494 90.8907 234.948 90.8187 234.108L92.1507 233.928L92.3487 235.08C92.7087 234.84 93.0627 234.63 93.4107 234.45C93.7707 234.27 94.1367 234.114 94.5087 233.982C94.8807 233.838 95.2407 233.766 95.5887 233.766C96.0807 233.766 96.4887 233.826 96.8127 233.946C97.1487 234.054 97.4187 234.24 97.6227 234.504C97.8267 234.768 97.9707 235.116 98.0547 235.548C98.1507 235.98 98.1987 236.52 98.1987 237.168V243H96.7587V237.33C96.7587 236.97 96.7527 236.652 96.7407 236.376C96.7287 236.088 96.6747 235.848 96.5787 235.656C96.4947 235.452 96.3567 235.296 96.1647 235.188C95.9847 235.08 95.7267 235.026 95.3907 235.026C95.0787 235.026 94.7487 235.098 94.4007 235.242C94.0527 235.374 93.7107 235.53 93.3747 235.71C93.0387 235.89 92.6967 236.1 92.3487 236.34V243H90.9087V235.746ZM106.386 235.296C105.954 235.176 105.618 235.104 105.378 235.08C105.138 235.044 104.892 235.026 104.64 235.026C104.136 235.026 103.704 235.116 103.344 235.296C102.984 235.476 102.684 235.728 102.444 236.052C102.216 236.364 102.048 236.73 101.94 237.15C101.832 237.558 101.778 237.996 101.778 238.464C101.778 238.884 101.82 239.304 101.904 239.724C102 240.144 102.144 240.522 102.336 240.858C102.528 241.194 102.762 241.464 103.038 241.668C103.314 241.872 103.644 241.974 104.028 241.974C104.292 241.974 104.562 241.926 104.838 241.83C105.126 241.734 105.39 241.626 105.63 241.506C105.87 241.374 106.122 241.212 106.386 241.02V235.296ZM106.404 242.28C106.128 242.472 105.858 242.634 105.594 242.766C105.342 242.886 105.06 242.994 104.748 243.09C104.448 243.186 104.154 243.234 103.866 243.234C102.738 243.234 101.85 242.838 101.202 242.046C100.566 241.242 100.248 240.072 100.248 238.536C100.248 237.624 100.392 236.862 100.68 236.25C100.98 235.638 101.352 235.152 101.796 234.792C102.24 234.42 102.714 234.156 103.218 234C103.734 233.844 104.208 233.766 104.64 233.766C104.856 233.766 105.084 233.784 105.324 233.82C105.564 233.844 105.918 233.916 106.386 234.036V229.518L107.826 229.356V241.362C107.826 241.53 107.826 241.71 107.826 241.902C107.838 242.082 107.85 242.262 107.862 242.442C107.886 242.622 107.91 242.808 107.934 243L106.548 243.144L106.404 242.28ZM117.134 242.784C116.858 242.868 116.57 242.94 116.27 243C115.982 243.06 115.658 243.114 115.298 243.162C114.95 243.21 114.584 243.234 114.2 243.234C113.6 243.234 113.042 243.15 112.526 242.982C112.01 242.814 111.56 242.544 111.176 242.172C110.792 241.8 110.486 241.32 110.258 240.732C110.042 240.132 109.934 239.4 109.934 238.536C109.934 237.756 110.042 237.072 110.258 236.484C110.474 235.884 110.768 235.386 111.14 234.99C111.524 234.582 111.968 234.276 112.472 234.072C112.988 233.868 113.546 233.766 114.146 233.766C114.734 233.766 115.244 233.88 115.676 234.108C116.108 234.336 116.462 234.648 116.738 235.044C117.026 235.428 117.236 235.884 117.368 236.412C117.512 236.928 117.584 237.474 117.584 238.05L117.314 238.842H111.5C111.5 239.214 111.548 239.586 111.644 239.958C111.74 240.33 111.902 240.666 112.13 240.966C112.37 241.266 112.676 241.512 113.048 241.704C113.432 241.884 113.906 241.974 114.47 241.974C114.83 241.974 115.16 241.956 115.46 241.92C115.76 241.872 116.018 241.824 116.234 241.776C116.462 241.716 116.672 241.65 116.864 241.578L117.134 242.784ZM116.09 237.69C116.09 237.606 116.072 237.42 116.036 237.132C116 236.844 115.916 236.544 115.784 236.232C115.652 235.92 115.448 235.644 115.172 235.404C114.896 235.152 114.53 235.026 114.074 235.026C113.57 235.026 113.156 235.134 112.832 235.35C112.508 235.554 112.25 235.8 112.058 236.088C111.866 236.376 111.734 236.67 111.662 236.97C111.59 237.27 111.554 237.51 111.554 237.69H116.09ZM119.561 235.404C119.561 235.128 119.531 234.696 119.471 234.108L120.803 233.928L120.947 235.242H120.965C121.181 234.966 121.391 234.726 121.595 234.522C121.799 234.318 122.009 234.144 122.225 234C122.453 233.844 122.669 233.766 122.873 233.766C123.149 233.754 123.533 233.784 124.025 233.856L123.701 235.242C123.305 235.17 123.029 235.14 122.873 235.152C122.669 235.152 122.453 235.248 122.225 235.44C121.997 235.632 121.799 235.836 121.631 236.052C121.415 236.316 121.205 236.616 121.001 236.952V243H119.561V235.404Z" fill="#888888"/>
<path d="M99.338 89C98.93 88.148 98.282 87.356 97.394 86.624V85.994C98.162 86.366 98.738 86.714 99.122 87.038V76.544H99.878V87.038C100.262 86.714 100.838 86.366 101.606 85.994V86.624C100.73 87.356 100.082 88.148 99.662 89H99.338ZM58.4507 104.034C58.4507 103.602 58.4207 102.96 58.3607 102.108L59.6927 101.928L59.8547 102.9C60.0947 102.696 60.3407 102.516 60.5927 102.36C60.8567 102.192 61.1387 102.054 61.4387 101.946C61.7507 101.826 62.0807 101.766 62.4287 101.766C62.9207 101.766 63.3827 101.85 63.8147 102.018C64.2587 102.186 64.6427 102.456 64.9667 102.828C65.3027 103.2 65.5667 103.686 65.7587 104.286C65.9507 104.874 66.0467 105.6 66.0467 106.464C66.0467 107.34 65.9147 108.084 65.6507 108.696C65.3987 109.296 65.0627 109.788 64.6427 110.172C64.2347 110.544 63.7667 110.814 63.2387 110.982C62.7227 111.15 62.1947 111.234 61.6547 111.234C61.0787 111.222 60.4907 111.15 59.8907 111.018V114.924L58.4507 115.104V104.034ZM61.6547 109.974C62.1587 109.974 62.5907 109.884 62.9507 109.704C63.3107 109.524 63.6047 109.278 63.8327 108.966C64.0727 108.642 64.2467 108.276 64.3547 107.868C64.4627 107.448 64.5167 107.004 64.5167 106.536C64.5167 106.116 64.4747 105.696 64.3907 105.276C64.3187 104.856 64.1927 104.484 64.0127 104.16C63.8447 103.824 63.6167 103.554 63.3287 103.35C63.0407 103.134 62.6867 103.026 62.2667 103.026C61.9547 103.026 61.6607 103.086 61.3847 103.206C61.1087 103.314 60.8447 103.452 60.5927 103.62C60.3527 103.776 60.1187 103.956 59.8907 104.16V109.686C60.0227 109.734 60.1667 109.782 60.3227 109.83C60.4907 109.866 60.6827 109.902 60.8987 109.938C61.1267 109.962 61.3787 109.974 61.6547 109.974ZM73.1934 106.842C72.9534 106.854 72.7254 106.866 72.5094 106.878C72.2934 106.89 72.0774 106.908 71.8614 106.932C71.6574 106.944 71.4714 106.962 71.3034 106.986C70.4394 107.094 69.8274 107.286 69.4674 107.562C69.1074 107.826 68.9274 108.21 68.9274 108.714C68.9274 109.134 69.0534 109.452 69.3054 109.668C69.5694 109.872 69.9114 109.974 70.3314 109.974C70.9074 109.974 71.4174 109.878 71.8614 109.686C72.3174 109.482 72.7614 109.218 73.1934 108.894V106.842ZM73.1754 110.154C72.6114 110.478 72.0834 110.742 71.5914 110.946C71.1114 111.138 70.5894 111.234 70.0254 111.234C69.2214 111.234 68.5794 111.042 68.0994 110.658C67.6314 110.262 67.3974 109.614 67.3974 108.714C67.3974 108.246 67.5174 107.838 67.7574 107.49C67.9974 107.142 68.3094 106.854 68.6934 106.626C69.0894 106.386 69.5334 106.2 70.0254 106.068C70.5174 105.936 71.0214 105.852 71.5374 105.816C71.7534 105.792 72.0354 105.774 72.3834 105.762C72.7314 105.738 73.0014 105.72 73.1934 105.708C73.1934 105.288 73.1814 104.916 73.1574 104.592C73.1334 104.256 73.0614 103.974 72.9414 103.746C72.8214 103.506 72.6414 103.326 72.4014 103.206C72.1734 103.086 71.8434 103.026 71.4114 103.026C71.0634 103.026 70.7274 103.05 70.4034 103.098C70.0794 103.134 69.7914 103.176 69.5394 103.224C69.2394 103.284 68.9634 103.35 68.7114 103.422L68.4234 102.18C68.7234 102.108 69.0474 102.042 69.3954 101.982C69.6954 101.922 70.0434 101.874 70.4394 101.838C70.8354 101.79 71.2614 101.766 71.7174 101.766C72.3294 101.766 72.8214 101.856 73.1934 102.036C73.5774 102.216 73.8714 102.462 74.0754 102.774C74.2914 103.074 74.4354 103.422 74.5074 103.818C74.5914 104.202 74.6334 104.61 74.6334 105.042V109.362C74.6334 109.53 74.6334 109.71 74.6334 109.902C74.6454 110.082 74.6574 110.262 74.6694 110.442C74.6934 110.622 74.7174 110.808 74.7414 111L73.3554 111.144L73.1754 110.154ZM84.263 111.864C84.263 112.308 84.215 112.74 84.119 113.16C84.023 113.58 83.837 113.952 83.561 114.276C83.297 114.612 82.919 114.876 82.427 115.068C81.947 115.272 81.311 115.374 80.519 115.374C80.015 115.362 79.577 115.332 79.205 115.284C78.833 115.236 78.479 115.164 78.143 115.068C77.807 114.984 77.501 114.882 77.225 114.762L77.603 113.502C78.071 113.706 78.545 113.862 79.025 113.97C79.517 114.078 79.955 114.132 80.339 114.132C80.759 114.132 81.125 114.09 81.437 114.006C81.749 113.922 82.007 113.778 82.211 113.574C82.427 113.382 82.583 113.124 82.679 112.8C82.787 112.476 82.841 112.074 82.841 111.594V110.28C82.589 110.448 82.325 110.604 82.049 110.748C81.785 110.88 81.497 110.994 81.185 111.09C80.885 111.186 80.591 111.234 80.303 111.234C79.187 111.234 78.305 110.844 77.657 110.064C77.009 109.272 76.685 108.096 76.685 106.536C76.685 105.636 76.823 104.886 77.099 104.286C77.387 103.674 77.747 103.182 78.179 102.81C78.611 102.438 79.085 102.174 79.601 102.018C80.117 101.85 80.609 101.766 81.077 101.766C81.689 101.766 82.247 101.82 82.751 101.928C83.267 102.024 83.771 102.102 84.263 102.162V111.864ZM80.465 109.974C80.729 109.974 80.999 109.926 81.275 109.83C81.551 109.734 81.815 109.62 82.067 109.488C82.331 109.356 82.589 109.2 82.841 109.02V103.278C82.697 103.242 82.529 103.2 82.337 103.152C82.169 103.128 81.977 103.104 81.761 103.08C81.545 103.044 81.317 103.026 81.077 103.026C80.573 103.026 80.141 103.116 79.781 103.296C79.421 103.476 79.121 103.722 78.881 104.034C78.653 104.346 78.485 104.712 78.377 105.132C78.269 105.552 78.215 105.996 78.215 106.464C78.215 106.884 78.257 107.304 78.341 107.724C78.437 108.144 78.581 108.522 78.773 108.858C78.965 109.194 79.199 109.464 79.475 109.668C79.751 109.872 80.081 109.974 80.465 109.974ZM93.5525 110.784C93.2765 110.868 92.9885 110.94 92.6885 111C92.4005 111.06 92.0765 111.114 91.7165 111.162C91.3685 111.21 91.0025 111.234 90.6185 111.234C90.0185 111.234 89.4605 111.15 88.9445 110.982C88.4285 110.814 87.9785 110.544 87.5945 110.172C87.2105 109.8 86.9045 109.32 86.6765 108.732C86.4605 108.132 86.3525 107.4 86.3525 106.536C86.3525 105.756 86.4605 105.072 86.6765 104.484C86.8925 103.884 87.1865 103.386 87.5585 102.99C87.9425 102.582 88.3865 102.276 88.8905 102.072C89.4065 101.868 89.9645 101.766 90.5645 101.766C91.1525 101.766 91.6625 101.88 92.0945 102.108C92.5265 102.336 92.8805 102.648 93.1565 103.044C93.4445 103.428 93.6545 103.884 93.7865 104.412C93.9305 104.928 94.0025 105.474 94.0025 106.05L93.7325 106.842H87.9185C87.9185 107.214 87.9665 107.586 88.0625 107.958C88.1585 108.33 88.3205 108.666 88.5485 108.966C88.7885 109.266 89.0945 109.512 89.4665 109.704C89.8505 109.884 90.3245 109.974 90.8885 109.974C91.2485 109.974 91.5785 109.956 91.8785 109.92C92.1785 109.872 92.4365 109.824 92.6525 109.776C92.8805 109.716 93.0905 109.65 93.2825 109.578L93.5525 110.784ZM92.5085 105.69C92.5085 105.606 92.4905 105.42 92.4545 105.132C92.4185 104.844 92.3345 104.544 92.2025 104.232C92.0705 103.92 91.8665 103.644 91.5905 103.404C91.3145 103.152 90.9485 103.026 90.4925 103.026C89.9885 103.026 89.5745 103.134 89.2505 103.35C88.9265 103.554 88.6685 103.8 88.4765 104.088C88.2845 104.376 88.1525 104.67 88.0805 104.97C88.0085 105.27 87.9725 105.51 87.9725 105.69H92.5085ZM100.093 104.034C100.093 103.602 100.063 102.96 100.003 102.108L101.335 101.928L101.497 102.9C101.737 102.696 101.983 102.516 102.235 102.36C102.499 102.192 102.781 102.054 103.081 101.946C103.393 101.826 103.723 101.766 104.071 101.766C104.563 101.766 105.025 101.85 105.457 102.018C105.901 102.186 106.285 102.456 106.609 102.828C106.945 103.2 107.209 103.686 107.401 104.286C107.593 104.874 107.689 105.6 107.689 106.464C107.689 107.34 107.557 108.084 107.293 108.696C107.041 109.296 106.705 109.788 106.285 110.172C105.877 110.544 105.409 110.814 104.881 110.982C104.365 111.15 103.837 111.234 103.297 111.234C102.721 111.222 102.133 111.15 101.533 111.018V114.924L100.093 115.104V104.034ZM103.297 109.974C103.801 109.974 104.233 109.884 104.593 109.704C104.953 109.524 105.247 109.278 105.475 108.966C105.715 108.642 105.889 108.276 105.997 107.868C106.105 107.448 106.159 107.004 106.159 106.536C106.159 106.116 106.117 105.696 106.033 105.276C105.961 104.856 105.835 104.484 105.655 104.16C105.487 103.824 105.259 103.554 104.971 103.35C104.683 103.134 104.329 103.026 103.909 103.026C103.597 103.026 103.303 103.086 103.027 103.206C102.751 103.314 102.487 103.452 102.235 103.62C101.995 103.776 101.761 103.956 101.533 104.16V109.686C101.665 109.734 101.809 109.782 101.965 109.83C102.133 109.866 102.325 109.902 102.541 109.938C102.769 109.962 103.021 109.974 103.297 109.974ZM109.814 103.404C109.814 103.128 109.784 102.696 109.724 102.108L111.056 101.928L111.2 103.242H111.218C111.434 102.966 111.644 102.726 111.848 102.522C112.052 102.318 112.262 102.144 112.478 102C112.706 101.844 112.922 101.766 113.126 101.766C113.402 101.754 113.786 101.784 114.278 101.856L113.954 103.242C113.558 103.17 113.282 103.14 113.126 103.152C112.922 103.152 112.706 103.248 112.478 103.44C112.25 103.632 112.052 103.836 111.884 104.052C111.668 104.316 111.458 104.616 111.254 104.952V111H109.814V103.404ZM116.623 106.518C116.623 107.682 116.881 108.552 117.397 109.128C117.925 109.692 118.633 109.974 119.521 109.974C120.397 109.974 121.081 109.692 121.573 109.128C122.065 108.564 122.311 107.718 122.311 106.59C122.311 105.39 122.047 104.496 121.519 103.908C121.003 103.32 120.295 103.026 119.395 103.026C118.495 103.026 117.805 103.32 117.325 103.908C116.857 104.484 116.623 105.354 116.623 106.518ZM115.093 106.5C115.093 105.588 115.237 104.832 115.525 104.232C115.813 103.62 116.179 103.134 116.623 102.774C117.067 102.402 117.541 102.144 118.045 102C118.561 101.844 119.047 101.766 119.503 101.766C119.935 101.766 120.403 101.838 120.907 101.982C121.423 102.114 121.897 102.36 122.329 102.72C122.761 103.068 123.121 103.542 123.409 104.142C123.697 104.73 123.841 105.48 123.841 106.392C123.841 107.34 123.691 108.126 123.391 108.75C123.103 109.374 122.737 109.872 122.293 110.244C121.849 110.604 121.369 110.856 120.853 111C120.337 111.156 119.857 111.234 119.413 111.234C118.957 111.234 118.477 111.162 117.973 111.018C117.469 110.874 117.001 110.628 116.569 110.28C116.149 109.92 115.795 109.434 115.507 108.822C115.231 108.21 115.093 107.436 115.093 106.5ZM125.951 104.034C125.951 103.602 125.921 102.96 125.861 102.108L127.193 101.928L127.355 102.9C127.595 102.696 127.841 102.516 128.093 102.36C128.357 102.192 128.639 102.054 128.939 101.946C129.251 101.826 129.581 101.766 129.929 101.766C130.421 101.766 130.883 101.85 131.315 102.018C131.759 102.186 132.143 102.456 132.467 102.828C132.803 103.2 133.067 103.686 133.259 104.286C133.451 104.874 133.547 105.6 133.547 106.464C133.547 107.34 133.415 108.084 133.151 108.696C132.899 109.296 132.563 109.788 132.143 110.172C131.735 110.544 131.267 110.814 130.739 110.982C130.223 111.15 129.695 111.234 129.155 111.234C128.579 111.222 127.991 111.15 127.391 111.018V114.924L125.951 115.104V104.034ZM129.155 109.974C129.659 109.974 130.091 109.884 130.451 109.704C130.811 109.524 131.105 109.278 131.333 108.966C131.573 108.642 131.747 108.276 131.855 107.868C131.963 107.448 132.017 107.004 132.017 106.536C132.017 106.116 131.975 105.696 131.891 105.276C131.819 104.856 131.693 104.484 131.513 104.16C131.345 103.824 131.117 103.554 130.829 103.35C130.541 103.134 130.187 103.026 129.767 103.026C129.455 103.026 129.161 103.086 128.885 103.206C128.609 103.314 128.345 103.452 128.093 103.62C127.853 103.776 127.619 103.956 127.391 104.16V109.686C127.523 109.734 127.667 109.782 127.823 109.83C127.991 109.866 128.183 109.902 128.399 109.938C128.627 109.962 128.879 109.974 129.155 109.974ZM140.549 103.422C140.045 103.266 139.595 103.164 139.199 103.116C138.815 103.056 138.461 103.026 138.137 103.026C137.717 103.026 137.363 103.128 137.075 103.332C136.799 103.536 136.661 103.8 136.661 104.124C136.673 104.412 136.799 104.658 137.039 104.862C137.279 105.066 137.555 105.252 137.867 105.42C138.191 105.576 138.545 105.75 138.929 105.942C139.325 106.134 139.691 106.35 140.027 106.59C140.375 106.83 140.657 107.118 140.873 107.454C141.089 107.79 141.203 108.192 141.215 108.66C141.203 109.164 141.089 109.584 140.873 109.92C140.669 110.244 140.399 110.508 140.063 110.712C139.739 110.904 139.385 111.036 139.001 111.108C138.617 111.192 138.257 111.234 137.921 111.234C137.489 111.234 137.039 111.21 136.571 111.162C136.115 111.114 135.623 111.012 135.095 110.856L135.365 109.56C135.905 109.704 136.397 109.812 136.841 109.884C137.285 109.944 137.651 109.974 137.939 109.974C138.155 109.974 138.365 109.95 138.569 109.902C138.785 109.854 138.977 109.788 139.145 109.704C139.313 109.608 139.445 109.488 139.541 109.344C139.649 109.2 139.703 109.038 139.703 108.858C139.691 108.522 139.577 108.24 139.361 108.012C139.145 107.772 138.863 107.562 138.515 107.382C138.179 107.19 137.813 107.004 137.417 106.824C137.033 106.632 136.667 106.416 136.319 106.176C135.983 105.924 135.701 105.63 135.473 105.294C135.245 104.946 135.131 104.52 135.131 104.016C135.131 103.656 135.221 103.338 135.401 103.062C135.593 102.774 135.833 102.54 136.121 102.36C136.421 102.168 136.745 102.024 137.093 101.928C137.453 101.82 137.801 101.766 138.137 101.766C138.485 101.766 138.875 101.796 139.307 101.856C139.739 101.904 140.237 102 140.801 102.144L140.549 103.422ZM99.338 133C98.93 132.148 98.282 131.356 97.394 130.624V129.994C98.162 130.366 98.738 130.714 99.122 131.038V120.544H99.878V131.038C100.262 130.714 100.838 130.366 101.606 129.994V130.624C100.73 131.356 100.082 132.148 99.662 133H99.338ZM99.338 177C98.93 176.148 98.282 175.356 97.394 174.624V173.994C98.162 174.366 98.738 174.714 99.122 175.038V164.544H99.878V175.038C100.262 174.714 100.838 174.366 101.606 173.994V174.624C100.73 175.356 100.082 176.148 99.662 177H99.338ZM68.2945 191.584C68.2945 191.176 68.2585 190.684 68.1865 190.108L69.5365 189.928L69.7345 191.062C70.0585 190.822 70.3765 190.612 70.6885 190.432C71.0005 190.252 71.3365 190.096 71.6965 189.964C72.0565 189.832 72.4225 189.766 72.7945 189.766C73.3945 189.766 73.8685 189.874 74.2165 190.09C74.5645 190.294 74.8225 190.648 74.9905 191.152C75.4825 190.804 75.9925 190.486 76.5205 190.198C77.0605 189.91 77.6185 189.766 78.1945 189.766C78.6385 189.766 79.0165 189.826 79.3285 189.946C79.6405 190.054 79.8925 190.24 80.0845 190.504C80.2765 190.768 80.4145 191.116 80.4985 191.548C80.5825 191.98 80.6245 192.52 80.6245 193.168V199H79.1845V193.33C79.1845 192.97 79.1785 192.652 79.1665 192.376C79.1545 192.088 79.1125 191.848 79.0405 191.656C78.9685 191.452 78.8485 191.296 78.6805 191.188C78.5245 191.08 78.2965 191.026 77.9965 191.026C77.7205 191.026 77.4565 191.068 77.2045 191.152C76.9645 191.224 76.7125 191.332 76.4485 191.476C76.1845 191.62 75.7765 191.914 75.2245 192.358V199H73.7845V193.33C73.7845 192.97 73.7785 192.652 73.7665 192.376C73.7545 192.088 73.7125 191.848 73.6405 191.656C73.5685 191.452 73.4485 191.296 73.2805 191.188C73.1245 191.08 72.8965 191.026 72.5965 191.026C72.2845 191.026 71.9605 191.092 71.6245 191.224C71.2885 191.356 70.9705 191.512 70.6705 191.692C70.3705 191.872 70.0585 192.082 69.7345 192.322V199H68.2945V191.584ZM84.1911 194.518C84.1911 195.682 84.4491 196.552 84.9651 197.128C85.4931 197.692 86.2011 197.974 87.0891 197.974C87.9651 197.974 88.6491 197.692 89.1411 197.128C89.6331 196.564 89.8791 195.718 89.8791 194.59C89.8791 193.39 89.6151 192.496 89.0871 191.908C88.5711 191.32 87.8631 191.026 86.9631 191.026C86.0631 191.026 85.3731 191.32 84.8931 191.908C84.4251 192.484 84.1911 193.354 84.1911 194.518ZM82.6611 194.5C82.6611 193.588 82.8051 192.832 83.0931 192.232C83.3811 191.62 83.7471 191.134 84.1911 190.774C84.6351 190.402 85.1091 190.144 85.6131 190C86.1291 189.844 86.6151 189.766 87.0711 189.766C87.5031 189.766 87.9711 189.838 88.4751 189.982C88.9911 190.114 89.4651 190.36 89.8971 190.72C90.3291 191.068 90.6891 191.542 90.9771 192.142C91.2651 192.73 91.4091 193.48 91.4091 194.392C91.4091 195.34 91.2591 196.126 90.9591 196.75C90.6711 197.374 90.3051 197.872 89.8611 198.244C89.4171 198.604 88.9371 198.856 88.4211 199C87.9051 199.156 87.4251 199.234 86.9811 199.234C86.5251 199.234 86.0451 199.162 85.5411 199.018C85.0371 198.874 84.5691 198.628 84.1371 198.28C83.7171 197.92 83.3631 197.434 83.0751 196.822C82.7991 196.21 82.6611 195.436 82.6611 194.5ZM99.1531 191.296C98.7211 191.176 98.3851 191.104 98.1451 191.08C97.9051 191.044 97.6591 191.026 97.4071 191.026C96.9031 191.026 96.4711 191.116 96.1111 191.296C95.7511 191.476 95.4511 191.728 95.2111 192.052C94.9831 192.364 94.8151 192.73 94.7071 193.15C94.5991 193.558 94.5451 193.996 94.5451 194.464C94.5451 194.884 94.5871 195.304 94.6711 195.724C94.7671 196.144 94.9111 196.522 95.1031 196.858C95.2951 197.194 95.5291 197.464 95.8051 197.668C96.0811 197.872 96.4111 197.974 96.7951 197.974C97.0591 197.974 97.3291 197.926 97.6051 197.83C97.8931 197.734 98.1571 197.626 98.3971 197.506C98.6371 197.374 98.8891 197.212 99.1531 197.02V191.296ZM99.1711 198.28C98.8951 198.472 98.6251 198.634 98.3611 198.766C98.1091 198.886 97.8271 198.994 97.5151 199.09C97.2151 199.186 96.9211 199.234 96.6331 199.234C95.5051 199.234 94.6171 198.838 93.9691 198.046C93.3331 197.242 93.0151 196.072 93.0151 194.536C93.0151 193.624 93.1591 192.862 93.4471 192.25C93.7471 191.638 94.1191 191.152 94.5631 190.792C95.0071 190.42 95.4811 190.156 95.9851 190C96.5011 189.844 96.9751 189.766 97.4071 189.766C97.6231 189.766 97.8511 189.784 98.0911 189.82C98.3311 189.844 98.6851 189.916 99.1531 190.036V185.518L100.593 185.356V197.362C100.593 197.53 100.593 197.71 100.593 197.902C100.605 198.082 100.617 198.262 100.629 198.442C100.653 198.622 100.677 198.808 100.701 199L99.3151 199.144L99.1711 198.28ZM108.622 198.01H108.586C108.478 198.094 108.322 198.208 108.118 198.352C107.914 198.484 107.68 198.616 107.416 198.748C107.152 198.88 106.858 198.994 106.534 199.09C106.222 199.186 105.904 199.234 105.58 199.234C105.136 199.234 104.758 199.174 104.446 199.054C104.134 198.946 103.882 198.76 103.69 198.496C103.498 198.232 103.36 197.884 103.276 197.452C103.192 197.02 103.15 196.48 103.15 195.832V189.946H104.59V195.616C104.59 195.976 104.596 196.3 104.608 196.588C104.62 196.876 104.662 197.122 104.734 197.326C104.806 197.53 104.92 197.692 105.076 197.812C105.244 197.92 105.478 197.974 105.778 197.974C106.09 197.974 106.414 197.908 106.75 197.776C107.086 197.644 107.392 197.494 107.668 197.326C107.992 197.134 108.31 196.918 108.622 196.678V189.946H110.062V197.83C110.074 198.262 110.104 198.652 110.152 199L108.73 199.144L108.622 198.01ZM112.679 185.518L114.119 185.356V199H112.679V185.518ZM123.4 198.784C123.124 198.868 122.836 198.94 122.536 199C122.248 199.06 121.924 199.114 121.564 199.162C121.216 199.21 120.85 199.234 120.466 199.234C119.866 199.234 119.308 199.15 118.792 198.982C118.276 198.814 117.826 198.544 117.442 198.172C117.058 197.8 116.752 197.32 116.524 196.732C116.308 196.132 116.2 195.4 116.2 194.536C116.2 193.756 116.308 193.072 116.524 192.484C116.74 191.884 117.034 191.386 117.406 190.99C117.79 190.582 118.234 190.276 118.738 190.072C119.254 189.868 119.812 189.766 120.412 189.766C121 189.766 121.51 189.88 121.942 190.108C122.374 190.336 122.728 190.648 123.004 191.044C123.292 191.428 123.502 191.884 123.634 192.412C123.778 192.928 123.85 193.474 123.85 194.05L123.58 194.842H117.766C117.766 195.214 117.814 195.586 117.91 195.958C118.006 196.33 118.168 196.666 118.396 196.966C118.636 197.266 118.942 197.512 119.314 197.704C119.698 197.884 120.172 197.974 120.736 197.974C121.096 197.974 121.426 197.956 121.726 197.92C122.026 197.872 122.284 197.824 122.5 197.776C122.728 197.716 122.938 197.65 123.13 197.578L123.4 198.784ZM122.356 193.69C122.356 193.606 122.338 193.42 122.302 193.132C122.266 192.844 122.182 192.544 122.05 192.232C121.918 191.92 121.714 191.644 121.438 191.404C121.162 191.152 120.796 191.026 120.34 191.026C119.836 191.026 119.422 191.134 119.098 191.35C118.774 191.554 118.516 191.8 118.324 192.088C118.132 192.376 118 192.67 117.928 192.97C117.856 193.27 117.82 193.51 117.82 193.69H122.356ZM130.706 191.422C130.202 191.266 129.752 191.164 129.356 191.116C128.972 191.056 128.618 191.026 128.294 191.026C127.874 191.026 127.52 191.128 127.232 191.332C126.956 191.536 126.818 191.8 126.818 192.124C126.83 192.412 126.956 192.658 127.196 192.862C127.436 193.066 127.712 193.252 128.024 193.42C128.348 193.576 128.702 193.75 129.086 193.942C129.482 194.134 129.848 194.35 130.184 194.59C130.532 194.83 130.814 195.118 131.03 195.454C131.246 195.79 131.36 196.192 131.372 196.66C131.36 197.164 131.246 197.584 131.03 197.92C130.826 198.244 130.556 198.508 130.22 198.712C129.896 198.904 129.542 199.036 129.158 199.108C128.774 199.192 128.414 199.234 128.078 199.234C127.646 199.234 127.196 199.21 126.728 199.162C126.272 199.114 125.78 199.012 125.252 198.856L125.522 197.56C126.062 197.704 126.554 197.812 126.998 197.884C127.442 197.944 127.808 197.974 128.096 197.974C128.312 197.974 128.522 197.95 128.726 197.902C128.942 197.854 129.134 197.788 129.302 197.704C129.47 197.608 129.602 197.488 129.698 197.344C129.806 197.2 129.86 197.038 129.86 196.858C129.848 196.522 129.734 196.24 129.518 196.012C129.302 195.772 129.02 195.562 128.672 195.382C128.336 195.19 127.97 195.004 127.574 194.824C127.19 194.632 126.824 194.416 126.476 194.176C126.14 193.924 125.858 193.63 125.63 193.294C125.402 192.946 125.288 192.52 125.288 192.016C125.288 191.656 125.378 191.338 125.558 191.062C125.75 190.774 125.99 190.54 126.278 190.36C126.578 190.168 126.902 190.024 127.25 189.928C127.61 189.82 127.958 189.766 128.294 189.766C128.642 189.766 129.032 189.796 129.464 189.856C129.896 189.904 130.394 190 130.958 190.144L130.706 191.422ZM99.338 221C98.93 220.148 98.282 219.356 97.394 218.624V217.994C98.162 218.366 98.738 218.714 99.122 219.038V208.544H99.878V219.038C100.262 218.714 100.838 218.366 101.606 217.994V218.624C100.73 219.356 100.082 220.148 99.662 221H99.338Z" fill="black"/>
<path d="M379.356 163.335L375.01 160.825C375.74 157.195 376.11 153.56 376.11 150C376.11 146.389 375.746 142.75 375.029 139.164L379.356 136.665C380.697 135.891 381.656 134.642 382.056 133.147C382.457 131.652 382.251 130.09 381.477 128.75L369.642 108.25C368.868 106.909 367.618 105.951 366.123 105.55C364.628 105.15 363.067 105.355 361.726 106.129L357.395 108.63C351.924 103.816 345.484 100.091 338.63 97.7734V92.7945C338.63 89.5994 336.031 87 332.836 87H309.164C305.969 87 303.37 89.5994 303.37 92.7945V97.7736C296.552 100.082 290.122 103.812 284.63 108.645L280.274 106.129C278.933 105.355 277.371 105.149 275.876 105.55C274.381 105.951 273.132 106.909 272.358 108.25L260.522 128.75C259.748 130.09 259.543 131.652 259.944 133.147C260.344 134.642 261.303 135.891 262.643 136.665L266.989 139.175C266.26 142.805 265.89 146.44 265.89 150C265.89 153.611 266.254 157.25 266.971 160.836L262.644 163.335C259.876 164.932 258.925 168.483 260.522 171.25L272.358 191.75C273.956 194.517 277.506 195.468 280.274 193.871L284.605 191.37C290.076 196.184 296.515 199.909 303.37 202.227V207.205C303.37 210.401 305.969 213 309.164 213H332.836C336.031 213 338.63 210.401 338.63 207.205V202.226C345.448 199.918 351.878 196.188 357.37 191.356L361.726 193.871C364.493 195.468 368.044 194.517 369.642 191.75L381.478 171.25C383.075 168.483 382.124 164.932 379.356 163.335ZM378.274 169.401L366.439 189.901C365.861 190.902 364.577 191.246 363.576 190.668L358.054 187.48C357.353 187.075 356.469 187.174 355.874 187.724C350.229 192.945 343.438 196.884 336.234 199.115C335.459 199.355 334.932 200.071 334.932 200.882V207.205C334.932 208.361 333.991 209.301 332.836 209.301H309.164C308.009 209.301 307.069 208.361 307.069 207.205V200.882C307.069 200.072 306.541 199.356 305.767 199.116C298.518 196.87 291.718 192.936 286.101 187.739C285.751 187.415 285.3 187.247 284.845 187.247C284.528 187.247 284.209 187.328 283.921 187.495L278.424 190.668C277.423 191.245 276.139 190.901 275.561 189.901L263.726 169.401C263.148 168.4 263.492 167.116 264.493 166.538L269.985 163.367C270.686 162.962 271.042 162.148 270.864 161.358C270.018 157.609 269.589 153.787 269.589 150C269.589 146.277 270.024 142.459 270.883 138.652C271.061 137.862 270.705 137.048 270.004 136.644L264.493 133.462C264.008 133.182 263.661 132.73 263.516 132.19C263.372 131.649 263.446 131.084 263.726 130.599L275.561 110.099C275.841 109.614 276.293 109.267 276.834 109.123C277.375 108.978 277.94 109.052 278.425 109.332L283.946 112.52C284.648 112.925 285.531 112.826 286.126 112.276C291.771 107.055 298.563 103.116 305.767 100.884C306.541 100.644 307.069 99.9284 307.069 99.1179V92.7945C307.069 91.6388 308.009 90.6986 309.165 90.6986H332.836C333.992 90.6986 334.932 91.6388 334.932 92.7945V99.1179C334.932 99.9284 335.46 100.644 336.234 100.884C343.482 103.13 350.282 107.064 355.899 112.261C356.494 112.812 357.378 112.91 358.08 112.505L363.576 109.332C364.061 109.052 364.626 108.978 365.166 109.123C365.707 109.268 366.159 109.614 366.439 110.099L378.275 130.599C378.555 131.084 378.629 131.649 378.484 132.19C378.339 132.73 377.992 133.182 377.508 133.462L372.016 136.633C371.315 137.038 370.958 137.852 371.137 138.642C371.983 142.391 372.411 146.212 372.411 150C372.411 153.723 371.976 157.541 371.118 161.348C370.94 162.137 371.296 162.951 371.997 163.356L377.508 166.538C378.508 167.116 378.852 168.4 378.274 169.401Z" fill="#71AAFF"/>
<path d="M321 112.644C300.402 112.644 283.644 129.402 283.644 150C283.644 170.598 300.402 187.356 321 187.356C341.598 187.356 358.356 170.598 358.356 150C358.356 129.402 341.598 112.644 321 112.644ZM321 183.658C302.441 183.658 287.342 168.559 287.342 150C287.342 131.441 302.441 116.342 321 116.342C339.559 116.342 354.657 131.441 354.657 150C354.657 168.559 339.559 183.658 321 183.658Z" fill="#71AAFF"/>
<path d="M326.704 140.26H319.8C318.779 140.26 317.951 141.088 317.951 142.11V157.89C317.951 158.912 318.779 159.74 319.8 159.74C320.821 159.74 321.649 158.912 321.649 157.89V153.822H326.704C330.443 153.822 333.485 150.78 333.485 147.041C333.485 143.302 330.443 140.26 326.704 140.26ZM326.704 150.123H321.649V143.959H326.704C328.404 143.959 329.786 145.341 329.786 147.041C329.786 148.741 328.404 150.123 326.704 150.123Z" fill="#71AAFF"/>
<path d="M309.696 141.46C309.425 140.739 308.735 140.26 307.964 140.26H305.992C305.221 140.26 304.531 140.738 304.26 141.46L298.343 157.241C297.984 158.197 298.469 159.263 299.425 159.622C300.381 159.981 301.447 159.496 301.806 158.54L302.835 155.795H311.121L312.151 158.54C312.429 159.282 313.134 159.74 313.882 159.74C314.098 159.74 314.317 159.702 314.531 159.622C315.487 159.264 315.972 158.197 315.613 157.241L309.696 141.46ZM304.222 152.096L306.978 144.746L309.734 152.096H304.222Z" fill="#71AAFF"/>
<path d="M339.953 140.26C338.932 140.26 338.104 141.088 338.104 142.11V157.89C338.104 158.912 338.932 159.74 339.953 159.74C340.975 159.74 341.803 158.912 341.803 157.89V142.11C341.803 141.088 340.975 140.26 339.953 140.26Z" fill="#71AAFF"/>
<path d="M334.229 108.526C335.513 108.935 336.792 109.41 338.032 109.938C338.268 110.039 338.514 110.086 338.755 110.086C339.474 110.086 340.158 109.664 340.458 108.961C340.858 108.021 340.42 106.935 339.48 106.535C338.135 105.962 336.746 105.446 335.352 105.002C334.379 104.692 333.339 105.23 333.029 106.203C332.719 107.176 333.256 108.216 334.229 108.526Z" fill="#71AAFF"/>
<path d="M282.769 170.812C282.279 169.915 281.156 169.585 280.259 170.074C279.363 170.563 279.032 171.687 279.522 172.583C280.289 173.99 281.138 175.373 282.046 176.695C282.405 177.217 282.984 177.498 283.572 177.498C283.933 177.498 284.298 177.393 284.618 177.173C285.46 176.595 285.673 175.444 285.095 174.602C284.259 173.383 283.476 172.108 282.769 170.812Z" fill="#71AAFF"/>
<path d="M317.213 193.358C307.303 192.504 297.897 188.21 290.726 181.266C289.993 180.555 288.822 180.574 288.112 181.308C287.401 182.041 287.42 183.212 288.153 183.923C295.933 191.457 306.14 196.116 316.895 197.043C316.949 197.048 317.003 197.05 317.056 197.05C318.005 197.05 318.813 196.323 318.896 195.359C318.984 194.342 318.23 193.446 317.213 193.358Z" fill="#71AAFF"/>
<path d="M347.612 110.989C346.768 110.412 345.618 110.629 345.041 111.472C344.465 112.315 344.682 113.466 345.525 114.042C354.116 119.914 360.331 128.651 363.024 138.644C363.247 139.47 363.994 140.013 364.809 140.013C364.968 140.013 365.13 139.992 365.291 139.949C366.278 139.683 366.861 138.668 366.596 137.682C363.673 126.838 356.931 117.358 347.612 110.989Z" fill="#71AAFF"/>
<path d="M254.354 104.354C254.549 104.158 254.549 103.842 254.354 103.646L251.172 100.464C250.976 100.269 250.66 100.269 250.464 100.464C250.269 100.66 250.269 100.976 250.464 101.172L253.293 104L250.464 106.828C250.269 107.024 250.269 107.34 250.464 107.536C250.66 107.731 250.976 107.731 251.172 107.536L254.354 104.354ZM164 104.5H254V103.5H164V104.5Z" fill="black"/>
<path d="M153.646 114.354C153.451 114.158 153.451 113.842 153.646 113.646L156.828 110.464C157.024 110.269 157.34 110.269 157.536 110.464C157.731 110.66 157.731 110.976 157.536 111.172L154.707 114L157.536 116.828C157.731 117.024 157.731 117.34 157.536 117.536C157.34 117.731 157.024 117.731 156.828 117.536L153.646 114.354ZM244 114.5H154V113.5H244V114.5Z" fill="black"/>
<path d="M188.568 79.738C187.952 79.5473 187.402 79.4227 186.918 79.364C186.449 79.2907 186.016 79.254 185.62 79.254C185.107 79.254 184.674 79.3787 184.322 79.628C183.985 79.8773 183.816 80.2 183.816 80.596C183.831 80.948 183.985 81.2487 184.278 81.498C184.571 81.7473 184.909 81.9747 185.29 82.18C185.686 82.3707 186.119 82.5833 186.588 82.818C187.072 83.0527 187.519 83.3167 187.93 83.61C188.355 83.9033 188.7 84.2553 188.964 84.666C189.228 85.0767 189.367 85.568 189.382 86.14C189.367 86.756 189.228 87.2693 188.964 87.68C188.715 88.076 188.385 88.3987 187.974 88.648C187.578 88.8827 187.145 89.044 186.676 89.132C186.207 89.2347 185.767 89.286 185.356 89.286C184.828 89.286 184.278 89.2567 183.706 89.198C183.149 89.1393 182.547 89.0147 181.902 88.824L182.232 87.24C182.892 87.416 183.493 87.548 184.036 87.636C184.579 87.7093 185.026 87.746 185.378 87.746C185.642 87.746 185.899 87.7167 186.148 87.658C186.412 87.5993 186.647 87.5187 186.852 87.416C187.057 87.2987 187.219 87.152 187.336 86.976C187.468 86.8 187.534 86.602 187.534 86.382C187.519 85.9713 187.38 85.6267 187.116 85.348C186.852 85.0547 186.507 84.798 186.082 84.578C185.671 84.3433 185.224 84.116 184.74 83.896C184.271 83.6613 183.823 83.3973 183.398 83.104C182.987 82.796 182.643 82.4367 182.364 82.026C182.085 81.6007 181.946 81.08 181.946 80.464C181.946 80.024 182.056 79.6353 182.276 79.298C182.511 78.946 182.804 78.66 183.156 78.44C183.523 78.2053 183.919 78.0293 184.344 77.912C184.784 77.78 185.209 77.714 185.62 77.714C186.045 77.714 186.522 77.7507 187.05 77.824C187.578 77.8827 188.187 78 188.876 78.176L188.568 79.738ZM190.328 77.934H192.198L194.266 82.928C194.471 83.412 194.654 83.896 194.816 84.38C194.992 84.864 195.146 85.2967 195.278 85.678C195.439 86.1327 195.578 86.5727 195.696 86.998H195.718C195.85 86.5727 195.996 86.1327 196.158 85.678C196.29 85.2967 196.444 84.864 196.62 84.38C196.796 83.896 196.979 83.412 197.17 82.928L199.084 77.934H200.932L195.696 91.134C195.49 91.6767 195.219 92.146 194.882 92.542C194.559 92.938 194.244 93.268 193.936 93.532C193.569 93.84 193.188 94.104 192.792 94.324L191.934 92.806C192.242 92.6593 192.528 92.476 192.792 92.256C193.026 92.0653 193.261 91.8233 193.496 91.53C193.73 91.2513 193.921 90.914 194.068 90.518L194.75 88.714L190.328 77.934ZM202.715 80.134C202.73 79.826 202.693 79.1587 202.605 78.132L204.233 77.912L204.475 79.32C204.915 79.0267 205.348 78.77 205.773 78.55C206.213 78.33 206.661 78.1393 207.115 77.978C207.57 77.802 208.01 77.714 208.435 77.714C209.037 77.714 209.535 77.7873 209.931 77.934C210.342 78.066 210.672 78.2933 210.921 78.616C211.171 78.9387 211.347 79.364 211.449 79.892C211.567 80.42 211.625 81.08 211.625 81.872V89H209.865V82.07C209.865 81.63 209.858 81.2413 209.843 80.904C209.829 80.552 209.763 80.2587 209.645 80.024C209.543 79.7747 209.374 79.584 209.139 79.452C208.919 79.32 208.604 79.254 208.193 79.254C207.812 79.254 207.409 79.342 206.983 79.518C206.558 79.6793 206.14 79.87 205.729 80.09C205.319 80.31 204.901 80.5667 204.475 80.86V89H202.715V80.134ZM221.589 79.54C221.339 79.4813 220.995 79.4227 220.555 79.364C220.115 79.2907 219.667 79.254 219.213 79.254C218.553 79.254 218.01 79.386 217.585 79.65C217.174 79.914 216.851 80.2587 216.617 80.684C216.382 81.0947 216.221 81.5567 216.133 82.07C216.045 82.5687 216.001 83.06 216.001 83.544C216.001 84.292 216.096 84.9373 216.287 85.48C216.477 86.008 216.727 86.4407 217.035 86.778C217.357 87.1153 217.724 87.3647 218.135 87.526C218.545 87.6727 218.978 87.746 219.433 87.746C219.741 87.746 220.034 87.7313 220.313 87.702C220.606 87.658 220.87 87.614 221.105 87.57C221.354 87.5113 221.589 87.4453 221.809 87.372L222.161 88.846C221.853 88.934 221.567 89.0073 221.303 89.066C221.039 89.1247 220.723 89.176 220.357 89.22C220.005 89.264 219.623 89.286 219.213 89.286C218.406 89.286 217.687 89.1833 217.057 88.978C216.426 88.7727 215.891 88.4427 215.451 87.988C215.025 87.5333 214.695 86.9393 214.461 86.206C214.241 85.4727 214.131 84.578 214.131 83.522C214.131 82.4953 214.27 81.6153 214.549 80.882C214.842 80.134 215.223 79.5327 215.693 79.078C216.162 78.6087 216.697 78.264 217.299 78.044C217.915 77.824 218.553 77.714 219.213 77.714C219.565 77.714 219.902 77.736 220.225 77.78C220.562 77.8093 220.855 77.846 221.105 77.89C221.398 77.9487 221.677 78.0073 221.941 78.066L221.589 79.54Z" fill="#B82B22"/>
<path d="M254.354 192.354C254.549 192.158 254.549 191.842 254.354 191.646L251.172 188.464C250.976 188.269 250.66 188.269 250.464 188.464C250.269 188.66 250.269 188.976 250.464 189.172L253.293 192L250.464 194.828C250.269 195.024 250.269 195.34 250.464 195.536C250.66 195.731 250.976 195.731 251.172 195.536L254.354 192.354ZM164 192.5H254V191.5H164V192.5Z" fill="black"/>
<path d="M153.646 202.354C153.451 202.158 153.451 201.842 153.646 201.646L156.828 198.464C157.024 198.269 157.34 198.269 157.536 198.464C157.731 198.66 157.731 198.976 157.536 199.172L154.707 202L157.536 204.828C157.731 205.024 157.731 205.34 157.536 205.536C157.34 205.731 157.024 205.731 156.828 205.536L153.646 202.354ZM244 202.5H154V201.5H244V202.5Z" fill="black"/>
<path d="M184.744 171.918C184.451 171.933 184.172 171.947 183.908 171.962C183.644 171.977 183.38 171.999 183.116 172.028C182.867 172.043 182.639 172.065 182.434 172.094C181.378 172.226 180.63 172.461 180.19 172.798C179.75 173.121 179.53 173.59 179.53 174.206C179.53 174.719 179.684 175.108 179.992 175.372C180.315 175.621 180.733 175.746 181.246 175.746C181.95 175.746 182.573 175.629 183.116 175.394C183.673 175.145 184.216 174.822 184.744 174.426V171.918ZM184.722 175.966C184.033 176.362 183.387 176.685 182.786 176.934C182.199 177.169 181.561 177.286 180.872 177.286C179.889 177.286 179.105 177.051 178.518 176.582C177.946 176.098 177.66 175.306 177.66 174.206C177.66 173.634 177.807 173.135 178.1 172.71C178.393 172.285 178.775 171.933 179.244 171.654C179.728 171.361 180.271 171.133 180.872 170.972C181.473 170.811 182.089 170.708 182.72 170.664C182.984 170.635 183.329 170.613 183.754 170.598C184.179 170.569 184.509 170.547 184.744 170.532C184.744 170.019 184.729 169.564 184.7 169.168C184.671 168.757 184.583 168.413 184.436 168.134C184.289 167.841 184.069 167.621 183.776 167.474C183.497 167.327 183.094 167.254 182.566 167.254C182.141 167.254 181.73 167.283 181.334 167.342C180.938 167.386 180.586 167.437 180.278 167.496C179.911 167.569 179.574 167.65 179.266 167.738L178.914 166.22C179.281 166.132 179.677 166.051 180.102 165.978C180.469 165.905 180.894 165.846 181.378 165.802C181.862 165.743 182.383 165.714 182.94 165.714C183.688 165.714 184.289 165.824 184.744 166.044C185.213 166.264 185.573 166.565 185.822 166.946C186.086 167.313 186.262 167.738 186.35 168.222C186.453 168.691 186.504 169.19 186.504 169.718V174.998C186.504 175.203 186.504 175.423 186.504 175.658C186.519 175.878 186.533 176.098 186.548 176.318C186.577 176.538 186.607 176.765 186.636 177L184.942 177.176L184.722 175.966ZM195.589 167.738C194.973 167.547 194.423 167.423 193.939 167.364C193.47 167.291 193.037 167.254 192.641 167.254C192.128 167.254 191.695 167.379 191.343 167.628C191.006 167.877 190.837 168.2 190.837 168.596C190.852 168.948 191.006 169.249 191.299 169.498C191.593 169.747 191.93 169.975 192.311 170.18C192.707 170.371 193.14 170.583 193.609 170.818C194.093 171.053 194.541 171.317 194.951 171.61C195.377 171.903 195.721 172.255 195.985 172.666C196.249 173.077 196.389 173.568 196.403 174.14C196.389 174.756 196.249 175.269 195.985 175.68C195.736 176.076 195.406 176.399 194.995 176.648C194.599 176.883 194.167 177.044 193.697 177.132C193.228 177.235 192.788 177.286 192.377 177.286C191.849 177.286 191.299 177.257 190.727 177.198C190.17 177.139 189.569 177.015 188.923 176.824L189.253 175.24C189.913 175.416 190.515 175.548 191.057 175.636C191.6 175.709 192.047 175.746 192.399 175.746C192.663 175.746 192.92 175.717 193.169 175.658C193.433 175.599 193.668 175.519 193.873 175.416C194.079 175.299 194.24 175.152 194.357 174.976C194.489 174.8 194.555 174.602 194.555 174.382C194.541 173.971 194.401 173.627 194.137 173.348C193.873 173.055 193.529 172.798 193.103 172.578C192.693 172.343 192.245 172.116 191.761 171.896C191.292 171.661 190.845 171.397 190.419 171.104C190.009 170.796 189.664 170.437 189.385 170.026C189.107 169.601 188.967 169.08 188.967 168.464C188.967 168.024 189.077 167.635 189.297 167.298C189.532 166.946 189.825 166.66 190.177 166.44C190.544 166.205 190.94 166.029 191.365 165.912C191.805 165.78 192.231 165.714 192.641 165.714C193.067 165.714 193.543 165.751 194.071 165.824C194.599 165.883 195.208 166 195.897 166.176L195.589 167.738ZM197.349 165.934H199.219L201.287 170.928C201.493 171.412 201.676 171.896 201.837 172.38C202.013 172.864 202.167 173.297 202.299 173.678C202.461 174.133 202.6 174.573 202.717 174.998H202.739C202.871 174.573 203.018 174.133 203.179 173.678C203.311 173.297 203.465 172.864 203.641 172.38C203.817 171.896 204.001 171.412 204.191 170.928L206.105 165.934H207.953L202.717 179.134C202.512 179.677 202.241 180.146 201.903 180.542C201.581 180.938 201.265 181.268 200.957 181.532C200.591 181.84 200.209 182.104 199.813 182.324L198.955 180.806C199.263 180.659 199.549 180.476 199.813 180.256C200.048 180.065 200.283 179.823 200.517 179.53C200.752 179.251 200.943 178.914 201.089 178.518L201.771 176.714L197.349 165.934ZM209.737 168.134C209.752 167.826 209.715 167.159 209.627 166.132L211.255 165.912L211.497 167.32C211.937 167.027 212.37 166.77 212.795 166.55C213.235 166.33 213.682 166.139 214.137 165.978C214.592 165.802 215.032 165.714 215.457 165.714C216.058 165.714 216.557 165.787 216.953 165.934C217.364 166.066 217.694 166.293 217.943 166.616C218.192 166.939 218.368 167.364 218.471 167.892C218.588 168.42 218.647 169.08 218.647 169.872V177H216.887V170.07C216.887 169.63 216.88 169.241 216.865 168.904C216.85 168.552 216.784 168.259 216.667 168.024C216.564 167.775 216.396 167.584 216.161 167.452C215.941 167.32 215.626 167.254 215.215 167.254C214.834 167.254 214.43 167.342 214.005 167.518C213.58 167.679 213.162 167.87 212.751 168.09C212.34 168.31 211.922 168.567 211.497 168.86V177H209.737V168.134ZM228.61 167.54C228.361 167.481 228.016 167.423 227.576 167.364C227.136 167.291 226.689 167.254 226.234 167.254C225.574 167.254 225.031 167.386 224.606 167.65C224.195 167.914 223.873 168.259 223.638 168.684C223.403 169.095 223.242 169.557 223.154 170.07C223.066 170.569 223.022 171.06 223.022 171.544C223.022 172.292 223.117 172.937 223.308 173.48C223.499 174.008 223.748 174.441 224.056 174.778C224.379 175.115 224.745 175.365 225.156 175.526C225.567 175.673 225.999 175.746 226.454 175.746C226.762 175.746 227.055 175.731 227.334 175.702C227.627 175.658 227.891 175.614 228.126 175.57C228.375 175.511 228.61 175.445 228.83 175.372L229.182 176.846C228.874 176.934 228.588 177.007 228.324 177.066C228.06 177.125 227.745 177.176 227.378 177.22C227.026 177.264 226.645 177.286 226.234 177.286C225.427 177.286 224.709 177.183 224.078 176.978C223.447 176.773 222.912 176.443 222.472 175.988C222.047 175.533 221.717 174.939 221.482 174.206C221.262 173.473 221.152 172.578 221.152 171.522C221.152 170.495 221.291 169.615 221.57 168.882C221.863 168.134 222.245 167.533 222.714 167.078C223.183 166.609 223.719 166.264 224.32 166.044C224.936 165.824 225.574 165.714 226.234 165.714C226.586 165.714 226.923 165.736 227.246 165.78C227.583 165.809 227.877 165.846 228.126 165.89C228.419 165.949 228.698 166.007 228.962 166.066L228.61 167.54Z" fill="#B82B22"/>
<path d="M75.8906 270.842C75.7676 271.895 75.3779 272.708 74.7217 273.282C74.07 273.852 73.2018 274.137 72.1172 274.137C70.9414 274.137 69.998 273.715 69.2871 272.872C68.5807 272.029 68.2275 270.901 68.2275 269.488V268.531C68.2275 267.606 68.3916 266.793 68.7197 266.091C69.0524 265.389 69.5218 264.851 70.1279 264.478C70.734 264.099 71.4359 263.91 72.2334 263.91C73.2907 263.91 74.1383 264.206 74.7764 264.799C75.4144 265.387 75.7858 266.202 75.8906 267.246H74.5713C74.4574 266.453 74.209 265.879 73.8262 265.523C73.4479 265.168 72.917 264.99 72.2334 264.99C71.3949 264.99 70.7363 265.3 70.2578 265.92C69.7839 266.54 69.5469 267.422 69.5469 268.565V269.529C69.5469 270.609 69.7725 271.468 70.2236 272.106C70.6748 272.744 71.306 273.063 72.1172 273.063C72.8464 273.063 73.4046 272.899 73.792 272.571C74.1839 272.239 74.4437 271.662 74.5713 270.842H75.8906ZM78.8643 274H77.5996V263.5H78.8643V274ZM82.2686 274H81.0039V266.604H82.2686V274ZM80.9014 264.642C80.9014 264.437 80.9629 264.263 81.0859 264.122C81.2135 263.981 81.4004 263.91 81.6465 263.91C81.8926 263.91 82.0794 263.981 82.207 264.122C82.3346 264.263 82.3984 264.437 82.3984 264.642C82.3984 264.847 82.3346 265.018 82.207 265.154C82.0794 265.291 81.8926 265.359 81.6465 265.359C81.4004 265.359 81.2135 265.291 81.0859 265.154C80.9629 265.018 80.9014 264.847 80.9014 264.642ZM87.3682 274.137C86.3656 274.137 85.5498 273.809 84.9209 273.152C84.292 272.492 83.9775 271.61 83.9775 270.507V270.274C83.9775 269.541 84.1165 268.887 84.3945 268.312C84.6771 267.734 85.069 267.283 85.5703 266.959C86.0762 266.631 86.623 266.467 87.2109 266.467C88.1725 266.467 88.9199 266.784 89.4531 267.417C89.9863 268.05 90.2529 268.957 90.2529 270.138V270.664H85.2422C85.2604 271.393 85.4723 271.983 85.8779 272.435C86.2881 272.881 86.8076 273.104 87.4365 273.104C87.8831 273.104 88.2614 273.013 88.5713 272.831C88.8812 272.649 89.1523 272.407 89.3848 272.106L90.1572 272.708C89.5374 273.66 88.6077 274.137 87.3682 274.137ZM87.2109 267.506C86.7005 267.506 86.2721 267.693 85.9258 268.066C85.5794 268.436 85.3652 268.955 85.2832 269.625H88.9883V269.529C88.9518 268.887 88.7786 268.39 88.4688 268.039C88.1589 267.684 87.7396 267.506 87.2109 267.506ZM92.9189 266.604L92.96 267.533C93.5251 266.822 94.2633 266.467 95.1748 266.467C96.738 266.467 97.5264 267.349 97.54 269.112V274H96.2754V269.105C96.2708 268.572 96.1478 268.178 95.9062 267.923C95.6693 267.668 95.2979 267.54 94.792 267.54C94.3818 267.54 94.0218 267.649 93.7119 267.868C93.402 268.087 93.1605 268.374 92.9873 268.729V274H91.7227V266.604H92.9189ZM101.163 264.812V266.604H102.544V267.581H101.163V272.168C101.163 272.464 101.225 272.688 101.348 272.838C101.471 272.984 101.68 273.057 101.977 273.057C102.122 273.057 102.323 273.029 102.578 272.975V274C102.245 274.091 101.922 274.137 101.607 274.137C101.042 274.137 100.616 273.966 100.329 273.624C100.042 273.282 99.8984 272.797 99.8984 272.168V267.581H98.5518V266.604H99.8984V264.812H101.163ZM110.631 269.563C109.505 269.24 108.685 268.843 108.17 268.374C107.66 267.9 107.404 267.317 107.404 266.624C107.404 265.84 107.716 265.193 108.341 264.683C108.97 264.168 109.785 263.91 110.788 263.91C111.472 263.91 112.08 264.042 112.613 264.307C113.151 264.571 113.566 264.936 113.857 265.4C114.154 265.865 114.302 266.373 114.302 266.925H112.982C112.982 266.323 112.791 265.852 112.408 265.51C112.025 265.163 111.485 264.99 110.788 264.99C110.141 264.99 109.635 265.134 109.271 265.421C108.91 265.703 108.73 266.098 108.73 266.604C108.73 267.009 108.901 267.353 109.243 267.636C109.59 267.914 110.175 268.169 111 268.401C111.829 268.634 112.477 268.891 112.941 269.174C113.411 269.452 113.757 269.778 113.98 270.151C114.208 270.525 114.322 270.965 114.322 271.471C114.322 272.277 114.008 272.924 113.379 273.412C112.75 273.895 111.909 274.137 110.856 274.137C110.173 274.137 109.535 274.007 108.942 273.747C108.35 273.483 107.892 273.123 107.568 272.667C107.249 272.211 107.09 271.694 107.09 271.115H108.409C108.409 271.717 108.63 272.193 109.072 272.544C109.519 272.89 110.114 273.063 110.856 273.063C111.549 273.063 112.08 272.922 112.449 272.64C112.818 272.357 113.003 271.972 113.003 271.484C113.003 270.997 112.832 270.621 112.49 270.356C112.148 270.088 111.529 269.823 110.631 269.563ZM117.187 274H115.922V266.604H117.187V274ZM115.819 264.642C115.819 264.437 115.881 264.263 116.004 264.122C116.132 263.981 116.318 263.91 116.564 263.91C116.811 263.91 116.997 263.981 117.125 264.122C117.253 264.263 117.316 264.437 117.316 264.642C117.316 264.847 117.253 265.018 117.125 265.154C116.997 265.291 116.811 265.359 116.564 265.359C116.318 265.359 116.132 265.291 116.004 265.154C115.881 265.018 115.819 264.847 115.819 264.642ZM118.909 270.24C118.909 269.105 119.178 268.194 119.716 267.506C120.254 266.813 120.958 266.467 121.828 266.467C122.694 266.467 123.38 266.763 123.886 267.355V263.5H125.15V274H123.988L123.927 273.207C123.421 273.827 122.717 274.137 121.814 274.137C120.958 274.137 120.258 273.786 119.716 273.084C119.178 272.382 118.909 271.466 118.909 270.336V270.24ZM120.174 270.384C120.174 271.222 120.347 271.879 120.693 272.353C121.04 272.826 121.518 273.063 122.129 273.063C122.931 273.063 123.517 272.703 123.886 271.983V268.586C123.507 267.889 122.926 267.54 122.143 267.54C121.523 267.54 121.04 267.779 120.693 268.258C120.347 268.736 120.174 269.445 120.174 270.384ZM130.188 274.137C129.186 274.137 128.37 273.809 127.741 273.152C127.112 272.492 126.798 271.61 126.798 270.507V270.274C126.798 269.541 126.937 268.887 127.215 268.312C127.497 267.734 127.889 267.283 128.391 266.959C128.896 266.631 129.443 266.467 130.031 266.467C130.993 266.467 131.74 266.784 132.273 267.417C132.807 268.05 133.073 268.957 133.073 270.138V270.664H128.062C128.081 271.393 128.293 271.983 128.698 272.435C129.108 272.881 129.628 273.104 130.257 273.104C130.703 273.104 131.082 273.013 131.392 272.831C131.701 272.649 131.973 272.407 132.205 272.106L132.978 272.708C132.358 273.66 131.428 274.137 130.188 274.137ZM130.031 267.506C129.521 267.506 129.092 267.693 128.746 268.066C128.4 268.436 128.186 268.955 128.104 269.625H131.809V269.529C131.772 268.887 131.599 268.39 131.289 268.039C130.979 267.684 130.56 267.506 130.031 267.506Z" fill="#5EC86F"/>
<path d="M68.1016 33.5635C66.9759 33.2399 66.1556 32.8434 65.6406 32.374C65.1302 31.9001 64.875 31.3167 64.875 30.624C64.875 29.8402 65.1872 29.193 65.8115 28.6826C66.4404 28.1676 67.2562 27.9102 68.2588 27.9102C68.9424 27.9102 69.5508 28.0423 70.084 28.3066C70.6217 28.571 71.0365 28.9355 71.3281 29.4004C71.6243 29.8652 71.7725 30.3734 71.7725 30.9248H70.4531C70.4531 30.3232 70.2617 29.8516 69.8789 29.5098C69.4961 29.1634 68.9561 28.9902 68.2588 28.9902C67.6117 28.9902 67.1058 29.1338 66.7412 29.4209C66.3812 29.7035 66.2012 30.0977 66.2012 30.6035C66.2012 31.0091 66.3721 31.3532 66.7139 31.6357C67.0602 31.9137 67.6458 32.1689 68.4707 32.4014C69.3001 32.6338 69.9473 32.8913 70.4121 33.1738C70.8815 33.4518 71.2279 33.7777 71.4512 34.1514C71.679 34.5251 71.793 34.9648 71.793 35.4707C71.793 36.2773 71.4785 36.9245 70.8496 37.4121C70.2207 37.8952 69.3799 38.1367 68.3271 38.1367C67.6436 38.1367 67.0055 38.0068 66.4131 37.7471C65.8206 37.4827 65.3626 37.1227 65.0391 36.667C64.7201 36.2113 64.5605 35.694 64.5605 35.1152H65.8799C65.8799 35.7168 66.1009 36.193 66.543 36.5439C66.9896 36.8903 67.5843 37.0635 68.3271 37.0635C69.0199 37.0635 69.5508 36.9222 69.9199 36.6396C70.2891 36.3571 70.4736 35.972 70.4736 35.4844C70.4736 34.9967 70.3027 34.6208 69.9609 34.3564C69.6191 34.0876 68.9993 33.8232 68.1016 33.5635ZM76.3525 38.1367C75.3499 38.1367 74.5342 37.8086 73.9053 37.1523C73.2764 36.4915 72.9619 35.6097 72.9619 34.5068V34.2744C72.9619 33.5407 73.1009 32.8867 73.3789 32.3125C73.6615 31.7337 74.0534 31.2826 74.5547 30.959C75.0605 30.6309 75.6074 30.4668 76.1953 30.4668C77.1569 30.4668 77.9043 30.7835 78.4375 31.417C78.9707 32.0505 79.2373 32.9574 79.2373 34.1377V34.6641H74.2266C74.2448 35.3932 74.4567 35.9834 74.8623 36.4346C75.2725 36.8812 75.792 37.1045 76.4209 37.1045C76.8675 37.1045 77.2458 37.0133 77.5557 36.8311C77.8656 36.6488 78.1367 36.4072 78.3691 36.1064L79.1416 36.708C78.5218 37.6605 77.5921 38.1367 76.3525 38.1367ZM76.1953 31.5059C75.6849 31.5059 75.2565 31.6927 74.9102 32.0664C74.5638 32.4355 74.3496 32.9551 74.2676 33.625H77.9727V33.5293C77.9362 32.8867 77.763 32.39 77.4531 32.0391C77.1432 31.6836 76.724 31.5059 76.1953 31.5059ZM84.2822 31.7383C84.0908 31.7064 83.8835 31.6904 83.6602 31.6904C82.8307 31.6904 82.2679 32.0436 81.9717 32.75V38H80.707V30.6035H81.9375L81.958 31.458C82.3727 30.7972 82.9606 30.4668 83.7217 30.4668C83.9678 30.4668 84.1546 30.4987 84.2822 30.5625V31.7383ZM88.0146 36.2842L89.8467 30.6035H91.1387L88.4863 38H87.5225L84.8428 30.6035H86.1348L88.0146 36.2842ZM95.3291 38.1367C94.3265 38.1367 93.5107 37.8086 92.8818 37.1523C92.2529 36.4915 91.9385 35.6097 91.9385 34.5068V34.2744C91.9385 33.5407 92.0775 32.8867 92.3555 32.3125C92.638 31.7337 93.0299 31.2826 93.5312 30.959C94.0371 30.6309 94.584 30.4668 95.1719 30.4668C96.1335 30.4668 96.8809 30.7835 97.4141 31.417C97.9473 32.0505 98.2139 32.9574 98.2139 34.1377V34.6641H93.2031C93.2214 35.3932 93.4333 35.9834 93.8389 36.4346C94.249 36.8812 94.7686 37.1045 95.3975 37.1045C95.8441 37.1045 96.2223 37.0133 96.5322 36.8311C96.8421 36.6488 97.1133 36.4072 97.3457 36.1064L98.1182 36.708C97.4984 37.6605 96.5687 38.1367 95.3291 38.1367ZM95.1719 31.5059C94.6615 31.5059 94.2331 31.6927 93.8867 32.0664C93.5404 32.4355 93.3262 32.9551 93.2441 33.625H96.9492V33.5293C96.9128 32.8867 96.7396 32.39 96.4297 32.0391C96.1198 31.6836 95.7005 31.5059 95.1719 31.5059ZM103.259 31.7383C103.067 31.7064 102.86 31.6904 102.637 31.6904C101.807 31.6904 101.244 32.0436 100.948 32.75V38H99.6836V30.6035H100.914L100.935 31.458C101.349 30.7972 101.937 30.4668 102.698 30.4668C102.944 30.4668 103.131 30.4987 103.259 30.5625V31.7383ZM111.031 33.5635C109.906 33.2399 109.085 32.8434 108.57 32.374C108.06 31.9001 107.805 31.3167 107.805 30.624C107.805 29.8402 108.117 29.193 108.741 28.6826C109.37 28.1676 110.186 27.9102 111.188 27.9102C111.872 27.9102 112.48 28.0423 113.014 28.3066C113.551 28.571 113.966 28.9355 114.258 29.4004C114.554 29.8652 114.702 30.3734 114.702 30.9248H113.383C113.383 30.3232 113.191 29.8516 112.809 29.5098C112.426 29.1634 111.886 28.9902 111.188 28.9902C110.541 28.9902 110.035 29.1338 109.671 29.4209C109.311 29.7035 109.131 30.0977 109.131 30.6035C109.131 31.0091 109.302 31.3532 109.644 31.6357C109.99 31.9137 110.576 32.1689 111.4 32.4014C112.23 32.6338 112.877 32.8913 113.342 33.1738C113.811 33.4518 114.158 33.7777 114.381 34.1514C114.609 34.5251 114.723 34.9648 114.723 35.4707C114.723 36.2773 114.408 36.9245 113.779 37.4121C113.15 37.8952 112.31 38.1367 111.257 38.1367C110.573 38.1367 109.935 38.0068 109.343 37.7471C108.75 37.4827 108.292 37.1227 107.969 36.667C107.65 36.2113 107.49 35.694 107.49 35.1152H108.81C108.81 35.7168 109.031 36.193 109.473 36.5439C109.919 36.8903 110.514 37.0635 111.257 37.0635C111.95 37.0635 112.48 36.9222 112.85 36.6396C113.219 36.3571 113.403 35.972 113.403 35.4844C113.403 34.9967 113.232 34.6208 112.891 34.3564C112.549 34.0876 111.929 33.8232 111.031 33.5635ZM117.587 38H116.322V30.6035H117.587V38ZM116.22 28.6416C116.22 28.4365 116.281 28.2633 116.404 28.1221C116.532 27.9808 116.719 27.9102 116.965 27.9102C117.211 27.9102 117.398 27.9808 117.525 28.1221C117.653 28.2633 117.717 28.4365 117.717 28.6416C117.717 28.8467 117.653 29.0176 117.525 29.1543C117.398 29.291 117.211 29.3594 116.965 29.3594C116.719 29.3594 116.532 29.291 116.404 29.1543C116.281 29.0176 116.22 28.8467 116.22 28.6416ZM119.31 34.2402C119.31 33.1055 119.578 32.194 120.116 31.5059C120.654 30.8132 121.358 30.4668 122.229 30.4668C123.094 30.4668 123.78 30.763 124.286 31.3555V27.5H125.551V38H124.389L124.327 37.207C123.821 37.8268 123.117 38.1367 122.215 38.1367C121.358 38.1367 120.659 37.7858 120.116 37.084C119.578 36.3822 119.31 35.4661 119.31 34.3359V34.2402ZM120.574 34.3838C120.574 35.2223 120.747 35.8786 121.094 36.3525C121.44 36.8265 121.919 37.0635 122.529 37.0635C123.331 37.0635 123.917 36.7035 124.286 35.9834V32.5859C123.908 31.8887 123.327 31.54 122.543 31.54C121.923 31.54 121.44 31.7793 121.094 32.2578C120.747 32.7363 120.574 33.445 120.574 34.3838ZM130.589 38.1367C129.586 38.1367 128.771 37.8086 128.142 37.1523C127.513 36.4915 127.198 35.6097 127.198 34.5068V34.2744C127.198 33.5407 127.337 32.8867 127.615 32.3125C127.898 31.7337 128.29 31.2826 128.791 30.959C129.297 30.6309 129.844 30.4668 130.432 30.4668C131.393 30.4668 132.141 30.7835 132.674 31.417C133.207 32.0505 133.474 32.9574 133.474 34.1377V34.6641H128.463C128.481 35.3932 128.693 35.9834 129.099 36.4346C129.509 36.8812 130.028 37.1045 130.657 37.1045C131.104 37.1045 131.482 37.0133 131.792 36.8311C132.102 36.6488 132.373 36.4072 132.605 36.1064L133.378 36.708C132.758 37.6605 131.828 38.1367 130.589 38.1367ZM130.432 31.5059C129.921 31.5059 129.493 31.6927 129.146 32.0664C128.8 32.4355 128.586 32.9551 128.504 33.625H132.209V33.5293C132.173 32.8867 131.999 32.39 131.689 32.0391C131.38 31.6836 130.96 31.5059 130.432 31.5059Z" fill="#5EC86F"/>
</svg>
