<svg xmlns="http://www.w3.org/2000/svg" viewBox="0 0 280.91 132.19"><defs><style>.cls-1{fill:#b82b22;}.cls-2{fill:#231815;}</style></defs><g id="レイヤー_2" data-name="レイヤー 2"><g id="レイヤー_1-2" data-name="レイヤー 1"><polygon class="cls-1" points="75.79 5.16 37.52 132.19 81.16 0 75.79 5.16"/><polygon class="cls-1" points="33.8 132.19 2.97 58.02 37.52 132.19 33.8 132.19"/><polygon class="cls-1" points="0 51.65 2.97 58.02 108.36 128.84 0 51.65"/><path class="cls-2" d="M100.65,110.44H76.8l-7.48,18.4h-4l23.6-57.71,23.27,57.71h-4Zm-1.34-3.36L88.81,80.54,78.14,107.08Z"/><path class="cls-2" d="M146.85,102.63A15.66,15.66,0,0,0,135,97c-8.4,0-14.28,6.47-14.28,14.87,0,9.83,7.47,14.7,14.11,14.7,5.46,0,9.74-3.19,12.43-6.13V125a18.67,18.67,0,0,1-12.51,4.79c-10.34,0-17.56-7.64-17.56-17.81S124,93.81,135,93.81a18,18,0,0,1,11.84,4.37Z"/><path class="cls-2" d="M184,102.63A15.68,15.68,0,0,0,172.14,97c-8.41,0-14.29,6.47-14.29,14.87,0,9.83,7.48,14.7,14.12,14.7,5.46,0,9.74-3.19,12.43-6.13V125a18.68,18.68,0,0,1-12.52,4.79c-10.33,0-17.55-7.64-17.55-17.81s6.8-18.14,17.81-18.14A18,18,0,0,1,184,98.18Z"/><path class="cls-2" d="M195,112.12c0,8.74,6.39,14.45,13.61,14.45a13.1,13.1,0,0,0,11.93-7.81l2.85,1.68a16.55,16.55,0,0,1-15,9.32c-10.67,0-16.89-7.89-16.89-17.89,0-11.93,8.24-18.06,16.64-18.06,9.24,0,16.21,7.39,16.21,18.31Zm25.79-3.19c-.84-6.8-5.88-11.93-12.68-11.93-7,0-11.93,5.29-12.86,11.93Z"/><path class="cls-2" d="M237.57,67.6v61.24h-3.36V67.6Z"/><path class="cls-2" d="M277.55,94.57h3.36v34.27h-3.36v-6.13a15.64,15.64,0,0,1-13.35,7c-9,0-16.72-6.8-16.72-18.06,0-10.58,6.72-17.89,16.72-17.89a15.63,15.63,0,0,1,13.35,6.72ZM251,111.45c0,7.73,4.79,15.12,13.44,15.12s13.27-7.22,13.27-15.12c0-10.16-7.48-14.45-13.36-14.45C257.56,97,251,102.13,251,111.45Z"/></g></g></svg>