<svg width="200" height="200" viewBox="0 0 200 200" fill="none" xmlns="http://www.w3.org/2000/svg">
<path d="M66.0137 48.4688H86.5215V117.375C86.5215 123.71 85.1087 129.315 82.2832 134.191C79.5033 139.022 75.5612 142.759 70.457 145.402C65.3529 148.046 59.5879 149.367 53.1621 149.367C42.6348 149.367 34.4316 146.701 28.5527 141.369C22.6738 135.992 19.7344 128.404 19.7344 118.605H40.3789C40.3789 123.482 41.4043 127.082 43.4551 129.406C45.5059 131.73 48.7415 132.893 53.1621 132.893C57.0814 132.893 60.2031 131.548 62.5273 128.859C64.8516 126.171 66.0137 122.342 66.0137 117.375V48.4688ZM155.701 121.887C155.701 118.013 154.334 115.051 151.6 113C148.865 110.904 143.943 108.716 136.834 106.438C129.725 104.113 124.096 101.835 119.949 99.6016C108.647 93.4948 102.996 85.2689 102.996 74.9238C102.996 69.5462 104.5 64.7611 107.508 60.5684C110.561 56.3301 114.913 53.026 120.564 50.6562C126.261 48.2865 132.641 47.1016 139.705 47.1016C146.814 47.1016 153.149 48.4004 158.709 50.998C164.269 53.5501 168.576 57.1732 171.629 61.8672C174.728 66.5612 176.277 71.8932 176.277 77.8633H155.77C155.77 73.306 154.334 69.7741 151.463 67.2676C148.592 64.7155 144.559 63.4395 139.363 63.4395C134.35 63.4395 130.454 64.5104 127.674 66.6523C124.894 68.7487 123.504 71.5286 123.504 74.9922C123.504 78.2279 125.122 80.9395 128.357 83.127C131.639 85.3145 136.447 87.3652 142.781 89.2793C154.448 92.7884 162.947 97.1406 168.279 102.336C173.611 107.531 176.277 114.003 176.277 121.75C176.277 130.363 173.019 137.131 166.502 142.053C159.985 146.929 151.212 149.367 140.184 149.367C132.527 149.367 125.555 147.977 119.266 145.197C112.977 142.372 108.169 138.521 104.842 133.645C101.561 128.768 99.9199 123.117 99.9199 116.691H120.496C120.496 127.674 127.059 133.166 140.184 133.166C145.06 133.166 148.865 132.186 151.6 130.227C154.334 128.221 155.701 125.441 155.701 121.887Z" fill="url(#paint0_linear)"/>
<defs>
<linearGradient id="paint0_linear" x1="100.054" y1="48.2105" x2="100.054" y2="147.474" gradientUnits="userSpaceOnUse">
<stop stop-color="#CAA72C"/>
<stop offset="1" stop-color="#A07F07"/>
</linearGradient>
</defs>
</svg>
